<svg width="24" height="59" viewBox="0 0 24 59" fill="none" xmlns="http://www.w3.org/2000/svg">
<rect width="24" height="24" rx="6" fill="#FF8200"/>
<path fill-rule="evenodd" clip-rule="evenodd" d="M11.5617 6.88529C11.6901 6.79533 11.8432 6.74707 12 6.74707C12.1568 6.74707 12.3098 6.79533 12.4383 6.88529C12.565 6.97404 12.6618 7.09912 12.7158 7.24397L13.7454 9.83661L13.7485 9.84462C13.7494 9.84718 13.7511 9.84941 13.7533 9.85104C13.7555 9.85266 13.7581 9.85361 13.7608 9.85377L13.7632 9.8539L16.5288 10.032C17.2467 10.0787 17.4921 10.9773 16.9696 11.4117L16.9693 11.4119L14.8511 13.1786L14.8499 13.1796C14.8451 13.1836 14.8416 13.1888 14.8396 13.1947C14.8378 13.2004 14.8375 13.2065 14.8388 13.2123L14.839 13.2128L15.5228 15.9013C15.6884 16.5549 14.9826 17.1435 14.3687 16.7562L14.3677 16.7557L12.0052 15.2557C12.0037 15.2547 12.0018 15.2541 12 15.2541C11.9982 15.2541 11.9965 15.2546 11.995 15.2555L11.9944 15.2559L9.79664 16.6476L9.79629 16.6479C9.12279 17.0761 8.34491 16.425 8.52877 15.7044V15.7044L9.16103 13.2128L9.16113 13.2124C9.16251 13.2065 9.16224 13.2004 9.16035 13.1947C9.15841 13.1888 9.15486 13.1836 9.15009 13.1796L9.14886 13.1786L7.03072 11.4119L7.03042 11.4117C6.50793 10.9773 6.75309 10.0787 7.47101 10.032L10.2391 9.85376C10.2419 9.8536 10.2445 9.85266 10.2467 9.85104C10.2489 9.84941 10.2506 9.84718 10.2515 9.84462L10.2546 9.83661L11.2842 7.24397C11.3382 7.09912 11.435 6.97404 11.5617 6.88529ZM12.4075 14.6226V14.6226L14.7688 16.1219V16.1219C14.7731 16.1246 14.7759 16.1256 14.7766 16.1258C14.7776 16.1256 14.7809 16.1247 14.7853 16.1214C14.791 16.1171 14.7946 16.1117 14.7963 16.1073C14.797 16.1053 14.7975 16.1032 14.7977 16.1005C14.7978 16.098 14.7977 16.0933 14.7959 16.0859V16.0859L14.111 13.3934C14.0755 13.2503 14.0812 13.1 14.1273 12.9599C14.1734 12.8201 14.258 12.6961 14.3713 12.6022L14.372 12.6016L16.4901 10.835C16.4945 10.8313 16.4963 10.8287 16.4971 10.8275C16.498 10.8261 16.4987 10.8245 16.4993 10.8222C16.5007 10.8172 16.5011 10.8085 16.498 10.7984C16.4949 10.7883 16.4903 10.7835 16.4889 10.7823L16.4882 10.7818C16.4882 10.7818 16.486 10.7808 16.4805 10.7805V10.7805L13.7173 10.6025L13.7159 10.6024C13.5682 10.5936 13.4263 10.542 13.3073 10.454C13.1893 10.3667 13.0989 10.2473 13.047 10.1101L12.0171 7.51654C12.0158 7.51315 12.0145 7.50975 12.0132 7.50633C12.0122 7.50361 12.0104 7.50127 12.0081 7.49961C12.0057 7.49796 12.0029 7.49707 12 7.49707C11.9971 7.49707 11.9943 7.49796 11.9919 7.49961C11.9896 7.50127 11.9878 7.50361 11.9868 7.50633C11.9855 7.50975 11.9842 7.51315 11.9829 7.51654L10.953 10.1101C10.901 10.2473 10.8107 10.3667 10.6927 10.454C10.5737 10.542 10.4318 10.5936 10.2841 10.6024L7.51961 10.7805V10.7805C7.51415 10.7808 7.51185 10.7818 7.51185 10.7818L7.51106 10.7823C7.5097 10.7835 7.50509 10.7883 7.50198 10.7984C7.49886 10.8085 7.49933 10.8172 7.50066 10.8222C7.50124 10.8245 7.50199 10.8261 7.50286 10.8275C7.50365 10.8287 7.50551 10.8313 7.5099 10.835L7.5105 10.8355L9.62802 12.6016L9.62875 12.6022C9.74206 12.6962 9.8266 12.8201 9.87267 12.9599C9.91883 13.1 9.92448 13.2503 9.88896 13.3934L9.88847 13.3954L9.25551 15.8897C9.24196 15.9428 9.26065 15.9838 9.2949 16.0099C9.31243 16.0232 9.33014 16.0289 9.34413 16.0299C9.35571 16.0307 9.37173 16.029 9.39398 16.0149L11.5925 14.6226L11.5931 14.6223C11.7148 14.5451 11.8559 14.5041 12 14.5041C12.1442 14.5041 12.2857 14.5453 12.4075 14.6226Z" fill="#FFF7F0"/>
<path d="M12 26V58" stroke="#E6E6E6" stroke-linecap="round"/>
</svg>
