<svg width="24" height="59" viewBox="0 0 24 59" fill="none" xmlns="http://www.w3.org/2000/svg">
<rect width="24" height="24" rx="6" fill="#FFB466"/>
<path fill-rule="evenodd" clip-rule="evenodd" d="M7.17608 14.061C7.28044 13.8822 7.51006 13.8217 7.68895 13.9261L12 16.4409L16.311 13.9261C16.4899 13.8217 16.7196 13.8822 16.8239 14.061C16.9283 14.2399 16.8678 14.4696 16.689 14.5739L12.189 17.1989C12.0722 17.267 11.9278 17.267 11.811 17.1989L7.31105 14.5739C7.13215 14.4696 7.07173 14.2399 7.17608 14.061Z" fill="white"/>
<path fill-rule="evenodd" clip-rule="evenodd" d="M7.17608 11.811C7.28044 11.6322 7.51006 11.5717 7.68895 11.6761L12 14.1909L16.311 11.6761C16.4899 11.5717 16.7196 11.6322 16.8239 11.811C16.9283 11.9899 16.8678 12.2196 16.689 12.3239L12.189 14.9489C12.0722 15.017 11.9278 15.017 11.811 14.9489L7.31105 12.3239C7.13215 12.2196 7.07173 11.9899 7.17608 11.811Z" fill="white"/>
<path fill-rule="evenodd" clip-rule="evenodd" d="M11.811 6.80108C11.9278 6.73297 12.0722 6.73297 12.189 6.80108L16.689 9.42608C16.8042 9.49329 16.875 9.61662 16.875 9.75C16.875 9.88338 16.8042 10.0067 16.689 10.0739L12.189 12.6989C12.0722 12.767 11.9278 12.767 11.811 12.6989L7.31105 10.0739C7.19584 10.0067 7.125 9.88338 7.125 9.75C7.125 9.61662 7.19584 9.49329 7.31105 9.42608L11.811 6.80108ZM8.24424 9.75L12 11.9409L15.7558 9.75L12 7.55914L8.24424 9.75Z" fill="white"/>
<path d="M12 26V58" stroke="#E6E6E6" stroke-linecap="round"/>
</svg>
