<svg width="24" height="59" viewBox="0 0 24 59" fill="none" xmlns="http://www.w3.org/2000/svg">
<rect width="24" height="24" rx="6" fill="#FF8200"/>
<path fill-rule="evenodd" clip-rule="evenodd" d="M6.37501 9.37501C6.37501 8.96079 6.71079 8.62501 7.12501 8.62501H16.875C17.2892 8.62501 17.625 8.96079 17.625 9.37501V14.625C17.625 15.0392 17.2892 15.375 16.875 15.375H7.12501C6.71079 15.375 6.37501 15.0392 6.37501 14.625V9.37501ZM16.875 9.37501H7.12501V14.625H16.875V9.37501Z" fill="#FFF7F0"/>
<path fill-rule="evenodd" clip-rule="evenodd" d="M12 10.875C11.3787 10.875 10.875 11.3787 10.875 12C10.875 12.6213 11.3787 13.125 12 13.125C12.6213 13.125 13.125 12.6213 13.125 12C13.125 11.3787 12.6213 10.875 12 10.875ZM10.125 12C10.125 10.9645 10.9645 10.125 12 10.125C13.0355 10.125 13.875 10.9645 13.875 12C13.875 13.0355 13.0355 13.875 12 13.875C10.9645 13.875 10.125 13.0355 10.125 12Z" fill="#FFF7F0"/>
<path fill-rule="evenodd" clip-rule="evenodd" d="M13.9678 8.75307C14.1042 8.5972 14.3411 8.58141 14.4969 8.71779L17.4969 11.3428C17.6528 11.4792 17.6686 11.7161 17.5322 11.8719C17.3958 12.0278 17.1589 12.0436 17.0031 11.9072L14.0031 9.28222C13.8472 9.14584 13.8314 8.90893 13.9678 8.75307Z" fill="#FFF7F0"/>
<path fill-rule="evenodd" clip-rule="evenodd" d="M17.5322 12.1281C17.6686 12.2839 17.6528 12.5208 17.4969 12.6572L14.4969 15.2822C14.3411 15.4186 14.1042 15.4028 13.9678 15.2469C13.8314 15.0911 13.8472 14.8542 14.0031 14.7178L17.0031 12.0928C17.1589 11.9564 17.3958 11.9722 17.5322 12.1281Z" fill="#FFF7F0"/>
<path fill-rule="evenodd" clip-rule="evenodd" d="M10.0322 8.75307C10.1686 8.90893 10.1528 9.14584 9.99694 9.28222L6.99694 11.9072C6.84108 12.0436 6.60417 12.0278 6.46779 11.8719C6.33141 11.7161 6.3472 11.4792 6.50307 11.3428L9.50307 8.71779C9.65893 8.58141 9.89584 8.5972 10.0322 8.75307Z" fill="#FFF7F0"/>
<path fill-rule="evenodd" clip-rule="evenodd" d="M6.46779 12.1281C6.60417 11.9722 6.84108 11.9564 6.99694 12.0928L9.99694 14.7178C10.1528 14.8542 10.1686 15.0911 10.0322 15.2469C9.89584 15.4028 9.65893 15.4186 9.50307 15.2822L6.50307 12.6572C6.3472 12.5208 6.33141 12.2839 6.46779 12.1281Z" fill="#FFF7F0"/>
<path d="M12 26V58" stroke="#E6E6E6" stroke-linecap="round"/>
</svg>
