<svg width="24" height="58" viewBox="0 0 24 58" fill="none" xmlns="http://www.w3.org/2000/svg">
<rect width="24" height="24" rx="6" fill="#FF8200"/>
<path fill-rule="evenodd" clip-rule="evenodd" d="M16.5094 8.04844C16.7165 8.04844 16.8844 8.21633 16.8844 8.42344V10.6734C16.8844 10.8805 16.7165 11.0484 16.5094 11.0484H14.2594C14.0523 11.0484 13.8844 10.8805 13.8844 10.6734C13.8844 10.4663 14.0523 10.2984 14.2594 10.2984H16.1344V8.42344C16.1344 8.21633 16.3023 8.04844 16.5094 8.04844Z" fill="#FFF7F0"/>
<path fill-rule="evenodd" clip-rule="evenodd" d="M12.7303 8.32228C12.0028 8.17734 11.2487 8.25142 10.5633 8.53516C9.87786 8.8189 9.29201 9.29954 8.87982 9.9163C8.46763 10.533 8.24762 11.2582 8.24762 12C8.24762 12.7418 8.46763 13.467 8.87982 14.0837C9.29201 14.7005 9.87786 15.1811 10.5633 15.4648C11.2487 15.7486 12.0028 15.8227 12.7303 15.6777C13.4578 15.5328 14.126 15.1753 14.6504 14.6506C14.7967 14.5041 15.0342 14.504 15.1807 14.6504C15.3272 14.7967 15.3273 15.0342 15.1809 15.1807C14.5517 15.8104 13.7499 16.2393 12.8769 16.4133C12.0039 16.5872 11.0989 16.4983 10.2764 16.1578C9.45391 15.8173 8.75089 15.2406 8.25626 14.5004C7.76163 13.7603 7.49762 12.8902 7.49762 12C7.49762 11.1098 7.76163 10.2397 8.25626 9.49955C8.75089 8.75945 9.45391 8.18268 10.2764 7.84219C11.0989 7.50171 12.0039 7.41281 12.8769 7.58674C13.7498 7.76065 14.5515 8.18952 15.1807 8.81912L16.7741 10.4079C16.9208 10.5541 16.9212 10.7916 16.7749 10.9382C16.6287 11.0849 16.3913 11.0852 16.2446 10.939L14.6504 9.34943C14.126 8.82468 13.4578 8.46722 12.7303 8.32228Z" fill="#FFF7F0"/>
</svg>
