<svg width="550" height="230" viewBox="0 0 550 230" fill="none" xmlns="http://www.w3.org/2000/svg">
<path d="M1 7H13" stroke="#FF8200" stroke-width="2" stroke-linecap="round"/>
<path d="M19.7 11V3.8H22.48C22.55 3.8 22.6283 3.80333 22.715 3.81C22.805 3.81333 22.895 3.82333 22.985 3.84C23.3617 3.89667 23.68 4.02833 23.94 4.235C24.2033 4.43833 24.4017 4.695 24.535 5.005C24.6717 5.315 24.74 5.65833 24.74 6.035C24.74 6.57833 24.5967 7.05 24.31 7.45C24.0233 7.85 23.6133 8.10167 23.08 8.205L22.825 8.265H20.435V11H19.7ZM24.06 11L22.64 8.07L23.345 7.8L24.905 11H24.06ZM20.435 7.565H22.46C22.52 7.565 22.59 7.56167 22.67 7.555C22.75 7.54833 22.8283 7.53667 22.905 7.52C23.1517 7.46667 23.3533 7.365 23.51 7.215C23.67 7.065 23.7883 6.88667 23.865 6.68C23.945 6.47333 23.985 6.25833 23.985 6.035C23.985 5.81167 23.945 5.59667 23.865 5.39C23.7883 5.18 23.67 5 23.51 4.85C23.3533 4.7 23.1517 4.59833 22.905 4.545C22.8283 4.52833 22.75 4.51833 22.67 4.515C22.59 4.50833 22.52 4.505 22.46 4.505H20.435V7.565ZM28.2936 11.15C27.7669 11.15 27.3103 11.0333 26.9236 10.8C26.5403 10.5667 26.2419 10.2383 26.0286 9.815C25.8153 9.39167 25.7086 8.895 25.7086 8.325C25.7086 7.735 25.8136 7.225 26.0236 6.795C26.2336 6.365 26.5286 6.03333 26.9086 5.8C27.2919 5.56667 27.7436 5.45 28.2636 5.45C28.7969 5.45 29.2519 5.57333 29.6286 5.82C30.0053 6.06333 30.2903 6.41333 30.4836 6.87C30.6769 7.32667 30.7653 7.87167 30.7486 8.505H29.9986V8.245C29.9853 7.545 29.8336 7.01667 29.5436 6.66C29.2569 6.30333 28.8369 6.125 28.2836 6.125C27.7036 6.125 27.2586 6.31333 26.9486 6.69C26.6419 7.06667 26.4886 7.60333 26.4886 8.3C26.4886 8.98 26.6419 9.50833 26.9486 9.885C27.2586 10.2583 27.6969 10.445 28.2636 10.445C28.6503 10.445 28.9869 10.3567 29.2736 10.18C29.5636 10 29.7919 9.74167 29.9586 9.405L30.6436 9.67C30.4303 10.14 30.1153 10.505 29.6986 10.765C29.2853 11.0217 28.8169 11.15 28.2936 11.15ZM26.2286 8.505V7.89H30.3536V8.505H26.2286ZM33.1229 11L31.1629 5.6H31.9079L33.5029 10.04L35.0879 5.6H35.8429L33.8829 11H33.1229ZM38.8307 11.15C38.304 11.15 37.8474 11.0333 37.4607 10.8C37.0774 10.5667 36.779 10.2383 36.5657 9.815C36.3524 9.39167 36.2457 8.895 36.2457 8.325C36.2457 7.735 36.3507 7.225 36.5607 6.795C36.7707 6.365 37.0657 6.03333 37.4457 5.8C37.829 5.56667 38.2807 5.45 38.8007 5.45C39.334 5.45 39.789 5.57333 40.1657 5.82C40.5424 6.06333 40.8274 6.41333 41.0207 6.87C41.214 7.32667 41.3024 7.87167 41.2857 8.505H40.5357V8.245C40.5224 7.545 40.3707 7.01667 40.0807 6.66C39.794 6.30333 39.374 6.125 38.8207 6.125C38.2407 6.125 37.7957 6.31333 37.4857 6.69C37.179 7.06667 37.0257 7.60333 37.0257 8.3C37.0257 8.98 37.179 9.50833 37.4857 9.885C37.7957 10.2583 38.234 10.445 38.8007 10.445C39.1874 10.445 39.524 10.3567 39.8107 10.18C40.1007 10 40.329 9.74167 40.4957 9.405L41.1807 9.67C40.9674 10.14 40.6524 10.505 40.2357 10.765C39.8224 11.0217 39.354 11.15 38.8307 11.15ZM36.7657 8.505V7.89H40.8907V8.505H36.7657ZM46.1488 11V8.245C46.1488 7.945 46.1205 7.67 46.0638 7.42C46.0072 7.16667 45.9155 6.94667 45.7888 6.76C45.6655 6.57 45.5038 6.42333 45.3038 6.32C45.1072 6.21667 44.8672 6.165 44.5838 6.165C44.3238 6.165 44.0938 6.21 43.8938 6.3C43.6972 6.39 43.5305 6.52 43.3938 6.69C43.2605 6.85667 43.1588 7.06 43.0888 7.3C43.0188 7.54 42.9838 7.81333 42.9838 8.12L42.4638 8.005C42.4638 7.45167 42.5605 6.98667 42.7538 6.61C42.9472 6.23333 43.2138 5.94833 43.5538 5.755C43.8938 5.56167 44.2838 5.465 44.7238 5.465C45.0472 5.465 45.3288 5.515 45.5688 5.615C45.8122 5.715 46.0172 5.85 46.1838 6.02C46.3538 6.19 46.4905 6.385 46.5938 6.605C46.6972 6.82167 46.7722 7.05333 46.8188 7.3C46.8655 7.54333 46.8888 7.78667 46.8888 8.03V11H46.1488ZM42.2438 11V5.6H42.9088V6.93H42.9838V11H42.2438ZM50.2513 11.135C49.928 11.135 49.6447 11.085 49.4013 10.985C49.1613 10.885 48.9563 10.75 48.7863 10.58C48.6197 10.41 48.4847 10.2167 48.3813 10C48.278 9.78 48.203 9.54833 48.1563 9.305C48.1097 9.05833 48.0863 8.81333 48.0863 8.57V5.6H48.8263V8.355C48.8263 8.65167 48.8547 8.92667 48.9113 9.18C48.968 9.43333 49.058 9.655 49.1813 9.845C49.308 10.0317 49.4697 10.1767 49.6663 10.28C49.8663 10.3833 50.108 10.435 50.3913 10.435C50.6513 10.435 50.8797 10.39 51.0763 10.3C51.2763 10.21 51.443 10.0817 51.5763 9.915C51.713 9.745 51.8163 9.54 51.8863 9.3C51.9563 9.05667 51.9913 8.78333 51.9913 8.48L52.5113 8.595C52.5113 9.14833 52.4147 9.61333 52.2213 9.99C52.028 10.3667 51.7613 10.6517 51.4213 10.845C51.0813 11.0383 50.6913 11.135 50.2513 11.135ZM52.0663 11V9.67H51.9913V5.6H52.7263V11H52.0663ZM56.4088 11.15C55.8822 11.15 55.4255 11.0333 55.0388 10.8C54.6555 10.5667 54.3572 10.2383 54.1438 9.815C53.9305 9.39167 53.8238 8.895 53.8238 8.325C53.8238 7.735 53.9288 7.225 54.1388 6.795C54.3488 6.365 54.6438 6.03333 55.0238 5.8C55.4072 5.56667 55.8588 5.45 56.3788 5.45C56.9122 5.45 57.3672 5.57333 57.7438 5.82C58.1205 6.06333 58.4055 6.41333 58.5988 6.87C58.7922 7.32667 58.8805 7.87167 58.8638 8.505H58.1138V8.245C58.1005 7.545 57.9488 7.01667 57.6588 6.66C57.3722 6.30333 56.9522 6.125 56.3988 6.125C55.8188 6.125 55.3738 6.31333 55.0638 6.69C54.7572 7.06667 54.6038 7.60333 54.6038 8.3C54.6038 8.98 54.7572 9.50833 55.0638 9.885C55.3738 10.2583 55.8122 10.445 56.3788 10.445C56.7655 10.445 57.1022 10.3567 57.3888 10.18C57.6788 10 57.9072 9.74167 58.0738 9.405L58.7588 9.67C58.5455 10.14 58.2305 10.505 57.8138 10.765C57.4005 11.0217 56.9322 11.15 56.4088 11.15ZM54.3438 8.505V7.89H58.4688V8.505H54.3438Z" fill="#6B6B6A"/>
<path d="M76 7H88" stroke="#FFB466" stroke-width="2" stroke-linecap="round" stroke-dasharray="4 4"/>
<path d="M97.615 11.15C96.8983 11.15 96.2933 10.9917 95.8 10.675C95.3067 10.355 94.9333 9.91333 94.68 9.35C94.4267 8.78667 94.3 8.13667 94.3 7.4C94.3 6.66333 94.4267 6.01333 94.68 5.45C94.9333 4.88667 95.3067 4.44667 95.8 4.13C96.2933 3.81 96.8983 3.65 97.615 3.65C98.335 3.65 98.94 3.81 99.43 4.13C99.9233 4.44667 100.297 4.88667 100.55 5.45C100.807 6.01333 100.935 6.66333 100.935 7.4C100.935 8.13667 100.807 8.78667 100.55 9.35C100.297 9.91333 99.9233 10.355 99.43 10.675C98.94 10.9917 98.335 11.15 97.615 11.15ZM97.615 10.445C98.1783 10.445 98.6483 10.3167 99.025 10.06C99.4017 9.80333 99.6833 9.44667 99.87 8.99C100.06 8.53 100.155 8 100.155 7.4C100.155 6.8 100.06 6.27167 99.87 5.815C99.6833 5.35833 99.4017 5.00167 99.025 4.745C98.6483 4.48833 98.1783 4.35833 97.615 4.355C97.0517 4.355 96.5833 4.48333 96.21 4.74C95.8367 4.99667 95.555 5.355 95.365 5.815C95.1783 6.27167 95.0833 6.8 95.08 7.4C95.0767 8 95.1683 8.52833 95.355 8.985C95.545 9.43833 95.8283 9.795 96.205 10.055C96.5817 10.3117 97.0517 10.4417 97.615 10.445ZM101.936 11V5.6H102.596V6.9L102.466 6.73C102.526 6.57 102.605 6.42333 102.701 6.29C102.798 6.15333 102.903 6.04167 103.016 5.955C103.156 5.83167 103.32 5.73833 103.506 5.675C103.693 5.60833 103.881 5.57 104.071 5.56C104.261 5.54667 104.435 5.56 104.591 5.6V6.29C104.395 6.24 104.18 6.22833 103.946 6.255C103.713 6.28167 103.498 6.375 103.301 6.535C103.121 6.675 102.986 6.84333 102.896 7.04C102.806 7.23333 102.746 7.44 102.716 7.66C102.686 7.87667 102.671 8.09167 102.671 8.305V11H101.936ZM107.537 11.15C107.034 11.15 106.604 11.025 106.247 10.775C105.891 10.5217 105.617 10.18 105.427 9.75C105.237 9.32 105.142 8.835 105.142 8.295C105.142 7.75833 105.236 7.275 105.422 6.845C105.612 6.415 105.884 6.075 106.237 5.825C106.591 5.575 107.014 5.45 107.507 5.45C108.014 5.45 108.441 5.57333 108.787 5.82C109.134 6.06667 109.396 6.405 109.572 6.835C109.752 7.26167 109.842 7.74833 109.842 8.295C109.842 8.83167 109.754 9.31667 109.577 9.75C109.401 10.18 109.141 10.5217 108.797 10.775C108.454 11.025 108.034 11.15 107.537 11.15ZM107.612 10.465C107.996 10.465 108.312 10.3717 108.562 10.185C108.812 9.99833 108.999 9.74167 109.122 9.415C109.246 9.085 109.307 8.71167 109.307 8.295C109.307 7.87167 109.246 7.49833 109.122 7.175C108.999 6.84833 108.812 6.59333 108.562 6.41C108.316 6.22667 108.004 6.135 107.627 6.135C107.241 6.135 106.921 6.23 106.667 6.42C106.414 6.61 106.226 6.86833 106.102 7.195C105.982 7.52167 105.922 7.88833 105.922 8.295C105.922 8.705 105.984 9.075 106.107 9.405C106.234 9.73167 106.422 9.99 106.672 10.18C106.922 10.37 107.236 10.465 107.612 10.465ZM109.307 11V6.935H109.227V3.8H109.967V11H109.307ZM113.655 11.15C113.128 11.15 112.672 11.0333 112.285 10.8C111.902 10.5667 111.603 10.2383 111.39 9.815C111.177 9.39167 111.07 8.895 111.07 8.325C111.07 7.735 111.175 7.225 111.385 6.795C111.595 6.365 111.89 6.03333 112.27 5.8C112.653 5.56667 113.105 5.45 113.625 5.45C114.158 5.45 114.613 5.57333 114.99 5.82C115.367 6.06333 115.652 6.41333 115.845 6.87C116.038 7.32667 116.127 7.87167 116.11 8.505H115.36V8.245C115.347 7.545 115.195 7.01667 114.905 6.66C114.618 6.30333 114.198 6.125 113.645 6.125C113.065 6.125 112.62 6.31333 112.31 6.69C112.003 7.06667 111.85 7.60333 111.85 8.3C111.85 8.98 112.003 9.50833 112.31 9.885C112.62 10.2583 113.058 10.445 113.625 10.445C114.012 10.445 114.348 10.3567 114.635 10.18C114.925 10 115.153 9.74167 115.32 9.405L116.005 9.67C115.792 10.14 115.477 10.505 115.06 10.765C114.647 11.0217 114.178 11.15 113.655 11.15ZM111.59 8.505V7.89H115.715V8.505H111.59ZM117.22 11V5.6H117.88V6.9L117.75 6.73C117.81 6.57 117.888 6.42333 117.985 6.29C118.081 6.15333 118.186 6.04167 118.3 5.955C118.44 5.83167 118.603 5.73833 118.79 5.675C118.976 5.60833 119.165 5.57 119.355 5.56C119.545 5.54667 119.718 5.56 119.875 5.6V6.29C119.678 6.24 119.463 6.22833 119.23 6.255C118.996 6.28167 118.781 6.375 118.585 6.535C118.405 6.675 118.27 6.84333 118.18 7.04C118.09 7.23333 118.03 7.44 118 7.66C117.97 7.87667 117.955 8.09167 117.955 8.305V11H117.22Z" fill="#6B6B6A"/>
<path d="M2.955 40.5V34.12L1.6 34.935V34.11L2.955 33.3H3.7V40.5H2.955ZM8.03148 40.65C7.58148 40.65 7.17148 40.5417 6.80148 40.325C6.43482 40.105 6.14148 39.8083 5.92148 39.435C5.70482 39.0583 5.59648 38.635 5.59648 38.165V35.67C5.59648 35.1867 5.70482 34.7567 5.92148 34.38C6.13815 34 6.43315 33.7017 6.80648 33.485C7.18315 33.265 7.60982 33.155 8.08648 33.155C8.49648 33.155 8.87648 33.245 9.22648 33.425C9.57982 33.605 9.86815 33.8567 10.0915 34.18L9.52648 34.645C9.37315 34.405 9.16982 34.2133 8.91648 34.07C8.66315 33.9267 8.38648 33.855 8.08648 33.855C7.74982 33.855 7.44982 33.9367 7.18648 34.1C6.92315 34.2633 6.71648 34.4783 6.56648 34.745C6.41648 35.0083 6.34148 35.295 6.34148 35.605V37.175L6.15648 36.965C6.36648 36.635 6.64148 36.3683 6.98148 36.165C7.32482 35.9617 7.69815 35.86 8.10148 35.86C8.54815 35.86 8.94982 35.9667 9.30648 36.18C9.66315 36.39 9.94648 36.675 10.1565 37.035C10.3665 37.395 10.4715 37.7983 10.4715 38.245C10.4715 38.6883 10.3598 39.0917 10.1365 39.455C9.91648 39.8183 9.62148 40.1083 9.25148 40.325C8.88482 40.5417 8.47815 40.65 8.03148 40.65ZM8.03148 39.935C8.34482 39.935 8.62982 39.86 8.88648 39.71C9.14648 39.56 9.35148 39.3567 9.50148 39.1C9.65482 38.8433 9.73148 38.5583 9.73148 38.245C9.73148 37.9317 9.65482 37.6467 9.50148 37.39C9.35148 37.13 9.14815 36.925 8.89148 36.775C8.63482 36.6217 8.34982 36.545 8.03648 36.545C7.72315 36.545 7.43815 36.6217 7.18148 36.775C6.92482 36.925 6.71982 37.13 6.56648 37.39C6.41648 37.6467 6.34148 37.9317 6.34148 38.245C6.34148 38.555 6.41648 38.8383 6.56648 39.095C6.71648 39.3517 6.91982 39.5567 7.17648 39.71C7.43315 39.86 7.71815 39.935 8.03148 39.935ZM11.7977 40.5V33.3H12.5327V36.7L15.8177 33.3H16.7577L13.4027 36.775L17.0327 40.5H16.0727L12.5327 36.9V40.5H11.7977Z" fill="#6B6B6A"/>
<path d="M2.955 81.5V75.12L1.6 75.935V75.11L2.955 74.3H3.7V81.5H2.955ZM5.39648 81.495L5.40148 80.825L8.65648 77.885C8.93648 77.6317 9.12148 77.3917 9.21148 77.165C9.30482 76.935 9.35148 76.695 9.35148 76.445C9.35148 76.1483 9.28148 75.88 9.14148 75.64C9.00148 75.4 8.81315 75.21 8.57648 75.07C8.33982 74.9267 8.07482 74.855 7.78148 74.855C7.47482 74.855 7.20148 74.9283 6.96148 75.075C6.72148 75.2217 6.53148 75.415 6.39148 75.655C6.25482 75.895 6.18815 76.1567 6.19148 76.44H5.44148C5.44148 76.0033 5.54482 75.6117 5.75148 75.265C5.95815 74.9183 6.23815 74.6467 6.59148 74.45C6.94482 74.25 7.34482 74.15 7.79148 74.15C8.22815 74.15 8.61982 74.2533 8.96648 74.46C9.31648 74.6633 9.59148 74.94 9.79148 75.29C9.99482 75.6367 10.0965 76.0233 10.0965 76.45C10.0965 76.75 10.0598 77.015 9.98648 77.245C9.91648 77.4717 9.80482 77.6833 9.65148 77.88C9.50148 78.0733 9.30982 78.2733 9.07648 78.48L6.18648 81.09L6.07148 80.79H10.0965V81.495H5.39648ZM11.2996 81.5V74.3H12.0346V77.7L15.3196 74.3H16.2596L12.9046 77.775L16.5346 81.5H15.5746L12.0346 77.9V81.5H11.2996Z" fill="#6B6B6A"/>
<path d="M3.895 122.65C3.445 122.65 3.04667 122.56 2.7 122.38C2.35667 122.2 2.08667 121.948 1.89 121.625C1.69667 121.298 1.6 120.917 1.6 120.48C1.6 120.033 1.70833 119.637 1.925 119.29C2.14167 118.94 2.47167 118.675 2.915 118.495L2.905 118.785C2.535 118.648 2.25333 118.425 2.06 118.115C1.86667 117.805 1.77 117.462 1.77 117.085C1.77 116.685 1.86167 116.342 2.045 116.055C2.22833 115.765 2.47833 115.542 2.795 115.385C3.115 115.228 3.48167 115.15 3.895 115.15C4.30833 115.15 4.675 115.228 4.995 115.385C5.315 115.542 5.56667 115.765 5.75 116.055C5.93333 116.342 6.025 116.685 6.025 117.085C6.025 117.462 5.93167 117.803 5.745 118.11C5.56167 118.417 5.28 118.642 4.9 118.785L4.875 118.495C5.31833 118.672 5.65 118.935 5.87 119.285C6.09333 119.635 6.205 120.033 6.205 120.48C6.205 120.917 6.10667 121.298 5.91 121.625C5.71333 121.948 5.44167 122.2 5.095 122.38C4.74833 122.56 4.34833 122.65 3.895 122.65ZM3.895 121.945C4.34833 121.945 4.71667 121.82 5 121.57C5.28333 121.317 5.425 120.953 5.425 120.48C5.425 120 5.285 119.637 5.005 119.39C4.725 119.14 4.355 119.015 3.895 119.015C3.435 119.015 3.06667 119.14 2.79 119.39C2.51333 119.637 2.375 120 2.375 120.48C2.375 120.953 2.515 121.317 2.795 121.57C3.075 121.82 3.44167 121.945 3.895 121.945ZM3.895 118.305C4.295 118.305 4.62 118.203 4.87 118C5.12 117.793 5.245 117.488 5.245 117.085C5.245 116.682 5.12 116.38 4.87 116.18C4.62 115.977 4.295 115.875 3.895 115.875C3.495 115.875 3.17 115.977 2.92 116.18C2.67333 116.38 2.55 116.682 2.55 117.085C2.55 117.488 2.67333 117.793 2.92 118C3.17 118.203 3.495 118.305 3.895 118.305ZM7.50078 122.5V115.3H8.23578V118.7L11.5208 115.3H12.4608L9.10578 118.775L12.7358 122.5H11.7758L8.23578 118.9V122.5H7.50078Z" fill="#6B6B6A"/>
<path d="M4.87 163.5V162.105H1.5V161.405L3.91 156.3H4.735L2.325 161.405H4.87V159.305H5.61V161.405H6.395V162.105H5.61V163.5H4.87ZM7.59844 163.5V156.3H8.33344V159.7L11.6184 156.3H12.5584L9.20344 159.775L12.8334 163.5H11.8734L8.33344 159.9V163.5H7.59844Z" fill="#6B6B6A"/>
<path d="M4.05 204.65C3.60667 204.65 3.20667 204.547 2.85 204.34C2.49667 204.133 2.21667 203.853 2.01 203.5C1.80333 203.143 1.7 202.743 1.7 202.3V199.5C1.7 199.057 1.80333 198.658 2.01 198.305C2.21667 197.948 2.49667 197.667 2.85 197.46C3.20667 197.253 3.60667 197.15 4.05 197.15C4.49333 197.15 4.89167 197.253 5.245 197.46C5.60167 197.667 5.88333 197.948 6.09 198.305C6.29667 198.658 6.4 199.057 6.4 199.5V202.3C6.4 202.743 6.29667 203.143 6.09 203.5C5.88333 203.853 5.60167 204.133 5.245 204.34C4.89167 204.547 4.49333 204.65 4.05 204.65ZM4.05 203.94C4.34667 203.94 4.61667 203.868 4.86 203.725C5.10333 203.578 5.29667 203.383 5.44 203.14C5.58333 202.897 5.655 202.628 5.655 202.335V199.465C5.655 199.168 5.58333 198.898 5.44 198.655C5.29667 198.412 5.10333 198.218 4.86 198.075C4.61667 197.928 4.34667 197.855 4.05 197.855C3.75333 197.855 3.48333 197.928 3.24 198.075C2.99667 198.218 2.80333 198.412 2.66 198.655C2.51667 198.898 2.445 199.168 2.445 199.465V202.335C2.445 202.628 2.51667 202.897 2.66 203.14C2.80333 203.383 2.99667 203.578 3.24 203.725C3.48333 203.868 3.75333 203.94 4.05 203.94Z" fill="#6B6B6A"/>
<path d="M26 36.5H42" stroke="#E6E6E6" stroke-linecap="round" stroke-linejoin="round" stroke-dasharray="4 4"/>
<path d="M26 77.5H42" stroke="#E6E6E6" stroke-linecap="round" stroke-linejoin="round" stroke-dasharray="4 4"/>
<path d="M26 118.5H42" stroke="#E6E6E6" stroke-linecap="round" stroke-linejoin="round" stroke-dasharray="4 4"/>
<path d="M26 159.5H42" stroke="#E6E6E6" stroke-linecap="round" stroke-linejoin="round" stroke-dasharray="4 4"/>
<path d="M26 200.5H42" stroke="#E6E6E6" stroke-linecap="round" stroke-linejoin="round" stroke-dasharray="4 4"/>
<path d="M42 36.5H103.375" stroke="#E6E6E6" stroke-linecap="round" stroke-linejoin="round" stroke-dasharray="4 4"/>
<path d="M42 77.5H103.375" stroke="#E6E6E6" stroke-linecap="round" stroke-linejoin="round" stroke-dasharray="4 4"/>
<path d="M42 118.5H103.375" stroke="#E6E6E6" stroke-linecap="round" stroke-linejoin="round" stroke-dasharray="4 4"/>
<path d="M42 159.5H103.375" stroke="#E6E6E6" stroke-linecap="round" stroke-linejoin="round" stroke-dasharray="4 4"/>
<path d="M42 200.5H103.375" stroke="#E6E6E6" stroke-linecap="round" stroke-linejoin="round" stroke-dasharray="4 4"/>
<path d="M59.745 225.5V219.12L58.39 219.935V219.11L59.745 218.3H60.49V225.5H59.745ZM62.1865 225.495L62.1915 224.825L65.4465 221.885C65.7265 221.632 65.9115 221.392 66.0015 221.165C66.0949 220.935 66.1415 220.695 66.1415 220.445C66.1415 220.148 66.0715 219.88 65.9315 219.64C65.7915 219.4 65.6032 219.21 65.3665 219.07C65.1299 218.927 64.8649 218.855 64.5715 218.855C64.2649 218.855 63.9915 218.928 63.7515 219.075C63.5115 219.222 63.3215 219.415 63.1815 219.655C63.0449 219.895 62.9782 220.157 62.9815 220.44H62.2315C62.2315 220.003 62.3349 219.612 62.5415 219.265C62.7482 218.918 63.0282 218.647 63.3815 218.45C63.7349 218.25 64.1349 218.15 64.5815 218.15C65.0182 218.15 65.4099 218.253 65.7565 218.46C66.1065 218.663 66.3815 218.94 66.5815 219.29C66.7849 219.637 66.8865 220.023 66.8865 220.45C66.8865 220.75 66.8499 221.015 66.7765 221.245C66.7065 221.472 66.5949 221.683 66.4415 221.88C66.2915 222.073 66.0999 222.273 65.8665 222.48L62.9765 225.09L62.8615 224.79H66.8865V225.495H62.1865ZM69.5916 225.5L72.0716 218.3H73.0466L75.5266 225.5H74.7616L72.4066 218.71H72.6966L70.3566 225.5H69.5916ZM70.6966 223.755V223.065H74.4166V223.755H70.6966ZM78.4945 225.635C78.1712 225.635 77.8878 225.585 77.6445 225.485C77.4045 225.385 77.1995 225.25 77.0295 225.08C76.8628 224.91 76.7278 224.717 76.6245 224.5C76.5212 224.28 76.4462 224.048 76.3995 223.805C76.3528 223.558 76.3295 223.313 76.3295 223.07V220.1H77.0695V222.855C77.0695 223.152 77.0978 223.427 77.1545 223.68C77.2112 223.933 77.3012 224.155 77.4245 224.345C77.5512 224.532 77.7128 224.677 77.9095 224.78C78.1095 224.883 78.3512 224.935 78.6345 224.935C78.8945 224.935 79.1228 224.89 79.3195 224.8C79.5195 224.71 79.6862 224.582 79.8195 224.415C79.9562 224.245 80.0595 224.04 80.1295 223.8C80.1995 223.557 80.2345 223.283 80.2345 222.98L80.7545 223.095C80.7545 223.648 80.6578 224.113 80.4645 224.49C80.2712 224.867 80.0045 225.152 79.6645 225.345C79.3245 225.538 78.9345 225.635 78.4945 225.635ZM80.3095 225.5V224.17H80.2345V220.1H80.9695V225.5H80.3095ZM84.512 228.05C84.2353 228.05 83.962 228.008 83.692 227.925C83.4253 227.845 83.1787 227.717 82.952 227.54C82.7253 227.367 82.5353 227.14 82.382 226.86L83.047 226.49C83.197 226.79 83.407 227.005 83.677 227.135C83.9503 227.268 84.2287 227.335 84.512 227.335C84.902 227.335 85.217 227.262 85.457 227.115C85.7003 226.972 85.877 226.758 85.987 226.475C86.097 226.192 86.1503 225.838 86.147 225.415V223.975H86.232V220.1H86.887V225.425C86.887 225.578 86.882 225.725 86.872 225.865C86.8653 226.008 86.8503 226.148 86.827 226.285C86.7637 226.688 86.632 227.02 86.432 227.28C86.2353 227.54 85.9753 227.733 85.652 227.86C85.332 227.987 84.952 228.05 84.512 228.05ZM84.462 225.65C83.9587 225.65 83.5287 225.525 83.172 225.275C82.8153 225.022 82.542 224.68 82.352 224.25C82.162 223.82 82.067 223.335 82.067 222.795C82.067 222.258 82.1603 221.775 82.347 221.345C82.537 220.915 82.8087 220.575 83.162 220.325C83.5153 220.075 83.9387 219.95 84.432 219.95C84.9387 219.95 85.3653 220.073 85.712 220.32C86.0587 220.567 86.3203 220.905 86.497 221.335C86.677 221.762 86.767 222.248 86.767 222.795C86.767 223.332 86.6787 223.817 86.502 224.25C86.3253 224.68 86.0653 225.022 85.722 225.275C85.3787 225.525 84.9587 225.65 84.462 225.65ZM84.537 224.965C84.9203 224.965 85.237 224.872 85.487 224.685C85.737 224.498 85.9237 224.242 86.047 223.915C86.1703 223.585 86.232 223.212 86.232 222.795C86.232 222.372 86.1703 221.998 86.047 221.675C85.9237 221.348 85.737 221.093 85.487 220.91C85.2403 220.727 84.9287 220.635 84.552 220.635C84.1653 220.635 83.8453 220.73 83.592 220.92C83.3387 221.11 83.1503 221.368 83.027 221.695C82.907 222.022 82.847 222.388 82.847 222.795C82.847 223.205 82.9087 223.575 83.032 223.905C83.1587 224.232 83.347 224.49 83.597 224.68C83.847 224.87 84.1603 224.965 84.537 224.965Z" fill="#6B6B6A"/>
<path d="M103.375 36.5H164.75" stroke="#E6E6E6" stroke-linecap="round" stroke-linejoin="round" stroke-dasharray="4 4"/>
<path d="M103.375 77.5H164.75" stroke="#E6E6E6" stroke-linecap="round" stroke-linejoin="round" stroke-dasharray="4 4"/>
<path d="M103.375 118.5H164.75" stroke="#E6E6E6" stroke-linecap="round" stroke-linejoin="round" stroke-dasharray="4 4"/>
<path d="M103.375 159.5H164.75" stroke="#E6E6E6" stroke-linecap="round" stroke-linejoin="round" stroke-dasharray="4 4"/>
<path d="M103.375 200.5H164.75" stroke="#E6E6E6" stroke-linecap="round" stroke-linejoin="round" stroke-dasharray="4 4"/>
<path d="M121.208 225.5V219.12L119.853 219.935V219.11L121.208 218.3H121.953V225.5H121.208ZM125.784 225.645C125.428 225.645 125.099 225.582 124.799 225.455C124.499 225.328 124.241 225.148 124.024 224.915C123.808 224.678 123.649 224.397 123.549 224.07L124.249 223.86C124.369 224.217 124.566 224.487 124.839 224.67C125.116 224.853 125.428 224.942 125.774 224.935C126.094 224.928 126.369 224.857 126.599 224.72C126.833 224.583 127.011 224.393 127.134 224.15C127.258 223.907 127.319 223.625 127.319 223.305C127.319 222.815 127.176 222.422 126.889 222.125C126.606 221.825 126.231 221.675 125.764 221.675C125.634 221.675 125.498 221.693 125.354 221.73C125.211 221.763 125.078 221.812 124.954 221.875L124.584 221.29L127.384 218.705L127.504 219.005H123.834V218.3H127.994V219.015L125.554 221.345L125.544 221.055C126.044 220.992 126.484 221.048 126.864 221.225C127.244 221.402 127.541 221.672 127.754 222.035C127.971 222.395 128.079 222.818 128.079 223.305C128.079 223.765 127.979 224.172 127.779 224.525C127.583 224.875 127.311 225.15 126.964 225.35C126.618 225.547 126.224 225.645 125.784 225.645ZM130.879 225.5L133.359 218.3H134.334L136.814 225.5H136.049L133.694 218.71H133.984L131.644 225.5H130.879ZM131.984 223.755V223.065H135.704V223.755H131.984ZM139.782 225.635C139.458 225.635 139.175 225.585 138.932 225.485C138.692 225.385 138.487 225.25 138.317 225.08C138.15 224.91 138.015 224.717 137.912 224.5C137.808 224.28 137.733 224.048 137.687 223.805C137.64 223.558 137.617 223.313 137.617 223.07V220.1H138.357V222.855C138.357 223.152 138.385 223.427 138.442 223.68C138.498 223.933 138.588 224.155 138.712 224.345C138.838 224.532 139 224.677 139.197 224.78C139.397 224.883 139.638 224.935 139.922 224.935C140.182 224.935 140.41 224.89 140.607 224.8C140.807 224.71 140.973 224.582 141.107 224.415C141.243 224.245 141.347 224.04 141.417 223.8C141.487 223.557 141.522 223.283 141.522 222.98L142.042 223.095C142.042 223.648 141.945 224.113 141.752 224.49C141.558 224.867 141.292 225.152 140.952 225.345C140.612 225.538 140.222 225.635 139.782 225.635ZM141.597 225.5V224.17H141.522V220.1H142.257V225.5H141.597ZM145.799 228.05C145.522 228.05 145.249 228.008 144.979 227.925C144.712 227.845 144.466 227.717 144.239 227.54C144.012 227.367 143.822 227.14 143.669 226.86L144.334 226.49C144.484 226.79 144.694 227.005 144.964 227.135C145.237 227.268 145.516 227.335 145.799 227.335C146.189 227.335 146.504 227.262 146.744 227.115C146.987 226.972 147.164 226.758 147.274 226.475C147.384 226.192 147.437 225.838 147.434 225.415V223.975H147.519V220.1H148.174V225.425C148.174 225.578 148.169 225.725 148.159 225.865C148.152 226.008 148.137 226.148 148.114 226.285C148.051 226.688 147.919 227.02 147.719 227.28C147.522 227.54 147.262 227.733 146.939 227.86C146.619 227.987 146.239 228.05 145.799 228.05ZM145.749 225.65C145.246 225.65 144.816 225.525 144.459 225.275C144.102 225.022 143.829 224.68 143.639 224.25C143.449 223.82 143.354 223.335 143.354 222.795C143.354 222.258 143.447 221.775 143.634 221.345C143.824 220.915 144.096 220.575 144.449 220.325C144.802 220.075 145.226 219.95 145.719 219.95C146.226 219.95 146.652 220.073 146.999 220.32C147.346 220.567 147.607 220.905 147.784 221.335C147.964 221.762 148.054 222.248 148.054 222.795C148.054 223.332 147.966 223.817 147.789 224.25C147.612 224.68 147.352 225.022 147.009 225.275C146.666 225.525 146.246 225.65 145.749 225.65ZM145.824 224.965C146.207 224.965 146.524 224.872 146.774 224.685C147.024 224.498 147.211 224.242 147.334 223.915C147.457 223.585 147.519 223.212 147.519 222.795C147.519 222.372 147.457 221.998 147.334 221.675C147.211 221.348 147.024 221.093 146.774 220.91C146.527 220.727 146.216 220.635 145.839 220.635C145.452 220.635 145.132 220.73 144.879 220.92C144.626 221.11 144.437 221.368 144.314 221.695C144.194 222.022 144.134 222.388 144.134 222.795C144.134 223.205 144.196 223.575 144.319 223.905C144.446 224.232 144.634 224.49 144.884 224.68C145.134 224.87 145.447 224.965 145.824 224.965Z" fill="#6B6B6A"/>
<path d="M164.75 36.5H226.125" stroke="#E6E6E6" stroke-linecap="round" stroke-linejoin="round" stroke-dasharray="4 4"/>
<path d="M164.75 77.5H226.125" stroke="#E6E6E6" stroke-linecap="round" stroke-linejoin="round" stroke-dasharray="4 4"/>
<path d="M164.75 118.5H226.125" stroke="#E6E6E6" stroke-linecap="round" stroke-linejoin="round" stroke-dasharray="4 4"/>
<path d="M164.75 159.5H226.125" stroke="#E6E6E6" stroke-linecap="round" stroke-linejoin="round" stroke-dasharray="4 4"/>
<path d="M164.75 200.5H226.125" stroke="#E6E6E6" stroke-linecap="round" stroke-linejoin="round" stroke-dasharray="4 4"/>
<path d="M182.397 225.5V219.12L181.042 219.935V219.11L182.397 218.3H183.142V225.5H182.397ZM188.209 225.5V224.105H184.839V223.405L187.249 218.3H188.074L185.664 223.405H188.209V221.305H188.949V223.405H189.734V224.105H188.949V225.5H188.209ZM192.439 225.5L194.919 218.3H195.894L198.374 225.5H197.609L195.254 218.71H195.544L193.204 225.5H192.439ZM193.544 223.755V223.065H197.264V223.755H193.544ZM201.342 225.635C201.019 225.635 200.735 225.585 200.492 225.485C200.252 225.385 200.047 225.25 199.877 225.08C199.71 224.91 199.575 224.717 199.472 224.5C199.369 224.28 199.294 224.048 199.247 223.805C199.2 223.558 199.177 223.313 199.177 223.07V220.1H199.917V222.855C199.917 223.152 199.945 223.427 200.002 223.68C200.059 223.933 200.149 224.155 200.272 224.345C200.399 224.532 200.56 224.677 200.757 224.78C200.957 224.883 201.199 224.935 201.482 224.935C201.742 224.935 201.97 224.89 202.167 224.8C202.367 224.71 202.534 224.582 202.667 224.415C202.804 224.245 202.907 224.04 202.977 223.8C203.047 223.557 203.082 223.283 203.082 222.98L203.602 223.095C203.602 223.648 203.505 224.113 203.312 224.49C203.119 224.867 202.852 225.152 202.512 225.345C202.172 225.538 201.782 225.635 201.342 225.635ZM203.157 225.5V224.17H203.082V220.1H203.817V225.5H203.157ZM207.36 228.05C207.083 228.05 206.81 228.008 206.54 227.925C206.273 227.845 206.026 227.717 205.8 227.54C205.573 227.367 205.383 227.14 205.23 226.86L205.895 226.49C206.045 226.79 206.255 227.005 206.525 227.135C206.798 227.268 207.076 227.335 207.36 227.335C207.75 227.335 208.065 227.262 208.305 227.115C208.548 226.972 208.725 226.758 208.835 226.475C208.945 226.192 208.998 225.838 208.995 225.415V223.975H209.08V220.1H209.735V225.425C209.735 225.578 209.73 225.725 209.72 225.865C209.713 226.008 209.698 226.148 209.675 226.285C209.611 226.688 209.48 227.02 209.28 227.28C209.083 227.54 208.823 227.733 208.5 227.86C208.18 227.987 207.8 228.05 207.36 228.05ZM207.31 225.65C206.806 225.65 206.376 225.525 206.02 225.275C205.663 225.022 205.39 224.68 205.2 224.25C205.01 223.82 204.915 223.335 204.915 222.795C204.915 222.258 205.008 221.775 205.195 221.345C205.385 220.915 205.656 220.575 206.01 220.325C206.363 220.075 206.786 219.95 207.28 219.95C207.786 219.95 208.213 220.073 208.56 220.32C208.906 220.567 209.168 220.905 209.345 221.335C209.525 221.762 209.615 222.248 209.615 222.795C209.615 223.332 209.526 223.817 209.35 224.25C209.173 224.68 208.913 225.022 208.57 225.275C208.226 225.525 207.806 225.65 207.31 225.65ZM207.385 224.965C207.768 224.965 208.085 224.872 208.335 224.685C208.585 224.498 208.771 224.242 208.895 223.915C209.018 223.585 209.08 223.212 209.08 222.795C209.08 222.372 209.018 221.998 208.895 221.675C208.771 221.348 208.585 221.093 208.335 220.91C208.088 220.727 207.776 220.635 207.4 220.635C207.013 220.635 206.693 220.73 206.44 220.92C206.186 221.11 205.998 221.368 205.875 221.695C205.755 222.022 205.695 222.388 205.695 222.795C205.695 223.205 205.756 223.575 205.88 223.905C206.006 224.232 206.195 224.49 206.445 224.68C206.695 224.87 207.008 224.965 207.385 224.965Z" fill="#6B6B6A"/>
<path d="M226.125 36.5H287.5" stroke="#E6E6E6" stroke-linecap="round" stroke-linejoin="round" stroke-dasharray="4 4"/>
<path d="M226.125 77.5H287.5" stroke="#E6E6E6" stroke-linecap="round" stroke-linejoin="round" stroke-dasharray="4 4"/>
<path d="M226.125 118.5H287.5" stroke="#E6E6E6" stroke-linecap="round" stroke-linejoin="round" stroke-dasharray="4 4"/>
<path d="M226.125 159.5H287.5" stroke="#E6E6E6" stroke-linecap="round" stroke-linejoin="round" stroke-dasharray="4 4"/>
<path d="M226.125 200.5H287.5" stroke="#E6E6E6" stroke-linecap="round" stroke-linejoin="round" stroke-dasharray="4 4"/>
<path d="M243.836 225.5V219.12L242.481 219.935V219.11L243.836 218.3H244.581V225.5H243.836ZM248.602 225.65C248.229 225.65 247.884 225.573 247.567 225.42C247.251 225.267 246.981 225.055 246.757 224.785C246.534 224.515 246.374 224.205 246.277 223.855L246.982 223.665C247.046 223.925 247.161 224.15 247.327 224.34C247.494 224.527 247.689 224.672 247.912 224.775C248.139 224.878 248.376 224.93 248.622 224.93C248.942 224.93 249.229 224.853 249.482 224.7C249.739 224.543 249.942 224.337 250.092 224.08C250.242 223.823 250.317 223.542 250.317 223.235C250.317 222.918 250.239 222.633 250.082 222.38C249.926 222.123 249.719 221.92 249.462 221.77C249.206 221.62 248.926 221.545 248.622 221.545C248.282 221.545 247.989 221.62 247.742 221.77C247.496 221.917 247.299 222.102 247.152 222.325L246.482 222.045L246.702 218.3H250.547V219.005H247.027L247.392 218.66L247.197 221.855L247.012 221.61C247.219 221.373 247.469 221.188 247.762 221.055C248.056 220.922 248.364 220.855 248.687 220.855C249.131 220.855 249.531 220.962 249.887 221.175C250.244 221.385 250.527 221.67 250.737 222.03C250.947 222.39 251.052 222.792 251.052 223.235C251.052 223.675 250.941 224.078 250.717 224.445C250.494 224.808 250.197 225.1 249.827 225.32C249.457 225.54 249.049 225.65 248.602 225.65ZM253.751 225.5L256.231 218.3H257.206L259.686 225.5H258.921L256.566 218.71H256.856L254.516 225.5H253.751ZM254.856 223.755V223.065H258.576V223.755H254.856ZM262.654 225.635C262.33 225.635 262.047 225.585 261.804 225.485C261.564 225.385 261.359 225.25 261.189 225.08C261.022 224.91 260.887 224.717 260.784 224.5C260.68 224.28 260.605 224.048 260.559 223.805C260.512 223.558 260.489 223.313 260.489 223.07V220.1H261.229V222.855C261.229 223.152 261.257 223.427 261.314 223.68C261.37 223.933 261.46 224.155 261.584 224.345C261.71 224.532 261.872 224.677 262.069 224.78C262.269 224.883 262.51 224.935 262.794 224.935C263.054 224.935 263.282 224.89 263.479 224.8C263.679 224.71 263.845 224.582 263.979 224.415C264.115 224.245 264.219 224.04 264.289 223.8C264.359 223.557 264.394 223.283 264.394 222.98L264.914 223.095C264.914 223.648 264.817 224.113 264.624 224.49C264.43 224.867 264.164 225.152 263.824 225.345C263.484 225.538 263.094 225.635 262.654 225.635ZM264.469 225.5V224.17H264.394V220.1H265.129V225.5H264.469ZM268.671 228.05C268.395 228.05 268.121 228.008 267.851 227.925C267.585 227.845 267.338 227.717 267.111 227.54C266.885 227.367 266.695 227.14 266.541 226.86L267.206 226.49C267.356 226.79 267.566 227.005 267.836 227.135C268.11 227.268 268.388 227.335 268.671 227.335C269.061 227.335 269.376 227.262 269.616 227.115C269.86 226.972 270.036 226.758 270.146 226.475C270.256 226.192 270.31 225.838 270.306 225.415V223.975H270.391V220.1H271.046V225.425C271.046 225.578 271.041 225.725 271.031 225.865C271.025 226.008 271.01 226.148 270.986 226.285C270.923 226.688 270.791 227.02 270.591 227.28C270.395 227.54 270.135 227.733 269.811 227.86C269.491 227.987 269.111 228.05 268.671 228.05ZM268.621 225.65C268.118 225.65 267.688 225.525 267.331 225.275C266.975 225.022 266.701 224.68 266.511 224.25C266.321 223.82 266.226 223.335 266.226 222.795C266.226 222.258 266.32 221.775 266.506 221.345C266.696 220.915 266.968 220.575 267.321 220.325C267.675 220.075 268.098 219.95 268.591 219.95C269.098 219.95 269.525 220.073 269.871 220.32C270.218 220.567 270.48 220.905 270.656 221.335C270.836 221.762 270.926 222.248 270.926 222.795C270.926 223.332 270.838 223.817 270.661 224.25C270.485 224.68 270.225 225.022 269.881 225.275C269.538 225.525 269.118 225.65 268.621 225.65ZM268.696 224.965C269.08 224.965 269.396 224.872 269.646 224.685C269.896 224.498 270.083 224.242 270.206 223.915C270.33 223.585 270.391 223.212 270.391 222.795C270.391 222.372 270.33 221.998 270.206 221.675C270.083 221.348 269.896 221.093 269.646 220.91C269.4 220.727 269.088 220.635 268.711 220.635C268.325 220.635 268.005 220.73 267.751 220.92C267.498 221.11 267.31 221.368 267.186 221.695C267.066 222.022 267.006 222.388 267.006 222.795C267.006 223.205 267.068 223.575 267.191 223.905C267.318 224.232 267.506 224.49 267.756 224.68C268.006 224.87 268.32 224.965 268.696 224.965Z" fill="#6B6B6A"/>
<path d="M287.5 36.5H348.875" stroke="#E6E6E6" stroke-linecap="round" stroke-linejoin="round" stroke-dasharray="4 4"/>
<path d="M287.5 77.5H348.875" stroke="#E6E6E6" stroke-linecap="round" stroke-linejoin="round" stroke-dasharray="4 4"/>
<path d="M287.5 118.5H348.875" stroke="#E6E6E6" stroke-linecap="round" stroke-linejoin="round" stroke-dasharray="4 4"/>
<path d="M287.5 159.5H348.875" stroke="#E6E6E6" stroke-linecap="round" stroke-linejoin="round" stroke-dasharray="4 4"/>
<path d="M287.5 200.5H348.875" stroke="#E6E6E6" stroke-linecap="round" stroke-linejoin="round" stroke-dasharray="4 4"/>
<path d="M304.996 225.5V219.12L303.641 219.935V219.11L304.996 218.3H305.741V225.5H304.996ZM310.073 225.65C309.623 225.65 309.213 225.542 308.843 225.325C308.476 225.105 308.183 224.808 307.963 224.435C307.746 224.058 307.638 223.635 307.638 223.165V220.67C307.638 220.187 307.746 219.757 307.963 219.38C308.179 219 308.474 218.702 308.848 218.485C309.224 218.265 309.651 218.155 310.128 218.155C310.538 218.155 310.918 218.245 311.268 218.425C311.621 218.605 311.909 218.857 312.133 219.18L311.568 219.645C311.414 219.405 311.211 219.213 310.958 219.07C310.704 218.927 310.428 218.855 310.128 218.855C309.791 218.855 309.491 218.937 309.228 219.1C308.964 219.263 308.758 219.478 308.608 219.745C308.458 220.008 308.383 220.295 308.383 220.605V222.175L308.198 221.965C308.408 221.635 308.683 221.368 309.023 221.165C309.366 220.962 309.739 220.86 310.143 220.86C310.589 220.86 310.991 220.967 311.348 221.18C311.704 221.39 311.988 221.675 312.198 222.035C312.408 222.395 312.513 222.798 312.513 223.245C312.513 223.688 312.401 224.092 312.178 224.455C311.958 224.818 311.663 225.108 311.293 225.325C310.926 225.542 310.519 225.65 310.073 225.65ZM310.073 224.935C310.386 224.935 310.671 224.86 310.928 224.71C311.188 224.56 311.393 224.357 311.543 224.1C311.696 223.843 311.773 223.558 311.773 223.245C311.773 222.932 311.696 222.647 311.543 222.39C311.393 222.13 311.189 221.925 310.933 221.775C310.676 221.622 310.391 221.545 310.078 221.545C309.764 221.545 309.479 221.622 309.223 221.775C308.966 221.925 308.761 222.13 308.608 222.39C308.458 222.647 308.383 222.932 308.383 223.245C308.383 223.555 308.458 223.838 308.608 224.095C308.758 224.352 308.961 224.557 309.218 224.71C309.474 224.86 309.759 224.935 310.073 224.935ZM315.341 225.5L317.821 218.3H318.796L321.276 225.5H320.511L318.156 218.71H318.446L316.106 225.5H315.341ZM316.446 223.755V223.065H320.166V223.755H316.446ZM324.244 225.635C323.92 225.635 323.637 225.585 323.394 225.485C323.154 225.385 322.949 225.25 322.779 225.08C322.612 224.91 322.477 224.717 322.374 224.5C322.27 224.28 322.195 224.048 322.149 223.805C322.102 223.558 322.079 223.313 322.079 223.07V220.1H322.819V222.855C322.819 223.152 322.847 223.427 322.904 223.68C322.96 223.933 323.05 224.155 323.174 224.345C323.3 224.532 323.462 224.677 323.659 224.78C323.859 224.883 324.1 224.935 324.384 224.935C324.644 224.935 324.872 224.89 325.069 224.8C325.269 224.71 325.435 224.582 325.569 224.415C325.705 224.245 325.809 224.04 325.879 223.8C325.949 223.557 325.984 223.283 325.984 222.98L326.504 223.095C326.504 223.648 326.407 224.113 326.214 224.49C326.02 224.867 325.754 225.152 325.414 225.345C325.074 225.538 324.684 225.635 324.244 225.635ZM326.059 225.5V224.17H325.984V220.1H326.719V225.5H326.059ZM330.261 228.05C329.984 228.05 329.711 228.008 329.441 227.925C329.174 227.845 328.928 227.717 328.701 227.54C328.474 227.367 328.284 227.14 328.131 226.86L328.796 226.49C328.946 226.79 329.156 227.005 329.426 227.135C329.699 227.268 329.978 227.335 330.261 227.335C330.651 227.335 330.966 227.262 331.206 227.115C331.449 226.972 331.626 226.758 331.736 226.475C331.846 226.192 331.899 225.838 331.896 225.415V223.975H331.981V220.1H332.636V225.425C332.636 225.578 332.631 225.725 332.621 225.865C332.614 226.008 332.599 226.148 332.576 226.285C332.513 226.688 332.381 227.02 332.181 227.28C331.984 227.54 331.724 227.733 331.401 227.86C331.081 227.987 330.701 228.05 330.261 228.05ZM330.211 225.65C329.708 225.65 329.278 225.525 328.921 225.275C328.564 225.022 328.291 224.68 328.101 224.25C327.911 223.82 327.816 223.335 327.816 222.795C327.816 222.258 327.909 221.775 328.096 221.345C328.286 220.915 328.558 220.575 328.911 220.325C329.264 220.075 329.688 219.95 330.181 219.95C330.688 219.95 331.114 220.073 331.461 220.32C331.808 220.567 332.069 220.905 332.246 221.335C332.426 221.762 332.516 222.248 332.516 222.795C332.516 223.332 332.428 223.817 332.251 224.25C332.074 224.68 331.814 225.022 331.471 225.275C331.128 225.525 330.708 225.65 330.211 225.65ZM330.286 224.965C330.669 224.965 330.986 224.872 331.236 224.685C331.486 224.498 331.673 224.242 331.796 223.915C331.919 223.585 331.981 223.212 331.981 222.795C331.981 222.372 331.919 221.998 331.796 221.675C331.673 221.348 331.486 221.093 331.236 220.91C330.989 220.727 330.678 220.635 330.301 220.635C329.914 220.635 329.594 220.73 329.341 220.92C329.088 221.11 328.899 221.368 328.776 221.695C328.656 222.022 328.596 222.388 328.596 222.795C328.596 223.205 328.658 223.575 328.781 223.905C328.908 224.232 329.096 224.49 329.346 224.68C329.596 224.87 329.909 224.965 330.286 224.965Z" fill="#6B6B6A"/>
<path d="M348.875 36.5H410.25" stroke="#E6E6E6" stroke-linecap="round" stroke-linejoin="round" stroke-dasharray="4 4"/>
<path d="M348.875 77.5H410.25" stroke="#E6E6E6" stroke-linecap="round" stroke-linejoin="round" stroke-dasharray="4 4"/>
<path d="M348.875 118.5H410.25" stroke="#E6E6E6" stroke-linecap="round" stroke-linejoin="round" stroke-dasharray="4 4"/>
<path d="M348.875 159.5H410.25" stroke="#E6E6E6" stroke-linecap="round" stroke-linejoin="round" stroke-dasharray="4 4"/>
<path d="M348.875 200.5H410.25" stroke="#E6E6E6" stroke-linecap="round" stroke-linejoin="round" stroke-dasharray="4 4"/>
<path d="M366.962 225.5V219.12L365.607 219.935V219.11L366.962 218.3H367.707V225.5H366.962ZM369.988 225.5L372.638 219.015H369.303V218.3H373.423V219.015L370.778 225.5H369.988ZM376.125 225.5L378.605 218.3H379.58L382.06 225.5H381.295L378.94 218.71H379.23L376.89 225.5H376.125ZM377.23 223.755V223.065H380.95V223.755H377.23ZM385.028 225.635C384.704 225.635 384.421 225.585 384.178 225.485C383.938 225.385 383.733 225.25 383.563 225.08C383.396 224.91 383.261 224.717 383.158 224.5C383.054 224.28 382.979 224.048 382.933 223.805C382.886 223.558 382.863 223.313 382.863 223.07V220.1H383.603V222.855C383.603 223.152 383.631 223.427 383.688 223.68C383.744 223.933 383.834 224.155 383.958 224.345C384.084 224.532 384.246 224.677 384.443 224.78C384.643 224.883 384.884 224.935 385.168 224.935C385.428 224.935 385.656 224.89 385.853 224.8C386.053 224.71 386.219 224.582 386.353 224.415C386.489 224.245 386.593 224.04 386.663 223.8C386.733 223.557 386.768 223.283 386.768 222.98L387.288 223.095C387.288 223.648 387.191 224.113 386.998 224.49C386.804 224.867 386.538 225.152 386.198 225.345C385.858 225.538 385.468 225.635 385.028 225.635ZM386.843 225.5V224.17H386.768V220.1H387.503V225.5H386.843ZM391.045 228.05C390.769 228.05 390.495 228.008 390.225 227.925C389.959 227.845 389.712 227.717 389.485 227.54C389.259 227.367 389.069 227.14 388.915 226.86L389.58 226.49C389.73 226.79 389.94 227.005 390.21 227.135C390.484 227.268 390.762 227.335 391.045 227.335C391.435 227.335 391.75 227.262 391.99 227.115C392.234 226.972 392.41 226.758 392.52 226.475C392.63 226.192 392.684 225.838 392.68 225.415V223.975H392.765V220.1H393.42V225.425C393.42 225.578 393.415 225.725 393.405 225.865C393.399 226.008 393.384 226.148 393.36 226.285C393.297 226.688 393.165 227.02 392.965 227.28C392.769 227.54 392.509 227.733 392.185 227.86C391.865 227.987 391.485 228.05 391.045 228.05ZM390.995 225.65C390.492 225.65 390.062 225.525 389.705 225.275C389.349 225.022 389.075 224.68 388.885 224.25C388.695 223.82 388.6 223.335 388.6 222.795C388.6 222.258 388.694 221.775 388.88 221.345C389.07 220.915 389.342 220.575 389.695 220.325C390.049 220.075 390.472 219.95 390.965 219.95C391.472 219.95 391.899 220.073 392.245 220.32C392.592 220.567 392.854 220.905 393.03 221.335C393.21 221.762 393.3 222.248 393.3 222.795C393.3 223.332 393.212 223.817 393.035 224.25C392.859 224.68 392.599 225.022 392.255 225.275C391.912 225.525 391.492 225.65 390.995 225.65ZM391.07 224.965C391.454 224.965 391.77 224.872 392.02 224.685C392.27 224.498 392.457 224.242 392.58 223.915C392.704 223.585 392.765 223.212 392.765 222.795C392.765 222.372 392.704 221.998 392.58 221.675C392.457 221.348 392.27 221.093 392.02 220.91C391.774 220.727 391.462 220.635 391.085 220.635C390.699 220.635 390.379 220.73 390.125 220.92C389.872 221.11 389.684 221.368 389.56 221.695C389.44 222.022 389.38 222.388 389.38 222.795C389.38 223.205 389.442 223.575 389.565 223.905C389.692 224.232 389.88 224.49 390.13 224.68C390.38 224.87 390.694 224.965 391.07 224.965Z" fill="#6B6B6A"/>
<path d="M410.25 36.5H471.625" stroke="#E6E6E6" stroke-linecap="round" stroke-linejoin="round" stroke-dasharray="4 4"/>
<path d="M410.25 77.5H471.625" stroke="#E6E6E6" stroke-linecap="round" stroke-linejoin="round" stroke-dasharray="4 4"/>
<path d="M410.25 118.5H471.625" stroke="#E6E6E6" stroke-linecap="round" stroke-linejoin="round" stroke-dasharray="4 4"/>
<path d="M410.25 159.5H471.625" stroke="#E6E6E6" stroke-linecap="round" stroke-linejoin="round" stroke-dasharray="4 4"/>
<path d="M410.25 200.5H471.625" stroke="#E6E6E6" stroke-linecap="round" stroke-linejoin="round" stroke-dasharray="4 4"/>
<path d="M427.946 225.5V219.12L426.591 219.935V219.11L427.946 218.3H428.691V225.5H427.946ZM432.783 225.65C432.333 225.65 431.934 225.56 431.588 225.38C431.244 225.2 430.974 224.948 430.778 224.625C430.584 224.298 430.488 223.917 430.488 223.48C430.488 223.033 430.596 222.637 430.813 222.29C431.029 221.94 431.359 221.675 431.803 221.495L431.793 221.785C431.423 221.648 431.141 221.425 430.948 221.115C430.754 220.805 430.658 220.462 430.658 220.085C430.658 219.685 430.749 219.342 430.933 219.055C431.116 218.765 431.366 218.542 431.683 218.385C432.003 218.228 432.369 218.15 432.783 218.15C433.196 218.15 433.563 218.228 433.883 218.385C434.203 218.542 434.454 218.765 434.638 219.055C434.821 219.342 434.913 219.685 434.913 220.085C434.913 220.462 434.819 220.803 434.633 221.11C434.449 221.417 434.168 221.642 433.788 221.785L433.763 221.495C434.206 221.672 434.538 221.935 434.758 222.285C434.981 222.635 435.093 223.033 435.093 223.48C435.093 223.917 434.994 224.298 434.798 224.625C434.601 224.948 434.329 225.2 433.983 225.38C433.636 225.56 433.236 225.65 432.783 225.65ZM432.783 224.945C433.236 224.945 433.604 224.82 433.888 224.57C434.171 224.317 434.313 223.953 434.313 223.48C434.313 223 434.173 222.637 433.893 222.39C433.613 222.14 433.243 222.015 432.783 222.015C432.323 222.015 431.954 222.14 431.678 222.39C431.401 222.637 431.263 223 431.263 223.48C431.263 223.953 431.403 224.317 431.683 224.57C431.963 224.82 432.329 224.945 432.783 224.945ZM432.783 221.305C433.183 221.305 433.508 221.203 433.758 221C434.008 220.793 434.133 220.488 434.133 220.085C434.133 219.682 434.008 219.38 433.758 219.18C433.508 218.977 433.183 218.875 432.783 218.875C432.383 218.875 432.058 218.977 431.808 219.18C431.561 219.38 431.438 219.682 431.438 220.085C431.438 220.488 431.561 220.793 431.808 221C432.058 221.203 432.383 221.305 432.783 221.305ZM437.89 225.5L440.37 218.3H441.345L443.825 225.5H443.06L440.705 218.71H440.995L438.655 225.5H437.89ZM438.995 223.755V223.065H442.715V223.755H438.995ZM446.793 225.635C446.47 225.635 446.187 225.585 445.943 225.485C445.703 225.385 445.498 225.25 445.328 225.08C445.162 224.91 445.027 224.717 444.923 224.5C444.82 224.28 444.745 224.048 444.698 223.805C444.652 223.558 444.628 223.313 444.628 223.07V220.1H445.368V222.855C445.368 223.152 445.397 223.427 445.453 223.68C445.51 223.933 445.6 224.155 445.723 224.345C445.85 224.532 446.012 224.677 446.208 224.78C446.408 224.883 446.65 224.935 446.933 224.935C447.193 224.935 447.422 224.89 447.618 224.8C447.818 224.71 447.985 224.582 448.118 224.415C448.255 224.245 448.358 224.04 448.428 223.8C448.498 223.557 448.533 223.283 448.533 222.98L449.053 223.095C449.053 223.648 448.957 224.113 448.763 224.49C448.57 224.867 448.303 225.152 447.963 225.345C447.623 225.538 447.233 225.635 446.793 225.635ZM448.608 225.5V224.17H448.533V220.1H449.268V225.5H448.608ZM452.811 228.05C452.534 228.05 452.261 228.008 451.991 227.925C451.724 227.845 451.477 227.717 451.251 227.54C451.024 227.367 450.834 227.14 450.681 226.86L451.346 226.49C451.496 226.79 451.706 227.005 451.976 227.135C452.249 227.268 452.527 227.335 452.811 227.335C453.201 227.335 453.516 227.262 453.756 227.115C453.999 226.972 454.176 226.758 454.286 226.475C454.396 226.192 454.449 225.838 454.446 225.415V223.975H454.531V220.1H455.186V225.425C455.186 225.578 455.181 225.725 455.171 225.865C455.164 226.008 455.149 226.148 455.126 226.285C455.062 226.688 454.931 227.02 454.731 227.28C454.534 227.54 454.274 227.733 453.951 227.86C453.631 227.987 453.251 228.05 452.811 228.05ZM452.761 225.65C452.257 225.65 451.827 225.525 451.471 225.275C451.114 225.022 450.841 224.68 450.651 224.25C450.461 223.82 450.366 223.335 450.366 222.795C450.366 222.258 450.459 221.775 450.646 221.345C450.836 220.915 451.107 220.575 451.461 220.325C451.814 220.075 452.237 219.95 452.731 219.95C453.237 219.95 453.664 220.073 454.011 220.32C454.357 220.567 454.619 220.905 454.796 221.335C454.976 221.762 455.066 222.248 455.066 222.795C455.066 223.332 454.977 223.817 454.801 224.25C454.624 224.68 454.364 225.022 454.021 225.275C453.677 225.525 453.257 225.65 452.761 225.65ZM452.836 224.965C453.219 224.965 453.536 224.872 453.786 224.685C454.036 224.498 454.222 224.242 454.346 223.915C454.469 223.585 454.531 223.212 454.531 222.795C454.531 222.372 454.469 221.998 454.346 221.675C454.222 221.348 454.036 221.093 453.786 220.91C453.539 220.727 453.227 220.635 452.851 220.635C452.464 220.635 452.144 220.73 451.891 220.92C451.637 221.11 451.449 221.368 451.326 221.695C451.206 222.022 451.146 222.388 451.146 222.795C451.146 223.205 451.207 223.575 451.331 223.905C451.457 224.232 451.646 224.49 451.896 224.68C452.146 224.87 452.459 224.965 452.836 224.965Z" fill="#6B6B6A"/>
<path d="M471.625 36.5H533" stroke="#E6E6E6" stroke-linecap="round" stroke-linejoin="round" stroke-dasharray="4 4"/>
<path d="M471.625 77.5H533" stroke="#E6E6E6" stroke-linecap="round" stroke-linejoin="round" stroke-dasharray="4 4"/>
<path d="M471.625 118.5H533" stroke="#E6E6E6" stroke-linecap="round" stroke-linejoin="round" stroke-dasharray="4 4"/>
<path d="M471.625 159.5H533" stroke="#E6E6E6" stroke-linecap="round" stroke-linejoin="round" stroke-dasharray="4 4"/>
<path d="M471.625 200.5H533" stroke="#E6E6E6" stroke-linecap="round" stroke-linejoin="round" stroke-dasharray="4 4"/>
<path d="M489.121 225.5V219.12L487.766 219.935V219.11L489.121 218.3H489.866V225.5H489.121ZM494.133 218.155C494.586 218.155 494.996 218.265 495.363 218.485C495.733 218.702 496.026 218.998 496.243 219.375C496.459 219.748 496.568 220.168 496.568 220.635V223.135C496.568 223.615 496.459 224.045 496.243 224.425C496.026 224.805 495.729 225.105 495.353 225.325C494.979 225.542 494.554 225.65 494.078 225.65C493.668 225.65 493.288 225.56 492.938 225.38C492.591 225.197 492.304 224.945 492.078 224.625L492.638 224.16C492.791 224.397 492.994 224.587 493.248 224.73C493.504 224.873 493.781 224.945 494.078 224.945C494.418 224.945 494.718 224.865 494.978 224.705C495.241 224.542 495.448 224.328 495.598 224.065C495.751 223.798 495.828 223.51 495.828 223.2V221.63L496.008 221.84C495.801 222.17 495.526 222.437 495.183 222.64C494.843 222.843 494.469 222.945 494.063 222.945C493.619 222.945 493.218 222.838 492.858 222.625C492.501 222.412 492.218 222.125 492.008 221.765C491.801 221.405 491.698 221.003 491.698 220.56C491.698 220.117 491.808 219.713 492.028 219.35C492.248 218.983 492.543 218.693 492.913 218.48C493.283 218.263 493.689 218.155 494.133 218.155ZM494.133 218.865C493.819 218.865 493.534 218.942 493.278 219.095C493.021 219.245 492.816 219.448 492.663 219.705C492.513 219.962 492.438 220.247 492.438 220.56C492.438 220.873 492.513 221.158 492.663 221.415C492.813 221.672 493.016 221.877 493.273 222.03C493.529 222.18 493.814 222.255 494.128 222.255C494.441 222.255 494.726 222.18 494.983 222.03C495.243 221.877 495.448 221.672 495.598 221.415C495.751 221.158 495.828 220.873 495.828 220.56C495.828 220.25 495.751 219.967 495.598 219.71C495.448 219.453 495.244 219.248 494.988 219.095C494.731 218.942 494.446 218.865 494.133 218.865ZM499.466 225.5L501.946 218.3H502.921L505.401 225.5H504.636L502.281 218.71H502.571L500.231 225.5H499.466ZM500.571 223.755V223.065H504.291V223.755H500.571ZM508.369 225.635C508.045 225.635 507.762 225.585 507.519 225.485C507.279 225.385 507.074 225.25 506.904 225.08C506.737 224.91 506.602 224.717 506.499 224.5C506.395 224.28 506.32 224.048 506.274 223.805C506.227 223.558 506.204 223.313 506.204 223.07V220.1H506.944V222.855C506.944 223.152 506.972 223.427 507.029 223.68C507.085 223.933 507.175 224.155 507.299 224.345C507.425 224.532 507.587 224.677 507.784 224.78C507.984 224.883 508.225 224.935 508.509 224.935C508.769 224.935 508.997 224.89 509.194 224.8C509.394 224.71 509.56 224.582 509.694 224.415C509.83 224.245 509.934 224.04 510.004 223.8C510.074 223.557 510.109 223.283 510.109 222.98L510.629 223.095C510.629 223.648 510.532 224.113 510.339 224.49C510.145 224.867 509.879 225.152 509.539 225.345C509.199 225.538 508.809 225.635 508.369 225.635ZM510.184 225.5V224.17H510.109V220.1H510.844V225.5H510.184ZM514.386 228.05C514.109 228.05 513.836 228.008 513.566 227.925C513.299 227.845 513.053 227.717 512.826 227.54C512.599 227.367 512.409 227.14 512.256 226.86L512.921 226.49C513.071 226.79 513.281 227.005 513.551 227.135C513.824 227.268 514.103 227.335 514.386 227.335C514.776 227.335 515.091 227.262 515.331 227.115C515.574 226.972 515.751 226.758 515.861 226.475C515.971 226.192 516.024 225.838 516.021 225.415V223.975H516.106V220.1H516.761V225.425C516.761 225.578 516.756 225.725 516.746 225.865C516.739 226.008 516.724 226.148 516.701 226.285C516.638 226.688 516.506 227.02 516.306 227.28C516.109 227.54 515.849 227.733 515.526 227.86C515.206 227.987 514.826 228.05 514.386 228.05ZM514.336 225.65C513.833 225.65 513.403 225.525 513.046 225.275C512.689 225.022 512.416 224.68 512.226 224.25C512.036 223.82 511.941 223.335 511.941 222.795C511.941 222.258 512.034 221.775 512.221 221.345C512.411 220.915 512.683 220.575 513.036 220.325C513.389 220.075 513.813 219.95 514.306 219.95C514.813 219.95 515.239 220.073 515.586 220.32C515.933 220.567 516.194 220.905 516.371 221.335C516.551 221.762 516.641 222.248 516.641 222.795C516.641 223.332 516.553 223.817 516.376 224.25C516.199 224.68 515.939 225.022 515.596 225.275C515.253 225.525 514.833 225.65 514.336 225.65ZM514.411 224.965C514.794 224.965 515.111 224.872 515.361 224.685C515.611 224.498 515.798 224.242 515.921 223.915C516.044 223.585 516.106 223.212 516.106 222.795C516.106 222.372 516.044 221.998 515.921 221.675C515.798 221.348 515.611 221.093 515.361 220.91C515.114 220.727 514.803 220.635 514.426 220.635C514.039 220.635 513.719 220.73 513.466 220.92C513.213 221.11 513.024 221.368 512.901 221.695C512.781 222.022 512.721 222.388 512.721 222.795C512.721 223.205 512.783 223.575 512.906 223.905C513.033 224.232 513.221 224.49 513.471 224.68C513.721 224.87 514.034 224.965 514.411 224.965Z" fill="#6B6B6A"/>
<path d="M533 36.5H549" stroke="#E6E6E6" stroke-linecap="round" stroke-linejoin="round" stroke-dasharray="4 4"/>
<path d="M533 77.5H549" stroke="#E6E6E6" stroke-linecap="round" stroke-linejoin="round" stroke-dasharray="4 4"/>
<path d="M533 118.5H549" stroke="#E6E6E6" stroke-linecap="round" stroke-linejoin="round" stroke-dasharray="4 4"/>
<path d="M533 159.5H549" stroke="#E6E6E6" stroke-linecap="round" stroke-linejoin="round" stroke-dasharray="4 4"/>
<path d="M533 200.5H549" stroke="#E6E6E6" stroke-linecap="round" stroke-linejoin="round" stroke-dasharray="4 4"/>
<path d="M27 115C27 115 53.037 97.2949 72.3333 96.6637C89.7259 96.0948 107 105.088 132.6 105.088C157.068 105.088 166.2 80.8053 193.933 80.8053C220.86 80.8053 226.467 86.2566 256.333 86.2566C280.695 86.2566 291 59 318.2 59C342.149 59 347.533 76.8407 375.8 76.8407C402.412 76.8407 416.867 98.1504 441.933 98.1504C466.198 98.1504 477.667 69.4071 502.733 69.4071C522.299 69.4071 547 80.8053 547 80.8053" stroke="#FF8200" stroke-width="2" stroke-linecap="round"/>
<path d="M27 151.632C27 151.632 55.2667 167 72.3333 167C89.7367 167 107 139.735 132.6 139.735C157.068 139.735 166.2 158.077 193.933 158.077C220.86 158.077 226.467 139.735 256.333 139.735C280.695 139.735 291 109 318.2 109C342.149 109 347.533 139.735 375.8 139.735C402.412 139.735 416.867 167 441.933 167C466.198 167 477.667 144.197 502.733 144.197C522.299 144.197 547 158.077 547 158.077" stroke="#FFB466" stroke-width="2" stroke-linecap="round" stroke-dasharray="4 8"/>
<rect x="295" y="42" width="48" height="188" fill="url(#paint0_linear_20_422)"/>
<circle cx="319" cy="59" r="4" fill="white" stroke="#FF8200" stroke-width="2"/>
<g filter="url(#filter0_d_20_422)">
<rect x="287" y="7" width="64" height="42" rx="8" fill="white" shape-rendering="crispEdges"/>
<rect x="287.5" y="7.5" width="63" height="41" rx="7.5" stroke="#E6E6E6" shape-rendering="crispEdges"/>
<path d="M303.06 22V16.24H305.284C305.34 16.24 305.403 16.2427 305.472 16.248C305.544 16.2507 305.616 16.2587 305.688 16.272C305.989 16.3173 306.244 16.4227 306.452 16.588C306.663 16.7507 306.821 16.956 306.928 17.204C307.037 17.452 307.092 17.7267 307.092 18.028C307.092 18.4627 306.977 18.84 306.748 19.16C306.519 19.48 306.191 19.6813 305.764 19.764L305.56 19.812H303.648V22H303.06ZM306.548 22L305.412 19.656L305.976 19.44L307.224 22H306.548ZM303.648 19.252H305.268C305.316 19.252 305.372 19.2493 305.436 19.244C305.5 19.2387 305.563 19.2293 305.624 19.216C305.821 19.1733 305.983 19.092 306.108 18.972C306.236 18.852 306.331 18.7093 306.392 18.544C306.456 18.3787 306.488 18.2067 306.488 18.028C306.488 17.8493 306.456 17.6773 306.392 17.512C306.331 17.344 306.236 17.2 306.108 17.08C305.983 16.96 305.821 16.8787 305.624 16.836C305.563 16.8227 305.5 16.8147 305.436 16.812C305.372 16.8067 305.316 16.804 305.268 16.804H303.648V19.252ZM310.015 22.12C309.594 22.12 309.228 22.0267 308.919 21.84C308.612 21.6533 308.374 21.3907 308.203 21.052C308.032 20.7133 307.947 20.316 307.947 19.86C307.947 19.388 308.031 18.98 308.199 18.636C308.367 18.292 308.603 18.0267 308.907 17.84C309.214 17.6533 309.575 17.56 309.991 17.56C310.418 17.56 310.782 17.6587 311.083 17.856C311.384 18.0507 311.612 18.3307 311.767 18.696C311.922 19.0613 311.992 19.4973 311.979 20.004H311.379V19.796C311.368 19.236 311.247 18.8133 311.015 18.528C310.786 18.2427 310.45 18.1 310.007 18.1C309.543 18.1 309.187 18.2507 308.939 18.552C308.694 18.8533 308.571 19.2827 308.571 19.84C308.571 20.384 308.694 20.8067 308.939 21.108C309.187 21.4067 309.538 21.556 309.991 21.556C310.3 21.556 310.57 21.4853 310.799 21.344C311.031 21.2 311.214 20.9933 311.347 20.724L311.895 20.936C311.724 21.312 311.472 21.604 311.139 21.812C310.808 22.0173 310.434 22.12 310.015 22.12ZM308.363 20.004V19.512H311.663V20.004H308.363ZM313.958 22L312.39 17.68H312.986L314.262 21.232L315.53 17.68H316.134L314.566 22H313.958ZM318.605 22.12C318.183 22.12 317.818 22.0267 317.509 21.84C317.202 21.6533 316.963 21.3907 316.793 21.052C316.622 20.7133 316.537 20.316 316.537 19.86C316.537 19.388 316.621 18.98 316.789 18.636C316.957 18.292 317.193 18.0267 317.497 17.84C317.803 17.6533 318.165 17.56 318.581 17.56C319.007 17.56 319.371 17.6587 319.673 17.856C319.974 18.0507 320.202 18.3307 320.357 18.696C320.511 19.0613 320.582 19.4973 320.569 20.004H319.969V19.796C319.958 19.236 319.837 18.8133 319.605 18.528C319.375 18.2427 319.039 18.1 318.597 18.1C318.133 18.1 317.777 18.2507 317.529 18.552C317.283 18.8533 317.161 19.2827 317.161 19.84C317.161 20.384 317.283 20.8067 317.529 21.108C317.777 21.4067 318.127 21.556 318.581 21.556C318.89 21.556 319.159 21.4853 319.389 21.344C319.621 21.2 319.803 20.9933 319.937 20.724L320.485 20.936C320.314 21.312 320.062 21.604 319.729 21.812C319.398 22.0173 319.023 22.12 318.605 22.12ZM316.953 20.004V19.512H320.253V20.004H316.953ZM324.539 22V19.796C324.539 19.556 324.516 19.336 324.471 19.136C324.426 18.9333 324.352 18.7573 324.251 18.608C324.152 18.456 324.023 18.3387 323.863 18.256C323.706 18.1733 323.514 18.132 323.287 18.132C323.079 18.132 322.895 18.168 322.735 18.24C322.578 18.312 322.444 18.416 322.335 18.552C322.228 18.6853 322.147 18.848 322.091 19.04C322.035 19.232 322.007 19.4507 322.007 19.696L321.591 19.604C321.591 19.1613 321.668 18.7893 321.823 18.488C321.978 18.1867 322.191 17.9587 322.463 17.804C322.735 17.6493 323.047 17.572 323.399 17.572C323.658 17.572 323.883 17.612 324.075 17.692C324.27 17.772 324.434 17.88 324.567 18.016C324.703 18.152 324.812 18.308 324.895 18.484C324.978 18.6573 325.038 18.8427 325.075 19.04C325.112 19.2347 325.131 19.4293 325.131 19.624V22H324.539ZM321.415 22V17.68H321.947V18.744H322.007V22H321.415ZM327.901 22.108C327.642 22.108 327.416 22.068 327.221 21.988C327.029 21.908 326.865 21.8 326.729 21.664C326.596 21.528 326.488 21.3733 326.405 21.2C326.322 21.024 326.262 20.8387 326.225 20.644C326.188 20.4467 326.169 20.2507 326.169 20.056V17.68H326.761V19.884C326.761 20.1213 326.784 20.3413 326.829 20.544C326.874 20.7467 326.946 20.924 327.045 21.076C327.146 21.2253 327.276 21.3413 327.433 21.424C327.593 21.5067 327.786 21.548 328.013 21.548C328.221 21.548 328.404 21.512 328.561 21.44C328.721 21.368 328.854 21.2653 328.961 21.132C329.07 20.996 329.153 20.832 329.209 20.64C329.265 20.4453 329.293 20.2267 329.293 19.984L329.709 20.076C329.709 20.5187 329.632 20.8907 329.477 21.192C329.322 21.4933 329.109 21.7213 328.837 21.876C328.565 22.0307 328.253 22.108 327.901 22.108ZM329.353 22V20.936H329.293V17.68H329.881V22H329.353ZM332.907 22.12C332.486 22.12 332.12 22.0267 331.811 21.84C331.504 21.6533 331.266 21.3907 331.095 21.052C330.924 20.7133 330.839 20.316 330.839 19.86C330.839 19.388 330.923 18.98 331.091 18.636C331.259 18.292 331.495 18.0267 331.799 17.84C332.106 17.6533 332.467 17.56 332.883 17.56C333.31 17.56 333.674 17.6587 333.975 17.856C334.276 18.0507 334.504 18.3307 334.659 18.696C334.814 19.0613 334.884 19.4973 334.871 20.004H334.271V19.796C334.26 19.236 334.139 18.8133 333.907 18.528C333.678 18.2427 333.342 18.1 332.899 18.1C332.435 18.1 332.079 18.2507 331.831 18.552C331.586 18.8533 331.463 19.2827 331.463 19.84C331.463 20.384 331.586 20.8067 331.831 21.108C332.079 21.4067 332.43 21.556 332.883 21.556C333.192 21.556 333.462 21.4853 333.691 21.344C333.923 21.2 334.106 20.9933 334.239 20.724L334.787 20.936C334.616 21.312 334.364 21.604 334.031 21.812C333.7 22.0173 333.326 22.12 332.907 22.12ZM331.255 20.004V19.512H334.555V20.004H331.255Z" fill="#6B6B6A"/>
<path d="M301.108 39.194V37.79H302.362V39.194H301.108ZM301.108 29.576V28.166H302.362V29.576H301.108ZM301.798 38.18C301.198 38.18 300.662 38.072 300.19 37.856C299.718 37.64 299.33 37.334 299.026 36.938C298.726 36.538 298.53 36.066 298.438 35.522L299.68 35.324C299.8 35.836 300.056 36.244 300.448 36.548C300.84 36.848 301.31 36.998 301.858 36.998C302.402 36.998 302.844 36.868 303.184 36.608C303.528 36.348 303.7 36.016 303.7 35.612C303.7 35.324 303.612 35.09 303.436 34.91C303.264 34.73 302.982 34.578 302.59 34.454L300.562 33.83C299.362 33.458 298.762 32.738 298.762 31.67C298.762 31.166 298.882 30.728 299.122 30.356C299.366 29.984 299.708 29.696 300.148 29.492C300.588 29.288 301.102 29.186 301.69 29.186C302.254 29.194 302.754 29.298 303.19 29.498C303.63 29.698 303.994 29.986 304.282 30.362C304.574 30.738 304.776 31.19 304.888 31.718L303.61 31.946C303.554 31.638 303.436 31.366 303.256 31.13C303.08 30.894 302.856 30.71 302.584 30.578C302.316 30.446 302.014 30.378 301.678 30.374C301.362 30.366 301.078 30.416 300.826 30.524C300.578 30.628 300.38 30.776 300.232 30.968C300.088 31.156 300.016 31.37 300.016 31.61C300.016 31.874 300.118 32.098 300.322 32.282C300.526 32.466 300.848 32.624 301.288 32.756L302.878 33.218C303.606 33.434 304.132 33.724 304.456 34.088C304.78 34.452 304.942 34.936 304.942 35.54C304.942 36.068 304.81 36.53 304.546 36.926C304.286 37.318 303.92 37.626 303.448 37.85C302.976 38.07 302.426 38.18 301.798 38.18ZM307.729 38V30.74L306.103 31.73V30.332L307.729 29.36H309.007V38H307.729ZM314.945 38V36.494H311.045V35.306L313.853 29.36H315.287L312.479 35.306H314.945V32.966H316.217V35.306H317.075V36.494H316.217V38H314.945ZM318.161 39.434L318.239 38.876C318.411 38.888 318.545 38.856 318.641 38.78C318.737 38.704 318.801 38.598 318.833 38.462C318.865 38.326 318.871 38.172 318.851 38H318.161V36.554H319.487V38.12C319.487 38.592 319.373 38.948 319.145 39.188C318.921 39.428 318.593 39.51 318.161 39.434ZM324.324 38.18C323.88 38.18 323.466 38.09 323.082 37.91C322.702 37.726 322.376 37.474 322.104 37.154C321.832 36.83 321.638 36.458 321.522 36.038L322.728 35.714C322.796 35.97 322.912 36.192 323.076 36.38C323.244 36.568 323.44 36.714 323.664 36.818C323.888 36.918 324.12 36.968 324.36 36.968C324.676 36.968 324.962 36.892 325.218 36.74C325.478 36.588 325.682 36.384 325.83 36.128C325.982 35.872 326.058 35.59 326.058 35.282C326.058 34.966 325.98 34.68 325.824 34.424C325.672 34.168 325.466 33.966 325.206 33.818C324.95 33.666 324.668 33.59 324.36 33.59C324.008 33.59 323.71 33.66 323.466 33.8C323.222 33.94 323.032 34.102 322.896 34.286L321.804 33.902L322.068 29.36H326.73V30.542H322.71L323.22 30.068L323.01 33.47L322.764 33.152C322.992 32.924 323.264 32.75 323.58 32.63C323.896 32.51 324.21 32.45 324.522 32.45C325.058 32.45 325.536 32.574 325.956 32.822C326.38 33.07 326.714 33.408 326.958 33.836C327.202 34.26 327.324 34.742 327.324 35.282C327.324 35.818 327.186 36.306 326.91 36.746C326.634 37.182 326.268 37.53 325.812 37.79C325.356 38.05 324.86 38.18 324.324 38.18ZM328.19 37.994L328.196 36.878L331.958 33.506C332.262 33.238 332.468 32.982 332.576 32.738C332.688 32.494 332.744 32.25 332.744 32.006C332.744 31.698 332.676 31.422 332.54 31.178C332.404 30.93 332.216 30.734 331.976 30.59C331.736 30.446 331.46 30.374 331.148 30.374C330.828 30.374 330.542 30.45 330.29 30.602C330.042 30.75 329.848 30.948 329.708 31.196C329.568 31.444 329.5 31.712 329.504 32H328.22C328.22 31.44 328.346 30.95 328.598 30.53C328.854 30.106 329.204 29.776 329.648 29.54C330.092 29.3 330.6 29.18 331.172 29.18C331.716 29.18 332.204 29.304 332.636 29.552C333.068 29.796 333.408 30.132 333.656 30.56C333.908 30.988 334.034 31.476 334.034 32.024C334.034 32.42 333.982 32.756 333.878 33.032C333.774 33.308 333.618 33.564 333.41 33.8C333.202 34.036 332.942 34.292 332.63 34.568L329.726 37.16L329.588 36.8H334.034V37.994H328.19ZM336.979 38V30.74L335.353 31.73V30.332L336.979 29.36H338.257V38H336.979Z" fill="#0E0D0B"/>
</g>
<defs>
<filter id="filter0_d_20_422" x="279" y="3" width="80" height="58" filterUnits="userSpaceOnUse" color-interpolation-filters="sRGB">
<feFlood flood-opacity="0" result="BackgroundImageFix"/>
<feColorMatrix in="SourceAlpha" type="matrix" values="0 0 0 0 0 0 0 0 0 0 0 0 0 0 0 0 0 0 127 0" result="hardAlpha"/>
<feOffset dy="4"/>
<feGaussianBlur stdDeviation="4"/>
<feComposite in2="hardAlpha" operator="out"/>
<feColorMatrix type="matrix" values="0 0 0 0 0.056 0 0 0 0 0.0501176 0 0 0 0 0.044 0 0 0 0.08 0"/>
<feBlend mode="normal" in2="BackgroundImageFix" result="effect1_dropShadow_20_422"/>
<feBlend mode="normal" in="SourceGraphic" in2="effect1_dropShadow_20_422" result="shape"/>
</filter>
<linearGradient id="paint0_linear_20_422" x1="319" y1="28.5" x2="319" y2="246.5" gradientUnits="userSpaceOnUse">
<stop stop-color="#FFD2A3" stop-opacity="0.24"/>
<stop offset="1" stop-color="#FFD2A3" stop-opacity="0"/>
</linearGradient>
</defs>
</svg>
