<svg width="31" height="30" viewBox="0 0 31 30" fill="none" xmlns="http://www.w3.org/2000/svg">
<rect x="0.666656" width="30" height="30" rx="4" fill="#FF8200"/>
<path fill-rule="evenodd" clip-rule="evenodd" d="M15.6667 10.5C15.9773 10.5 16.2292 10.7518 16.2292 11.0625V12.1875C16.2292 12.4982 15.9773 12.75 15.6667 12.75C15.356 12.75 15.1042 12.4982 15.1042 12.1875V11.0625C15.1042 10.7518 15.356 10.5 15.6667 10.5Z" fill="#FFF7F0"/>
<path fill-rule="evenodd" clip-rule="evenodd" d="M15.6667 17.25C15.9773 17.25 16.2292 17.5018 16.2292 17.8125V18.9375C16.2292 19.2482 15.9773 19.5 15.6667 19.5C15.356 19.5 15.1042 19.2482 15.1042 18.9375V17.8125C15.1042 17.5018 15.356 17.25 15.6667 17.25Z" fill="#FFF7F0"/>
<path fill-rule="evenodd" clip-rule="evenodd" d="M15.6667 8.8125C12.2494 8.8125 9.47916 11.5827 9.47916 15C9.47916 18.4173 12.2494 21.1875 15.6667 21.1875C19.0839 21.1875 21.8542 18.4173 21.8542 15C21.8542 11.5827 19.0839 8.8125 15.6667 8.8125ZM8.35416 15C8.35416 10.9614 11.6281 7.6875 15.6667 7.6875C19.7052 7.6875 22.9792 10.9614 22.9792 15C22.9792 19.0386 19.7052 22.3125 15.6667 22.3125C11.6281 22.3125 8.35416 19.0386 8.35416 15Z" fill="#FFF7F0"/>
<path fill-rule="evenodd" clip-rule="evenodd" d="M14.8229 12.75C14.5991 12.75 14.3845 12.8389 14.2263 12.9971C14.0681 13.1554 13.9792 13.37 13.9792 13.5938C13.9792 13.8175 14.0681 14.0321 14.2263 14.1904C14.3845 14.3486 14.5991 14.4375 14.8229 14.4375H16.5104C17.0326 14.4375 17.5333 14.6449 17.9025 15.0141C18.2717 15.3833 18.4792 15.8841 18.4792 16.4062C18.4792 16.9284 18.2717 17.4292 17.9025 17.7984C17.5333 18.1676 17.0326 18.375 16.5104 18.375H13.9792C13.6685 18.375 13.4167 18.1232 13.4167 17.8125C13.4167 17.5018 13.6685 17.25 13.9792 17.25H16.5104C16.7342 17.25 16.9488 17.1611 17.107 17.0029C17.2653 16.8446 17.3542 16.63 17.3542 16.4062C17.3542 16.1825 17.2653 15.9679 17.107 15.8096C16.9488 15.6514 16.7342 15.5625 16.5104 15.5625H14.8229C14.3008 15.5625 13.8 15.3551 13.4308 14.9859C13.0616 14.6167 12.8542 14.1159 12.8542 13.5938C12.8542 13.0716 13.0616 12.5708 13.4308 12.2016C13.8 11.8324 14.3008 11.625 14.8229 11.625H17.3542C17.6648 11.625 17.9167 11.8768 17.9167 12.1875C17.9167 12.4982 17.6648 12.75 17.3542 12.75H14.8229Z" fill="#FFF7F0"/>
</svg>
