<svg width="200" height="200" viewBox="0 0 200 200" fill="none" xmlns="http://www.w3.org/2000/svg">
<path d="M100 11C100 8.79086 101.792 6.99102 103.999 7.086C119.264 7.74291 134.154 12.1525 147.341 19.951C161.677 28.4292 173.473 40.6018 181.497 55.1969C189.52 69.792 193.477 86.2741 192.954 102.921C192.473 118.234 188.217 133.169 180.593 146.409C179.49 148.324 177.01 148.872 175.145 147.689L167.766 143.005C165.901 141.822 165.358 139.355 166.442 137.43C172.471 126.729 175.835 114.711 176.222 102.395C176.651 88.7448 173.407 75.2295 166.827 63.2615C160.248 51.2935 150.575 41.312 138.82 34.3598C128.214 28.0875 116.264 24.4888 103.998 23.8449C101.792 23.7291 100 21.9491 100 19.74V11Z" fill="#FF8200"/>
<path d="M172.018 152.291C173.806 153.589 174.21 156.096 172.836 157.826C165.476 167.098 156.404 174.888 146.102 180.769C134.641 187.311 121.918 191.339 108.78 192.585C95.6422 193.831 82.3894 192.266 69.9025 187.995C58.6786 184.156 48.3047 178.21 39.3325 170.487C37.6582 169.046 37.5833 166.508 39.0951 164.897L45.0761 158.524C46.5879 156.913 49.1127 156.841 50.8006 158.267C58.031 164.372 66.3441 169.086 75.3201 172.156C85.5593 175.658 96.4266 176.941 107.2 175.919C117.973 174.898 128.406 171.595 137.804 166.23C146.043 161.528 153.321 155.335 159.275 147.979C160.665 146.262 163.158 145.858 164.946 147.156L172.018 152.291Z" fill="#FFB466"/>
<path d="M35.1051 160.907C33.4943 162.419 30.9557 162.344 29.5145 160.67C16.9642 146.089 9.22169 127.945 7.41034 108.727C5.59899 89.5083 9.81501 70.2371 19.4201 53.5685C20.5231 51.6544 23.003 51.1066 24.8679 52.2908L32.246 56.976C34.1109 58.1602 34.6527 60.6275 33.5678 62.5519C25.9442 76.0755 22.6138 91.6367 24.0765 107.156C25.5392 122.675 31.7184 137.34 41.7346 149.201C43.1599 150.889 43.0887 153.414 41.4779 154.926L35.1051 160.907Z" fill="#FFD2A3"/>
<path d="M28.0109 47.6687C26.224 46.3697 25.8217 43.8621 27.1963 42.1327C34.8673 32.4817 44.3896 24.4412 55.2178 18.492C66.046 12.5428 77.939 8.81719 90.1986 7.51793C92.3954 7.28511 94.2962 8.96938 94.4344 11.1742L94.9809 19.8971C95.1191 22.1019 93.4418 23.9904 91.2472 24.244C81.4473 25.3762 71.9468 28.4009 63.2786 33.1634C54.6103 37.926 46.9626 44.3228 40.7516 51.9873C39.3608 53.7037 36.8673 54.1067 35.0804 52.8077L28.0109 47.6687Z" fill="#FFE1C2"/>
</svg>
