<svg width="200" height="200" viewBox="0 0 200 200" fill="none" xmlns="http://www.w3.org/2000/svg">
<path d="M77.615 85V78.505H75.1V77.8H80.865V78.505H78.35V85H77.615ZM83.121 85.15C82.5843 85.15 82.126 85.0283 81.746 84.785C81.366 84.5417 81.0743 84.205 80.871 83.775C80.6677 83.345 80.566 82.8517 80.566 82.295C80.566 81.7283 80.6693 81.2317 80.876 80.805C81.0827 80.3783 81.376 80.0467 81.756 79.81C82.1393 79.57 82.5943 79.45 83.121 79.45C83.661 79.45 84.121 79.5717 84.501 79.815C84.8843 80.055 85.176 80.39 85.376 80.82C85.5793 81.2467 85.681 81.7383 85.681 82.295C85.681 82.8617 85.5793 83.36 85.376 83.79C85.1727 84.2167 84.8793 84.55 84.496 84.79C84.1127 85.03 83.6543 85.15 83.121 85.15ZM83.121 84.445C83.721 84.445 84.1677 84.2467 84.461 83.85C84.7543 83.45 84.901 82.9317 84.901 82.295C84.901 81.6417 84.7527 81.1217 84.456 80.735C84.1627 80.3483 83.7177 80.155 83.121 80.155C82.7177 80.155 82.3843 80.2467 82.121 80.43C81.861 80.61 81.666 80.8617 81.536 81.185C81.4093 81.505 81.346 81.875 81.346 82.295C81.346 82.945 81.496 83.4667 81.796 83.86C82.096 84.25 82.5377 84.445 83.121 84.445ZM89.724 85C89.4207 85.0633 89.1207 85.0883 88.824 85.075C88.5307 85.0617 88.2673 84.9983 88.034 84.885C87.804 84.7717 87.629 84.595 87.509 84.355C87.4123 84.155 87.359 83.9533 87.349 83.75C87.3423 83.5433 87.339 83.3083 87.339 83.045V78.1H88.069V83.015C88.069 83.2417 88.0707 83.4317 88.074 83.585C88.0807 83.735 88.1157 83.8683 88.179 83.985C88.299 84.2083 88.489 84.3417 88.749 84.385C89.0123 84.4283 89.3373 84.4183 89.724 84.355V85ZM86.184 80.23V79.6H89.724V80.23H86.184ZM92.3329 85.15C91.9262 85.15 91.5846 85.0767 91.3079 84.93C91.0346 84.7833 90.8296 84.5883 90.6929 84.345C90.5562 84.1017 90.4879 83.8367 90.4879 83.55C90.4879 83.2567 90.5462 83.0067 90.6629 82.8C90.7829 82.59 90.9446 82.4183 91.1479 82.285C91.3546 82.1517 91.5929 82.05 91.8629 81.98C92.1362 81.9133 92.4379 81.855 92.7679 81.805C93.1012 81.7517 93.4262 81.7067 93.7429 81.67C94.0629 81.63 94.3429 81.5917 94.5829 81.555L94.3229 81.715C94.3329 81.1817 94.2296 80.7867 94.0129 80.53C93.7962 80.2733 93.4196 80.145 92.8829 80.145C92.5129 80.145 92.1996 80.2283 91.9429 80.395C91.6896 80.5617 91.5112 80.825 91.4079 81.185L90.6929 80.975C90.8162 80.4917 91.0646 80.1167 91.4379 79.85C91.8112 79.5833 92.2962 79.45 92.8929 79.45C93.3862 79.45 93.8046 79.5433 94.1479 79.73C94.4946 79.9133 94.7396 80.18 94.8829 80.53C94.9496 80.6867 94.9929 80.8617 95.0129 81.055C95.0329 81.2483 95.0429 81.445 95.0429 81.645V85H94.3879V83.645L94.5779 83.725C94.3946 84.1883 94.1096 84.5417 93.7229 84.785C93.3362 85.0283 92.8729 85.15 92.3329 85.15ZM92.4179 84.515C92.7612 84.515 93.0612 84.4533 93.3179 84.33C93.5746 84.2067 93.7812 84.0383 93.9379 83.825C94.0946 83.6083 94.1962 83.365 94.2429 83.095C94.2829 82.9217 94.3046 82.7317 94.3079 82.525C94.3112 82.315 94.3129 82.1583 94.3129 82.055L94.5929 82.2C94.3429 82.2333 94.0712 82.2667 93.7779 82.3C93.4879 82.3333 93.2012 82.3717 92.9179 82.415C92.6379 82.4583 92.3846 82.51 92.1579 82.57C92.0046 82.6133 91.8562 82.675 91.7129 82.755C91.5696 82.8317 91.4512 82.935 91.3579 83.065C91.2679 83.195 91.2229 83.3567 91.2229 83.55C91.2229 83.7067 91.2612 83.8583 91.3379 84.005C91.4179 84.1517 91.5446 84.2733 91.7179 84.37C91.8946 84.4667 92.1279 84.515 92.4179 84.515ZM96.4445 85V77.65H97.1795V85H96.4445ZM103.18 85.15C102.677 85.15 102.224 85.0667 101.82 84.9C101.42 84.73 101.089 84.49 100.825 84.18C100.565 83.87 100.395 83.5017 100.315 83.075L101.065 82.95C101.185 83.4167 101.439 83.7833 101.825 84.05C102.212 84.3133 102.674 84.445 103.21 84.445C103.564 84.445 103.88 84.39 104.16 84.28C104.44 84.1667 104.66 84.0067 104.82 83.8C104.98 83.5933 105.06 83.3483 105.06 83.065C105.06 82.8783 105.027 82.72 104.96 82.59C104.894 82.4567 104.805 82.3467 104.695 82.26C104.585 82.1733 104.465 82.1017 104.335 82.045C104.205 81.985 104.079 81.9367 103.955 81.9L102.13 81.355C101.91 81.2917 101.707 81.2117 101.52 81.115C101.334 81.015 101.17 80.8967 101.03 80.76C100.894 80.62 100.787 80.4567 100.71 80.27C100.634 80.0833 100.595 79.87 100.595 79.63C100.595 79.2233 100.702 78.8717 100.915 78.575C101.129 78.2783 101.42 78.05 101.79 77.89C102.16 77.73 102.582 77.6517 103.055 77.655C103.535 77.655 103.964 77.74 104.34 77.91C104.72 78.08 105.034 78.3233 105.28 78.64C105.527 78.9533 105.69 79.325 105.77 79.755L105 79.895C104.95 79.5817 104.835 79.31 104.655 79.08C104.475 78.85 104.245 78.6733 103.965 78.55C103.689 78.4233 103.384 78.3583 103.05 78.355C102.727 78.355 102.439 78.41 102.185 78.52C101.935 78.6267 101.737 78.7733 101.59 78.96C101.444 79.1467 101.37 79.36 101.37 79.6C101.37 79.8433 101.437 80.0383 101.57 80.185C101.707 80.3317 101.874 80.4467 102.07 80.53C102.27 80.6133 102.464 80.6817 102.65 80.735L104.06 81.15C104.207 81.19 104.379 81.2483 104.575 81.325C104.775 81.3983 104.969 81.505 105.155 81.645C105.345 81.7817 105.502 81.9617 105.625 82.185C105.749 82.4083 105.81 82.6917 105.81 83.035C105.81 83.3683 105.744 83.6667 105.61 83.93C105.48 84.1933 105.295 84.415 105.055 84.595C104.819 84.775 104.54 84.9117 104.22 85.005C103.904 85.1017 103.557 85.15 103.18 85.15ZM108.388 85.15C107.981 85.15 107.639 85.0767 107.363 84.93C107.089 84.7833 106.884 84.5883 106.748 84.345C106.611 84.1017 106.543 83.8367 106.543 83.55C106.543 83.2567 106.601 83.0067 106.718 82.8C106.838 82.59 106.999 82.4183 107.203 82.285C107.409 82.1517 107.648 82.05 107.918 81.98C108.191 81.9133 108.493 81.855 108.823 81.805C109.156 81.7517 109.481 81.7067 109.798 81.67C110.118 81.63 110.398 81.5917 110.638 81.555L110.378 81.715C110.388 81.1817 110.284 80.7867 110.068 80.53C109.851 80.2733 109.474 80.145 108.938 80.145C108.568 80.145 108.254 80.2283 107.998 80.395C107.744 80.5617 107.566 80.825 107.463 81.185L106.748 80.975C106.871 80.4917 107.119 80.1167 107.493 79.85C107.866 79.5833 108.351 79.45 108.948 79.45C109.441 79.45 109.859 79.5433 110.203 79.73C110.549 79.9133 110.794 80.18 110.938 80.53C111.004 80.6867 111.048 80.8617 111.068 81.055C111.088 81.2483 111.098 81.445 111.098 81.645V85H110.443V83.645L110.633 83.725C110.449 84.1883 110.164 84.5417 109.778 84.785C109.391 85.0283 108.928 85.15 108.388 85.15ZM108.473 84.515C108.816 84.515 109.116 84.4533 109.373 84.33C109.629 84.2067 109.836 84.0383 109.993 83.825C110.149 83.6083 110.251 83.365 110.298 83.095C110.338 82.9217 110.359 82.7317 110.363 82.525C110.366 82.315 110.368 82.1583 110.368 82.055L110.648 82.2C110.398 82.2333 110.126 82.2667 109.833 82.3C109.543 82.3333 109.256 82.3717 108.973 82.415C108.693 82.4583 108.439 82.51 108.213 82.57C108.059 82.6133 107.911 82.675 107.768 82.755C107.624 82.8317 107.506 82.935 107.413 83.065C107.323 83.195 107.278 83.3567 107.278 83.55C107.278 83.7067 107.316 83.8583 107.393 84.005C107.473 84.1517 107.599 84.2733 107.773 84.37C107.949 84.4667 108.183 84.515 108.473 84.515ZM112.499 85V77.65H113.234V85H112.499ZM117.018 85.15C116.492 85.15 116.035 85.0333 115.648 84.8C115.265 84.5667 114.967 84.2383 114.753 83.815C114.54 83.3917 114.433 82.895 114.433 82.325C114.433 81.735 114.538 81.225 114.748 80.795C114.958 80.365 115.253 80.0333 115.633 79.8C116.017 79.5667 116.468 79.45 116.988 79.45C117.522 79.45 117.977 79.5733 118.353 79.82C118.73 80.0633 119.015 80.4133 119.208 80.87C119.402 81.3267 119.49 81.8717 119.473 82.505H118.723V82.245C118.71 81.545 118.558 81.0167 118.268 80.66C117.982 80.3033 117.562 80.125 117.008 80.125C116.428 80.125 115.983 80.3133 115.673 80.69C115.367 81.0667 115.213 81.6033 115.213 82.3C115.213 82.98 115.367 83.5083 115.673 83.885C115.983 84.2583 116.422 84.445 116.988 84.445C117.375 84.445 117.712 84.3567 117.998 84.18C118.288 84 118.517 83.7417 118.683 83.405L119.368 83.67C119.155 84.14 118.84 84.505 118.423 84.765C118.01 85.0217 117.542 85.15 117.018 85.15ZM114.953 82.505V81.89H119.078V82.505H114.953ZM122.598 85.145C121.964 85.145 121.443 85.0083 121.033 84.735C120.626 84.4617 120.376 84.0817 120.283 83.595L121.033 83.47C121.113 83.7767 121.294 84.0217 121.578 84.205C121.864 84.385 122.218 84.475 122.638 84.475C123.048 84.475 123.371 84.39 123.608 84.22C123.844 84.0467 123.963 83.8117 123.963 83.515C123.963 83.3483 123.924 83.2133 123.848 83.11C123.774 83.0033 123.623 82.905 123.393 82.815C123.163 82.725 122.819 82.6183 122.363 82.495C121.873 82.3617 121.489 82.2283 121.213 82.095C120.936 81.9617 120.739 81.8083 120.623 81.635C120.506 81.4583 120.448 81.2433 120.448 80.99C120.448 80.6833 120.534 80.415 120.708 80.185C120.881 79.9517 121.121 79.7717 121.428 79.645C121.734 79.515 122.091 79.45 122.498 79.45C122.904 79.45 123.268 79.5167 123.588 79.65C123.911 79.78 124.171 79.9633 124.368 80.2C124.564 80.4367 124.681 80.7117 124.718 81.025L123.968 81.16C123.918 80.8433 123.759 80.5933 123.493 80.41C123.229 80.2233 122.894 80.1267 122.488 80.12C122.104 80.11 121.793 80.1833 121.553 80.34C121.313 80.4933 121.193 80.6983 121.193 80.955C121.193 81.0983 121.236 81.2217 121.323 81.325C121.409 81.425 121.566 81.52 121.793 81.61C122.023 81.7 122.349 81.7983 122.773 81.905C123.269 82.0317 123.659 82.165 123.943 82.305C124.226 82.445 124.428 82.61 124.548 82.8C124.668 82.99 124.728 83.225 124.728 83.505C124.728 84.015 124.538 84.4167 124.158 84.71C123.781 85 123.261 85.145 122.598 85.145Z" fill="#6B6B6A"/>
<path d="M48.17 113.99V111.62H50.58V113.99H48.17ZM48.17 97.99V95.62H50.58V97.99H48.17ZM49.43 112.3C48.4167 112.3 47.51 112.113 46.71 111.74C45.91 111.367 45.2533 110.84 44.74 110.16C44.2333 109.48 43.91 108.673 43.77 107.74L46.15 107.36C46.3367 108.18 46.7367 108.833 47.35 109.32C47.97 109.8 48.71 110.04 49.57 110.04C50.3967 110.04 51.0767 109.847 51.61 109.46C52.1433 109.067 52.41 108.57 52.41 107.97C52.41 107.55 52.2833 107.21 52.03 106.95C51.7767 106.683 51.37 106.463 50.81 106.29L47.34 105.21C45.32 104.583 44.31 103.357 44.31 101.53C44.31 100.677 44.5133 99.9333 44.92 99.3C45.3333 98.66 45.9133 98.17 46.66 97.83C47.4067 97.4833 48.2867 97.3133 49.3 97.32C50.24 97.3267 51.0767 97.4967 51.81 97.83C52.55 98.1633 53.1633 98.6433 53.65 99.27C54.1433 99.8967 54.4933 100.65 54.7 101.53L52.23 101.98C52.1367 101.507 51.9533 101.09 51.68 100.73C51.4067 100.37 51.0633 100.09 50.65 99.89C50.2367 99.69 49.7767 99.5833 49.27 99.57C48.7833 99.5633 48.3467 99.64 47.96 99.8C47.5733 99.9533 47.2667 100.173 47.04 100.46C46.8133 100.74 46.7 101.057 46.7 101.41C46.7 101.803 46.8567 102.14 47.17 102.42C47.49 102.7 47.9933 102.94 48.68 103.14L51.27 103.89C52.5167 104.25 53.4133 104.74 53.96 105.36C54.5133 105.973 54.79 106.79 54.79 107.81C54.79 108.703 54.5667 109.487 54.12 110.16C53.6733 110.833 53.0467 111.36 52.24 111.74C51.4333 112.113 50.4967 112.3 49.43 112.3ZM61.0786 112.27C60.3586 112.27 59.6786 112.13 59.0386 111.85C58.3986 111.57 57.8419 111.173 57.3686 110.66C56.9019 110.147 56.5653 109.54 56.3586 108.84L58.6886 108.21C58.8553 108.783 59.1586 109.227 59.5986 109.54C60.0453 109.847 60.5353 109.997 61.0686 109.99C61.5419 109.99 61.9653 109.88 62.3386 109.66C62.7119 109.44 63.0053 109.143 63.2186 108.77C63.4319 108.39 63.5386 107.967 63.5386 107.5C63.5386 106.787 63.3086 106.19 62.8486 105.71C62.3886 105.23 61.7953 104.99 61.0686 104.99C60.8486 104.99 60.6319 105.02 60.4186 105.08C60.2119 105.14 60.0119 105.223 59.8186 105.33L58.7186 103.43L63.5586 99.29L63.7686 99.87H56.9186V97.6H65.7486V99.88L61.8586 103.62L61.8386 102.91C62.7119 102.97 63.4553 103.213 64.0686 103.64C64.6886 104.067 65.1619 104.617 65.4886 105.29C65.8219 105.963 65.9886 106.7 65.9886 107.5C65.9886 108.407 65.7653 109.22 65.3186 109.94C64.8786 110.66 64.2853 111.23 63.5386 111.65C62.7986 112.063 61.9786 112.27 61.0786 112.27ZM68.3797 114.55L68.5197 113.51C68.8264 113.537 69.0697 113.483 69.2497 113.35C69.4297 113.223 69.5497 113.04 69.6097 112.8C69.6764 112.567 69.693 112.3 69.6597 112H68.3797V109.43H70.8497V112.1C70.8497 112.973 70.643 113.633 70.2297 114.08C69.8164 114.527 69.1997 114.683 68.3797 114.55ZM80.6339 112V109.62H74.2539V107.37L78.8639 97.6H81.6139L77.0039 107.37H80.6339V103.62H83.0739V107.37H84.4239V109.62H83.0739V112H80.6339ZM92.0019 112.3C90.9819 112.3 90.0819 112.083 89.3019 111.65C88.5219 111.21 87.9119 110.6 87.4719 109.82C87.0385 109.04 86.8219 108.14 86.8219 107.12V102.48C86.8219 101.46 87.0385 100.56 87.4719 99.78C87.9119 99 88.5219 98.3933 89.3019 97.96C90.0819 97.52 90.9819 97.3 92.0019 97.3C93.0219 97.3 93.9185 97.52 94.6919 97.96C95.4719 98.3933 96.0819 99 96.5219 99.78C96.9619 100.56 97.1819 101.46 97.1819 102.48V107.12C97.1819 108.14 96.9619 109.04 96.5219 109.82C96.0819 110.6 95.4719 111.21 94.6919 111.65C93.9185 112.083 93.0219 112.3 92.0019 112.3ZM92.0019 110.01C92.5085 110.01 92.9685 109.89 93.3819 109.65C93.7952 109.403 94.1219 109.077 94.3619 108.67C94.6019 108.257 94.7219 107.797 94.7219 107.29V102.3C94.7219 101.787 94.6019 101.327 94.3619 100.92C94.1219 100.507 93.7952 100.18 93.3819 99.94C92.9685 99.6933 92.5085 99.57 92.0019 99.57C91.4952 99.57 91.0352 99.6933 90.6219 99.94C90.2085 100.18 89.8819 100.507 89.6419 100.92C89.4019 101.327 89.2819 101.787 89.2819 102.3V107.29C89.2819 107.797 89.4019 108.257 89.6419 108.67C89.8819 109.077 90.2085 109.403 90.6219 109.65C91.0352 109.89 91.4952 110.01 92.0019 110.01ZM105.166 112.3C104.146 112.3 103.246 112.083 102.466 111.65C101.686 111.21 101.076 110.6 100.636 109.82C100.203 109.04 99.9859 108.14 99.9859 107.12V102.48C99.9859 101.46 100.203 100.56 100.636 99.78C101.076 99 101.686 98.3933 102.466 97.96C103.246 97.52 104.146 97.3 105.166 97.3C106.186 97.3 107.083 97.52 107.856 97.96C108.636 98.3933 109.246 99 109.686 99.78C110.126 100.56 110.346 101.46 110.346 102.48V107.12C110.346 108.14 110.126 109.04 109.686 109.82C109.246 110.6 108.636 111.21 107.856 111.65C107.083 112.083 106.186 112.3 105.166 112.3ZM105.166 110.01C105.673 110.01 106.133 109.89 106.546 109.65C106.959 109.403 107.286 109.077 107.526 108.67C107.766 108.257 107.886 107.797 107.886 107.29V102.3C107.886 101.787 107.766 101.327 107.526 100.92C107.286 100.507 106.959 100.18 106.546 99.94C106.133 99.6933 105.673 99.57 105.166 99.57C104.659 99.57 104.199 99.6933 103.786 99.94C103.373 100.18 103.046 100.507 102.806 100.92C102.566 101.327 102.446 101.787 102.446 102.3V107.29C102.446 107.797 102.566 108.257 102.806 108.67C103.046 109.077 103.373 109.403 103.786 109.65C104.199 109.89 104.659 110.01 105.166 110.01ZM112.95 114.55L113.09 113.51C113.397 113.537 113.64 113.483 113.82 113.35C114 113.223 114.12 113.04 114.18 112.8C114.247 112.567 114.263 112.3 114.23 112H112.95V109.43H115.42V112.1C115.42 112.973 115.213 113.633 114.8 114.08C114.387 114.527 113.77 114.683 112.95 114.55ZM124.404 112.3C123.384 112.3 122.484 112.083 121.704 111.65C120.924 111.21 120.314 110.6 119.874 109.82C119.441 109.04 119.224 108.14 119.224 107.12V102.48C119.224 101.46 119.441 100.56 119.874 99.78C120.314 99 120.924 98.3933 121.704 97.96C122.484 97.52 123.384 97.3 124.404 97.3C125.424 97.3 126.321 97.52 127.094 97.96C127.874 98.3933 128.484 99 128.924 99.78C129.364 100.56 129.584 101.46 129.584 102.48V107.12C129.584 108.14 129.364 109.04 128.924 109.82C128.484 110.6 127.874 111.21 127.094 111.65C126.321 112.083 125.424 112.3 124.404 112.3ZM124.404 110.01C124.911 110.01 125.371 109.89 125.784 109.65C126.198 109.403 126.524 109.077 126.764 108.67C127.004 108.257 127.124 107.797 127.124 107.29V102.3C127.124 101.787 127.004 101.327 126.764 100.92C126.524 100.507 126.198 100.18 125.784 99.94C125.371 99.6933 124.911 99.57 124.404 99.57C123.898 99.57 123.438 99.6933 123.024 99.94C122.611 100.18 122.284 100.507 122.044 100.92C121.804 101.327 121.684 101.787 121.684 102.3V107.29C121.684 107.797 121.804 108.257 122.044 108.67C122.284 109.077 122.611 109.403 123.024 109.65C123.438 109.89 123.898 110.01 124.404 110.01ZM137.568 112.3C136.548 112.3 135.648 112.083 134.868 111.65C134.088 111.21 133.478 110.6 133.038 109.82C132.605 109.04 132.388 108.14 132.388 107.12V102.48C132.388 101.46 132.605 100.56 133.038 99.78C133.478 99 134.088 98.3933 134.868 97.96C135.648 97.52 136.548 97.3 137.568 97.3C138.588 97.3 139.485 97.52 140.258 97.96C141.038 98.3933 141.648 99 142.088 99.78C142.528 100.56 142.748 101.46 142.748 102.48V107.12C142.748 108.14 142.528 109.04 142.088 109.82C141.648 110.6 141.038 111.21 140.258 111.65C139.485 112.083 138.588 112.3 137.568 112.3ZM137.568 110.01C138.075 110.01 138.535 109.89 138.948 109.65C139.362 109.403 139.688 109.077 139.928 108.67C140.168 108.257 140.288 107.797 140.288 107.29V102.3C140.288 101.787 140.168 101.327 139.928 100.92C139.688 100.507 139.362 100.18 138.948 99.94C138.535 99.6933 138.075 99.57 137.568 99.57C137.062 99.57 136.602 99.6933 136.188 99.94C135.775 100.18 135.448 100.507 135.208 100.92C134.968 101.327 134.848 101.787 134.848 102.3V107.29C134.848 107.797 134.968 108.257 135.208 108.67C135.448 109.077 135.775 109.403 136.188 109.65C136.602 109.89 137.062 110.01 137.568 110.01ZM150.732 112.3C149.712 112.3 148.812 112.083 148.032 111.65C147.252 111.21 146.642 110.6 146.202 109.82C145.769 109.04 145.552 108.14 145.552 107.12V102.48C145.552 101.46 145.769 100.56 146.202 99.78C146.642 99 147.252 98.3933 148.032 97.96C148.812 97.52 149.712 97.3 150.732 97.3C151.752 97.3 152.649 97.52 153.422 97.96C154.202 98.3933 154.812 99 155.252 99.78C155.692 100.56 155.912 101.46 155.912 102.48V107.12C155.912 108.14 155.692 109.04 155.252 109.82C154.812 110.6 154.202 111.21 153.422 111.65C152.649 112.083 151.752 112.3 150.732 112.3ZM150.732 110.01C151.239 110.01 151.699 109.89 152.112 109.65C152.526 109.403 152.852 109.077 153.092 108.67C153.332 108.257 153.452 107.797 153.452 107.29V102.3C153.452 101.787 153.332 101.327 153.092 100.92C152.852 100.507 152.526 100.18 152.112 99.94C151.699 99.6933 151.239 99.57 150.732 99.57C150.226 99.57 149.766 99.6933 149.352 99.94C148.939 100.18 148.612 100.507 148.372 100.92C148.132 101.327 148.012 101.787 148.012 102.3V107.29C148.012 107.797 148.132 108.257 148.372 108.67C148.612 109.077 148.939 109.403 149.352 109.65C149.766 109.89 150.226 110.01 150.732 110.01Z" fill="#0E0D0B"/>
<path d="M100 11C100 8.79086 101.792 6.99102 103.999 7.086C119.264 7.74291 134.154 12.1525 147.341 19.951C161.677 28.4292 173.473 40.6018 181.497 55.1969C189.52 69.792 193.477 86.2741 192.954 102.921C192.473 118.234 188.217 133.169 180.593 146.409C179.49 148.324 177.01 148.872 175.145 147.689L167.766 143.005C165.901 141.822 165.358 139.355 166.442 137.43C172.471 126.729 175.835 114.711 176.222 102.395C176.651 88.7448 173.407 75.2295 166.827 63.2615C160.248 51.2935 150.575 41.312 138.82 34.3598C128.214 28.0875 116.264 24.4888 103.998 23.8449C101.792 23.7291 100 21.9491 100 19.74V11Z" fill="#FF8200"/>
<path d="M172.018 152.291C173.806 153.589 174.21 156.096 172.836 157.826C165.476 167.098 156.404 174.888 146.102 180.769C134.641 187.311 121.918 191.339 108.78 192.585C95.6422 193.831 82.3894 192.266 69.9025 187.995C58.6786 184.156 48.3047 178.21 39.3325 170.487C37.6582 169.046 37.5833 166.508 39.0951 164.897L45.0761 158.524C46.5879 156.913 49.1127 156.841 50.8006 158.267C58.031 164.372 66.3441 169.086 75.3201 172.156C85.5593 175.658 96.4266 176.941 107.2 175.919C117.973 174.898 128.406 171.595 137.804 166.23C146.043 161.528 153.321 155.335 159.275 147.979C160.665 146.262 163.158 145.858 164.946 147.156L172.018 152.291Z" fill="#FFB466"/>
<path d="M35.1051 160.907C33.4943 162.419 30.9557 162.344 29.5145 160.67C16.9642 146.089 9.22169 127.945 7.41034 108.727C5.59899 89.5083 9.81501 70.2371 19.4201 53.5685C20.5231 51.6544 23.003 51.1066 24.8679 52.2908L32.246 56.976C34.1109 58.1602 34.6527 60.6275 33.5678 62.5519C25.9442 76.0755 22.6138 91.6367 24.0765 107.156C25.5392 122.675 31.7184 137.34 41.7346 149.201C43.1599 150.889 43.0887 153.414 41.4779 154.926L35.1051 160.907Z" fill="#FFD2A3"/>
<path d="M28.0109 47.6687C26.224 46.3697 25.8217 43.8621 27.1963 42.1327C34.8673 32.4817 44.3896 24.4412 55.2178 18.492C66.046 12.5428 77.939 8.81719 90.1986 7.51793C92.3954 7.28511 94.2962 8.96938 94.4344 11.1742L94.9809 19.8971C95.1191 22.1019 93.4418 23.9904 91.2472 24.244C81.4473 25.3762 71.9468 28.4009 63.2786 33.1634C54.6103 37.926 46.9626 44.3228 40.7516 51.9873C39.3608 53.7037 36.8673 54.1067 35.0804 52.8077L28.0109 47.6687Z" fill="#FFE1C2"/>
</svg>
