<svg width="547" height="122" viewBox="0 0 547 122" fill="none" xmlns="http://www.w3.org/2000/svg">
<path d="M0 24C0 17.3726 5.37258 12 12 12H91C97.6274 12 103 17.3726 103 24V122H0V24Z" fill="#FFEBD6"/>
<path d="M103 80C103 73.3726 108.373 68 115 68H202C208.627 68 214 73.3726 214 80V122H103V80Z" fill="#FFE1C2"/>
<path d="M214 93C214 86.3726 219.373 81 226 81H313C319.627 81 325 86.3726 325 93V122H214V93Z" fill="#FFD2A3"/>
<path d="M325 110C325 103.373 330.373 98 337 98H424C430.627 98 436 103.373 436 110V122H325V110Z" fill="#FFB466"/>
<path d="M436 120C436 113.373 441.373 108 448 108H535C541.627 108 547 113.373 547 120V122H436V120Z" fill="#FF8200"/>
</svg>
