<svg width="205" height="94" viewBox="0 0 205 94" fill="none" xmlns="http://www.w3.org/2000/svg">
<path d="M88.11 69.3C87.1567 69.3 86.31 69.1067 85.57 68.72C84.83 68.3333 84.25 67.7967 83.83 67.11C83.41 66.4233 83.2 65.6367 83.2 64.75C83.2 63.9567 83.3833 63.22 83.75 62.54C84.1167 61.86 84.6533 61.3167 85.36 60.91L85.31 61.68C84.7567 61.26 84.3267 60.7767 84.02 60.23C83.72 59.6767 83.57 59.0567 83.57 58.37C83.57 57.5433 83.7633 56.8267 84.15 56.22C84.5433 55.6133 85.08 55.1433 85.76 54.81C86.44 54.47 87.2233 54.3 88.11 54.3C88.9967 54.3 89.78 54.47 90.46 54.81C91.1467 55.1433 91.6833 55.6133 92.07 56.22C92.4633 56.8267 92.66 57.5433 92.66 58.37C92.66 59.0567 92.5133 59.6733 92.22 60.22C91.9333 60.7667 91.4967 61.26 90.91 61.7L90.9 60.92C91.5933 61.3133 92.1233 61.8533 92.49 62.54C92.8633 63.22 93.05 63.9567 93.05 64.75C93.05 65.6367 92.8367 66.4233 92.41 67.11C91.99 67.7967 91.4067 68.3333 90.66 68.72C89.92 69.1067 89.07 69.3 88.11 69.3ZM88.11 67.03C88.8167 67.03 89.39 66.8367 89.83 66.45C90.2767 66.0633 90.5 65.4967 90.5 64.75C90.5 64.0033 90.28 63.4367 89.84 63.05C89.4 62.6567 88.8233 62.46 88.11 62.46C87.4033 62.46 86.8333 62.6567 86.4 63.05C85.9667 63.4367 85.75 64.0033 85.75 64.75C85.75 65.4967 85.9667 66.0633 86.4 66.45C86.8333 66.8367 87.4033 67.03 88.11 67.03ZM88.11 60.17C88.7033 60.17 89.1833 60.0233 89.55 59.73C89.9233 59.43 90.11 58.9767 90.11 58.37C90.11 57.7633 89.9233 57.3133 89.55 57.02C89.1833 56.72 88.7033 56.57 88.11 56.57C87.5233 56.57 87.0433 56.72 86.67 57.02C86.3033 57.3133 86.12 57.7633 86.12 58.37C86.12 58.9767 86.3033 59.43 86.67 59.73C87.0433 60.0233 87.5233 60.17 88.11 60.17ZM99.9161 69.3C99.1828 69.3 98.4994 69.15 97.8661 68.85C97.2328 68.5433 96.6861 68.1233 96.2261 67.59C95.7728 67.0567 95.4461 66.4367 95.2461 65.73L97.5661 65.11C97.6594 65.4967 97.8294 65.83 98.0761 66.11C98.3294 66.39 98.6228 66.6067 98.9561 66.76C99.2961 66.9133 99.6461 66.99 100.006 66.99C100.473 66.99 100.899 66.8767 101.286 66.65C101.673 66.4233 101.979 66.12 102.206 65.74C102.433 65.3533 102.546 64.9267 102.546 64.46C102.546 63.9933 102.429 63.57 102.196 63.19C101.969 62.8033 101.663 62.5 101.276 62.28C100.889 62.0533 100.466 61.94 100.006 61.94C99.4528 61.94 98.9928 62.04 98.6261 62.24C98.2661 62.44 97.9894 62.6533 97.7961 62.88L95.7361 62.22L96.1761 54.6H103.996V56.86H97.4661L98.3661 56.01L98.0461 61.31L97.6061 60.77C97.9794 60.43 98.4128 60.1767 98.9061 60.01C99.3994 59.8433 99.8761 59.76 100.336 59.76C101.236 59.76 102.033 59.9667 102.726 60.38C103.426 60.7867 103.973 61.3433 104.366 62.05C104.766 62.7567 104.966 63.56 104.966 64.46C104.966 65.36 104.733 66.1767 104.266 66.91C103.799 67.6367 103.183 68.2167 102.416 68.65C101.656 69.0833 100.823 69.3 99.9161 69.3ZM109.365 69L107.765 67.4L120.575 54.6L122.175 56.21L109.365 69ZM119.175 69.3C118.515 69.3 117.912 69.14 117.365 68.82C116.825 68.4933 116.392 68.06 116.065 67.52C115.738 66.9733 115.575 66.3667 115.575 65.7C115.575 65.0467 115.742 64.4467 116.075 63.9C116.408 63.3533 116.848 62.9167 117.395 62.59C117.942 62.2633 118.535 62.1 119.175 62.1C119.835 62.1 120.438 62.2633 120.985 62.59C121.532 62.91 121.965 63.3433 122.285 63.89C122.612 64.43 122.775 65.0333 122.775 65.7C122.775 66.3667 122.612 66.9733 122.285 67.52C121.965 68.06 121.532 68.4933 120.985 68.82C120.438 69.14 119.835 69.3 119.175 69.3ZM119.175 67.24C119.448 67.24 119.702 67.17 119.935 67.03C120.175 66.89 120.365 66.7033 120.505 66.47C120.645 66.2367 120.715 65.98 120.715 65.7C120.715 65.42 120.645 65.1633 120.505 64.93C120.365 64.6967 120.175 64.51 119.935 64.37C119.702 64.23 119.448 64.16 119.175 64.16C118.895 64.16 118.638 64.23 118.405 64.37C118.172 64.51 117.982 64.6967 117.835 64.93C117.695 65.1633 117.625 65.42 117.625 65.7C117.625 65.98 117.695 66.2367 117.835 66.47C117.982 66.7033 118.172 66.89 118.405 67.03C118.638 67.17 118.895 67.24 119.175 67.24ZM110.765 61.5C110.105 61.5 109.502 61.34 108.955 61.02C108.408 60.6933 107.972 60.26 107.645 59.72C107.325 59.1733 107.165 58.5667 107.165 57.9C107.165 57.2467 107.332 56.6467 107.665 56.1C107.998 55.5533 108.438 55.1167 108.985 54.79C109.532 54.4633 110.125 54.3 110.765 54.3C111.425 54.3 112.025 54.4633 112.565 54.79C113.112 55.11 113.548 55.5433 113.875 56.09C114.202 56.63 114.365 57.2333 114.365 57.9C114.365 58.5667 114.202 59.1733 113.875 59.72C113.548 60.26 113.112 60.6933 112.565 61.02C112.025 61.34 111.425 61.5 110.765 61.5ZM110.765 59.44C111.045 59.44 111.302 59.37 111.535 59.23C111.768 59.09 111.955 58.9033 112.095 58.67C112.235 58.4367 112.305 58.18 112.305 57.9C112.305 57.62 112.235 57.3633 112.095 57.13C111.955 56.8967 111.768 56.71 111.535 56.57C111.302 56.43 111.045 56.36 110.765 56.36C110.485 56.36 110.228 56.43 109.995 56.57C109.762 56.71 109.575 56.8967 109.435 57.13C109.295 57.3633 109.225 57.62 109.225 57.9C109.225 58.18 109.295 58.4367 109.435 58.67C109.575 58.9033 109.762 59.09 109.995 59.23C110.228 59.37 110.485 59.44 110.765 59.44Z" fill="#0E0D0B"/>
<path d="M49.95 86.665V84.815H48.1V83.975H49.95V82.135H50.79V83.975H52.635V84.815H50.79V86.665H49.95ZM56.2374 88.15C55.7674 88.15 55.3508 88.0567 54.9874 87.87C54.6274 87.68 54.3441 87.4167 54.1374 87.08C53.9341 86.7433 53.8324 86.3533 53.8324 85.91C53.8324 85.4967 53.9291 85.1183 54.1224 84.775C54.3158 84.4317 54.6041 84.1617 54.9874 83.965L54.9674 84.325C54.6608 84.135 54.4241 83.8983 54.2574 83.615C54.0941 83.3283 54.0124 83.0083 54.0124 82.655C54.0124 82.245 54.1074 81.89 54.2974 81.59C54.4874 81.29 54.7491 81.0583 55.0824 80.895C55.4191 80.7317 55.8041 80.65 56.2374 80.65C56.6708 80.65 57.0541 80.7317 57.3874 80.895C57.7208 81.0583 57.9824 81.29 58.1724 81.59C58.3624 81.89 58.4574 82.245 58.4574 82.655C58.4574 83.0083 58.3791 83.3267 58.2224 83.61C58.0658 83.8933 57.8258 84.1317 57.5024 84.325L57.4874 83.975C57.8674 84.1617 58.1558 84.4283 58.3524 84.775C58.5491 85.1183 58.6474 85.4967 58.6474 85.91C58.6474 86.3533 58.5441 86.7433 58.3374 87.08C58.1308 87.4167 57.8458 87.68 57.4824 87.87C57.1191 88.0567 56.7041 88.15 56.2374 88.15ZM56.2374 87.155C56.6241 87.155 56.9374 87.05 57.1774 86.84C57.4174 86.6267 57.5374 86.3167 57.5374 85.91C57.5374 85.5033 57.4174 85.1933 57.1774 84.98C56.9408 84.7633 56.6274 84.655 56.2374 84.655C55.8474 84.655 55.5324 84.7633 55.2924 84.98C55.0558 85.1933 54.9374 85.5033 54.9374 85.91C54.9374 86.3167 55.0574 86.6267 55.2974 86.84C55.5374 87.05 55.8508 87.155 56.2374 87.155ZM56.2374 83.655C56.5674 83.655 56.8341 83.5733 57.0374 83.41C57.2441 83.2433 57.3474 82.9917 57.3474 82.655C57.3474 82.3183 57.2441 82.0667 57.0374 81.9C56.8341 81.73 56.5674 81.645 56.2374 81.645C55.9074 81.645 55.6391 81.73 55.4324 81.9C55.2258 82.0667 55.1224 82.3183 55.1224 82.655C55.1224 82.9917 55.2258 83.2433 55.4324 83.41C55.6391 83.5733 55.9074 83.655 56.2374 83.655ZM60.128 88V86.895H61.233V88H60.128ZM65.3194 88.15C64.8294 88.15 64.396 88.0433 64.0194 87.83C63.6427 87.6133 63.346 87.3167 63.1294 86.94C62.916 86.5633 62.8094 86.13 62.8094 85.64V83.16C62.8094 82.67 62.916 82.2367 63.1294 81.86C63.346 81.4833 63.6427 81.1883 64.0194 80.975C64.396 80.7583 64.8294 80.65 65.3194 80.65C65.8094 80.65 66.2427 80.7583 66.6194 80.975C66.996 81.1883 67.291 81.4833 67.5044 81.86C67.721 82.2367 67.8294 82.67 67.8294 83.16V85.64C67.8294 86.13 67.721 86.5633 67.5044 86.94C67.291 87.3167 66.996 87.6133 66.6194 87.83C66.2427 88.0433 65.8094 88.15 65.3194 88.15ZM65.3194 87.15C65.586 87.15 65.8277 87.0867 66.0444 86.96C66.2644 86.83 66.4394 86.6567 66.5694 86.44C66.6994 86.22 66.7644 85.975 66.7644 85.705V83.085C66.7644 82.8183 66.6994 82.5767 66.5694 82.36C66.4394 82.14 66.2644 81.9667 66.0444 81.84C65.8277 81.71 65.586 81.645 65.3194 81.645C65.0527 81.645 64.8094 81.71 64.5894 81.84C64.3727 81.9667 64.1994 82.14 64.0694 82.36C63.9394 82.5767 63.8744 82.8183 63.8744 83.085V85.705C63.8744 85.975 63.9394 86.22 64.0694 86.44C64.1994 86.6567 64.3727 86.83 64.5894 86.96C64.8094 87.0867 65.0527 87.15 65.3194 87.15ZM69.0254 87.995L69.0304 87.065L72.1654 84.255C72.4187 84.0317 72.5904 83.8183 72.6804 83.615C72.7737 83.4117 72.8204 83.2083 72.8204 83.005C72.8204 82.7483 72.7637 82.5183 72.6504 82.315C72.5371 82.1083 72.3804 81.945 72.1804 81.825C71.9804 81.705 71.7504 81.645 71.4904 81.645C71.2237 81.645 70.9854 81.7083 70.7754 81.835C70.5687 81.9583 70.4071 82.1233 70.2904 82.33C70.1737 82.5367 70.1171 82.76 70.1204 83H69.0504C69.0504 82.5333 69.1554 82.125 69.3654 81.775C69.5787 81.4217 69.8704 81.1467 70.2404 80.95C70.6104 80.75 71.0337 80.65 71.5104 80.65C71.9637 80.65 72.3704 80.7533 72.7304 80.96C73.0904 81.1633 73.3737 81.4433 73.5804 81.8C73.7904 82.1567 73.8954 82.5633 73.8954 83.02C73.8954 83.35 73.8521 83.63 73.7654 83.86C73.6787 84.09 73.5487 84.3033 73.3754 84.5C73.2021 84.6967 72.9854 84.91 72.7254 85.14L70.3054 87.3L70.1904 87H73.8954V87.995H69.0254ZM75.9945 88L75.2945 87.3L81.7995 80.8L82.4995 81.505L75.9945 88ZM80.9995 88.15C80.6695 88.15 80.3679 88.07 80.0945 87.91C79.8245 87.7467 79.6079 87.53 79.4445 87.26C79.2812 86.9867 79.1995 86.6833 79.1995 86.35C79.1995 86.0233 79.2829 85.7233 79.4495 85.45C79.6162 85.1767 79.8362 84.9583 80.1095 84.795C80.3829 84.6317 80.6795 84.55 80.9995 84.55C81.3295 84.55 81.6312 84.6317 81.9045 84.795C82.1779 84.955 82.3945 85.1717 82.5545 85.445C82.7179 85.715 82.7995 86.0167 82.7995 86.35C82.7995 86.6833 82.7179 86.9867 82.5545 87.26C82.3945 87.53 82.1779 87.7467 81.9045 87.91C81.6312 88.07 81.3295 88.15 80.9995 88.15ZM80.9995 87.245C81.1629 87.245 81.3112 87.205 81.4445 87.125C81.5812 87.0417 81.6895 86.9317 81.7695 86.795C81.8529 86.6583 81.8945 86.51 81.8945 86.35C81.8945 86.19 81.8529 86.0417 81.7695 85.905C81.6895 85.7683 81.5812 85.66 81.4445 85.58C81.3112 85.4967 81.1629 85.455 80.9995 85.455C80.8395 85.455 80.6912 85.4967 80.5545 85.58C80.4212 85.66 80.3129 85.7683 80.2295 85.905C80.1495 86.0417 80.1095 86.19 80.1095 86.35C80.1095 86.51 80.1495 86.6583 80.2295 86.795C80.3129 86.9317 80.4212 87.0417 80.5545 87.125C80.6912 87.205 80.8395 87.245 80.9995 87.245ZM76.7945 84.25C76.4645 84.25 76.1629 84.17 75.8895 84.01C75.6162 83.8467 75.3979 83.63 75.2345 83.36C75.0745 83.0867 74.9945 82.7833 74.9945 82.45C74.9945 82.1233 75.0779 81.8233 75.2445 81.55C75.4112 81.2767 75.6312 81.0583 75.9045 80.895C76.1779 80.7317 76.4745 80.65 76.7945 80.65C77.1245 80.65 77.4245 80.7317 77.6945 80.895C77.9679 81.055 78.1862 81.2717 78.3495 81.545C78.5129 81.815 78.5945 82.1167 78.5945 82.45C78.5945 82.7833 78.5129 83.0867 78.3495 83.36C78.1862 83.63 77.9679 83.8467 77.6945 84.01C77.4245 84.17 77.1245 84.25 76.7945 84.25ZM76.7945 83.345C76.9545 83.345 77.1029 83.305 77.2395 83.225C77.3762 83.1417 77.4845 83.0317 77.5645 82.895C77.6479 82.7583 77.6895 82.61 77.6895 82.45C77.6895 82.29 77.6479 82.1417 77.5645 82.005C77.4845 81.8683 77.3762 81.76 77.2395 81.68C77.1029 81.5967 76.9545 81.555 76.7945 81.555C76.6345 81.555 76.4862 81.5967 76.3495 81.68C76.2162 81.76 76.1079 81.8683 76.0245 82.005C75.9412 82.1417 75.8995 82.29 75.8995 82.45C75.8995 82.61 75.9412 82.7583 76.0245 82.895C76.1079 83.0317 76.2162 83.1417 76.3495 83.225C76.4829 83.305 76.6312 83.345 76.7945 83.345Z" fill="#0FB271"/>
<path d="M86.735 88V82.2C86.735 82.06 86.7417 81.9217 86.755 81.785C86.7717 81.6483 86.8033 81.5183 86.85 81.395C86.8967 81.2683 86.97 81.1517 87.07 81.045C87.18 80.925 87.3 80.8383 87.43 80.785C87.56 80.7283 87.695 80.6917 87.835 80.675C87.9783 80.6583 88.1183 80.65 88.255 80.65H88.945V81.27H88.305C88.025 81.27 87.815 81.3383 87.675 81.475C87.5383 81.6117 87.47 81.8267 87.47 82.12V88H86.735ZM85.8 83.23V82.6H88.945V83.23H85.8ZM89.7449 88V82.6H90.4049V83.9L90.2749 83.73C90.3349 83.57 90.4133 83.4233 90.5099 83.29C90.6066 83.1533 90.7116 83.0417 90.8249 82.955C90.9649 82.8317 91.1283 82.7383 91.3149 82.675C91.5016 82.6083 91.6899 82.57 91.8799 82.56C92.0699 82.5467 92.2433 82.56 92.3999 82.6V83.29C92.2033 83.24 91.9883 83.2283 91.7549 83.255C91.5216 83.2817 91.3066 83.375 91.1099 83.535C90.9299 83.675 90.7949 83.8433 90.7049 84.04C90.6149 84.2333 90.5549 84.44 90.5249 84.66C90.4949 84.8767 90.4799 85.0917 90.4799 85.305V88H89.7449ZM95.5058 88.15C94.9691 88.15 94.5108 88.0283 94.1308 87.785C93.7508 87.5417 93.4591 87.205 93.2558 86.775C93.0524 86.345 92.9508 85.8517 92.9508 85.295C92.9508 84.7283 93.0541 84.2317 93.2608 83.805C93.4674 83.3783 93.7608 83.0467 94.1408 82.81C94.5241 82.57 94.9791 82.45 95.5058 82.45C96.0458 82.45 96.5058 82.5717 96.8858 82.815C97.2691 83.055 97.5608 83.39 97.7608 83.82C97.9641 84.2467 98.0658 84.7383 98.0658 85.295C98.0658 85.8617 97.9641 86.36 97.7608 86.79C97.5574 87.2167 97.2641 87.55 96.8808 87.79C96.4974 88.03 96.0391 88.15 95.5058 88.15ZM95.5058 87.445C96.1058 87.445 96.5524 87.2467 96.8458 86.85C97.1391 86.45 97.2858 85.9317 97.2858 85.295C97.2858 84.6417 97.1374 84.1217 96.8408 83.735C96.5474 83.3483 96.1024 83.155 95.5058 83.155C95.1024 83.155 94.7691 83.2467 94.5058 83.43C94.2458 83.61 94.0508 83.8617 93.9208 84.185C93.7941 84.505 93.7308 84.875 93.7308 85.295C93.7308 85.945 93.8808 86.4667 94.1808 86.86C94.4808 87.25 94.9224 87.445 95.5058 87.445ZM105.609 88L105.614 84.455C105.614 84.0383 105.497 83.7117 105.264 83.475C105.034 83.235 104.74 83.115 104.384 83.115C104.18 83.115 103.982 83.1617 103.789 83.255C103.595 83.3483 103.435 83.4983 103.309 83.705C103.185 83.9117 103.124 84.1817 103.124 84.515L102.689 84.39C102.679 84.0033 102.754 83.665 102.914 83.375C103.077 83.085 103.3 82.86 103.584 82.7C103.87 82.5367 104.194 82.455 104.554 82.455C105.097 82.455 105.532 82.6233 105.859 82.96C106.185 83.2933 106.349 83.745 106.349 84.315L106.344 88H105.609ZM99.1638 88V82.6H99.8238V83.93H99.9038V88H99.1638ZM102.394 88L102.399 84.505C102.399 84.075 102.284 83.7367 102.054 83.49C101.827 83.24 101.527 83.115 101.154 83.115C100.78 83.115 100.479 83.2433 100.249 83.5C100.019 83.7533 99.9038 84.0917 99.9038 84.515L99.4638 84.275C99.4638 83.9283 99.5454 83.6183 99.7088 83.345C99.8721 83.0683 100.095 82.8517 100.379 82.695C100.662 82.535 100.984 82.455 101.344 82.455C101.687 82.455 101.992 82.5283 102.259 82.675C102.529 82.8217 102.74 83.035 102.894 83.315C103.047 83.595 103.124 83.935 103.124 84.335L103.119 88H102.394ZM109.747 88V80.65H110.482V88H109.747ZM113.526 88.15C113.12 88.15 112.778 88.0767 112.501 87.93C112.228 87.7833 112.023 87.5883 111.886 87.345C111.75 87.1017 111.681 86.8367 111.681 86.55C111.681 86.2567 111.74 86.0067 111.856 85.8C111.976 85.59 112.138 85.4183 112.341 85.285C112.548 85.1517 112.786 85.05 113.056 84.98C113.33 84.9133 113.631 84.855 113.961 84.805C114.295 84.7517 114.62 84.7067 114.936 84.67C115.256 84.63 115.536 84.5917 115.776 84.555L115.516 84.715C115.526 84.1817 115.423 83.7867 115.206 83.53C114.99 83.2733 114.613 83.145 114.076 83.145C113.706 83.145 113.393 83.2283 113.136 83.395C112.883 83.5617 112.705 83.825 112.601 84.185L111.886 83.975C112.01 83.4917 112.258 83.1167 112.631 82.85C113.005 82.5833 113.49 82.45 114.086 82.45C114.58 82.45 114.998 82.5433 115.341 82.73C115.688 82.9133 115.933 83.18 116.076 83.53C116.143 83.6867 116.186 83.8617 116.206 84.055C116.226 84.2483 116.236 84.445 116.236 84.645V88H115.581V86.645L115.771 86.725C115.588 87.1883 115.303 87.5417 114.916 87.785C114.53 88.0283 114.066 88.15 113.526 88.15ZM113.611 87.515C113.955 87.515 114.255 87.4533 114.511 87.33C114.768 87.2067 114.975 87.0383 115.131 86.825C115.288 86.6083 115.39 86.365 115.436 86.095C115.476 85.9217 115.498 85.7317 115.501 85.525C115.505 85.315 115.506 85.1583 115.506 85.055L115.786 85.2C115.536 85.2333 115.265 85.2667 114.971 85.3C114.681 85.3333 114.395 85.3717 114.111 85.415C113.831 85.4583 113.578 85.51 113.351 85.57C113.198 85.6133 113.05 85.675 112.906 85.755C112.763 85.8317 112.645 85.935 112.551 86.065C112.461 86.195 112.416 86.3567 112.416 86.55C112.416 86.7067 112.455 86.8583 112.531 87.005C112.611 87.1517 112.738 87.2733 112.911 87.37C113.088 87.4667 113.321 87.515 113.611 87.515ZM119.553 88.145C118.92 88.145 118.398 88.0083 117.988 87.735C117.581 87.4617 117.331 87.0817 117.238 86.595L117.988 86.47C118.068 86.7767 118.25 87.0217 118.533 87.205C118.82 87.385 119.173 87.475 119.593 87.475C120.003 87.475 120.326 87.39 120.563 87.22C120.8 87.0467 120.918 86.8117 120.918 86.515C120.918 86.3483 120.88 86.2133 120.803 86.11C120.73 86.0033 120.578 85.905 120.348 85.815C120.118 85.725 119.775 85.6183 119.318 85.495C118.828 85.3617 118.445 85.2283 118.168 85.095C117.891 84.9617 117.695 84.8083 117.578 84.635C117.461 84.4583 117.403 84.2433 117.403 83.99C117.403 83.6833 117.49 83.415 117.663 83.185C117.836 82.9517 118.076 82.7717 118.383 82.645C118.69 82.515 119.046 82.45 119.453 82.45C119.86 82.45 120.223 82.5167 120.543 82.65C120.866 82.78 121.126 82.9633 121.323 83.2C121.52 83.4367 121.636 83.7117 121.673 84.025L120.923 84.16C120.873 83.8433 120.715 83.5933 120.448 83.41C120.185 83.2233 119.85 83.1267 119.443 83.12C119.06 83.11 118.748 83.1833 118.508 83.34C118.268 83.4933 118.148 83.6983 118.148 83.955C118.148 84.0983 118.191 84.2217 118.278 84.325C118.365 84.425 118.521 84.52 118.748 84.61C118.978 84.7 119.305 84.7983 119.728 84.905C120.225 85.0317 120.615 85.165 120.898 85.305C121.181 85.445 121.383 85.61 121.503 85.8C121.623 85.99 121.683 86.225 121.683 86.505C121.683 87.015 121.493 87.4167 121.113 87.71C120.736 88 120.216 88.145 119.553 88.145ZM125.732 88C125.428 88.0633 125.128 88.0883 124.832 88.075C124.538 88.0617 124.275 87.9983 124.042 87.885C123.812 87.7717 123.637 87.595 123.517 87.355C123.42 87.155 123.367 86.9533 123.357 86.75C123.35 86.5433 123.347 86.3083 123.347 86.045V81.1H124.077V86.015C124.077 86.2417 124.078 86.4317 124.082 86.585C124.088 86.735 124.123 86.8683 124.187 86.985C124.307 87.2083 124.497 87.3417 124.757 87.385C125.02 87.4283 125.345 87.4183 125.732 87.355V88ZM122.192 83.23V82.6H125.732V83.23H122.192ZM135.238 88L135.243 84.455C135.243 84.0383 135.126 83.7117 134.893 83.475C134.663 83.235 134.369 83.115 134.013 83.115C133.809 83.115 133.611 83.1617 133.418 83.255C133.224 83.3483 133.064 83.4983 132.938 83.705C132.814 83.9117 132.753 84.1817 132.753 84.515L132.318 84.39C132.308 84.0033 132.383 83.665 132.543 83.375C132.706 83.085 132.929 82.86 133.213 82.7C133.499 82.5367 133.823 82.455 134.183 82.455C134.726 82.455 135.161 82.6233 135.488 82.96C135.814 83.2933 135.978 83.745 135.978 84.315L135.973 88H135.238ZM128.793 88V82.6H129.453V83.93H129.533V88H128.793ZM132.023 88L132.028 84.505C132.028 84.075 131.913 83.7367 131.683 83.49C131.456 83.24 131.156 83.115 130.783 83.115C130.409 83.115 130.108 83.2433 129.878 83.5C129.648 83.7533 129.533 84.0917 129.533 84.515L129.093 84.275C129.093 83.9283 129.174 83.6183 129.338 83.345C129.501 83.0683 129.724 82.8517 130.008 82.695C130.291 82.535 130.613 82.455 130.973 82.455C131.316 82.455 131.621 82.5283 131.888 82.675C132.158 82.8217 132.369 83.035 132.523 83.315C132.676 83.595 132.753 83.935 132.753 84.335L132.748 88H132.023ZM139.5 88.15C138.963 88.15 138.505 88.0283 138.125 87.785C137.745 87.5417 137.453 87.205 137.25 86.775C137.047 86.345 136.945 85.8517 136.945 85.295C136.945 84.7283 137.048 84.2317 137.255 83.805C137.462 83.3783 137.755 83.0467 138.135 82.81C138.518 82.57 138.973 82.45 139.5 82.45C140.04 82.45 140.5 82.5717 140.88 82.815C141.263 83.055 141.555 83.39 141.755 83.82C141.958 84.2467 142.06 84.7383 142.06 85.295C142.06 85.8617 141.958 86.36 141.755 86.79C141.552 87.2167 141.258 87.55 140.875 87.79C140.492 88.03 140.033 88.15 139.5 88.15ZM139.5 87.445C140.1 87.445 140.547 87.2467 140.84 86.85C141.133 86.45 141.28 85.9317 141.28 85.295C141.28 84.6417 141.132 84.1217 140.835 83.735C140.542 83.3483 140.097 83.155 139.5 83.155C139.097 83.155 138.763 83.2467 138.5 83.43C138.24 83.61 138.045 83.8617 137.915 84.185C137.788 84.505 137.725 84.875 137.725 85.295C137.725 85.945 137.875 86.4667 138.175 86.86C138.475 87.25 138.917 87.445 139.5 87.445ZM147.063 88V85.245C147.063 84.945 147.035 84.67 146.978 84.42C146.921 84.1667 146.83 83.9467 146.703 83.76C146.58 83.57 146.418 83.4233 146.218 83.32C146.021 83.2167 145.781 83.165 145.498 83.165C145.238 83.165 145.008 83.21 144.808 83.3C144.611 83.39 144.445 83.52 144.308 83.69C144.175 83.8567 144.073 84.06 144.003 84.3C143.933 84.54 143.898 84.8133 143.898 85.12L143.378 85.005C143.378 84.4517 143.475 83.9867 143.668 83.61C143.861 83.2333 144.128 82.9483 144.468 82.755C144.808 82.5617 145.198 82.465 145.638 82.465C145.961 82.465 146.243 82.515 146.483 82.615C146.726 82.715 146.931 82.85 147.098 83.02C147.268 83.19 147.405 83.385 147.508 83.605C147.611 83.8217 147.686 84.0533 147.733 84.3C147.78 84.5433 147.803 84.7867 147.803 85.03V88H147.063ZM143.158 88V82.6H143.823V83.93H143.898V88H143.158ZM152.04 88C151.737 88.0633 151.437 88.0883 151.14 88.075C150.847 88.0617 150.584 87.9983 150.35 87.885C150.12 87.7717 149.945 87.595 149.825 87.355C149.729 87.155 149.675 86.9533 149.665 86.75C149.659 86.5433 149.655 86.3083 149.655 86.045V81.1H150.385V86.015C150.385 86.2417 150.387 86.4317 150.39 86.585C150.397 86.735 150.432 86.8683 150.495 86.985C150.615 87.2083 150.805 87.3417 151.065 87.385C151.329 87.4283 151.654 87.4183 152.04 87.355V88ZM148.5 83.23V82.6H152.04V83.23H148.5ZM157.004 88V85.245C157.004 84.945 156.976 84.67 156.919 84.42C156.863 84.1667 156.771 83.9467 156.644 83.76C156.521 83.57 156.359 83.4233 156.159 83.32C155.963 83.2167 155.723 83.165 155.439 83.165C155.179 83.165 154.949 83.21 154.749 83.3C154.553 83.39 154.386 83.52 154.249 83.69C154.116 83.8567 154.014 84.06 153.944 84.3C153.874 84.54 153.839 84.8133 153.839 85.12L153.319 85.005C153.319 84.4517 153.416 83.9867 153.609 83.61C153.803 83.2333 154.069 82.9483 154.409 82.755C154.749 82.5617 155.139 82.465 155.579 82.465C155.903 82.465 156.184 82.515 156.424 82.615C156.668 82.715 156.873 82.85 157.039 83.02C157.209 83.19 157.346 83.385 157.449 83.605C157.553 83.8217 157.628 84.0533 157.674 84.3C157.721 84.5433 157.744 84.7867 157.744 85.03V88H157.004ZM153.099 88V80.8H153.764V84.865H153.839V88H153.099Z" fill="#6B6B6A"/>
<path d="M13.5 94C11.2909 94 9.49102 92.2082 9.58601 90.0011C10.0529 79.1535 12.4163 68.4606 16.5792 58.4104C21.2529 47.1272 28.1032 36.8749 36.7391 28.2391C45.3749 19.6032 55.6272 12.7529 66.9104 8.0792C78.1937 3.40551 90.2871 0.999998 102.5 1C114.713 1 126.806 3.40552 138.09 8.07921C149.373 12.7529 159.625 19.6032 168.261 28.2391C176.897 36.8749 183.747 47.1272 188.421 58.4105C192.584 68.4606 194.947 79.1535 195.414 90.0012C195.509 92.2083 193.709 94 191.5 94H175.32C173.111 94 171.332 92.2076 171.204 90.0022C170.757 82.3315 169.029 74.7799 166.081 67.6637C162.623 59.3141 157.554 51.7274 151.163 45.3369C144.773 38.9464 137.186 33.8771 128.836 30.4186C120.487 26.9601 111.538 25.18 102.5 25.18C93.4624 25.18 84.5134 26.9601 76.1637 30.4186C67.8141 33.8771 60.2274 38.9464 53.8369 45.3369C47.4464 51.7274 42.3771 59.3141 38.9186 67.6637C35.971 74.7799 34.2426 82.3315 33.7962 90.0022C33.6679 92.2076 31.8891 94 29.68 94H13.5Z" fill="#FFE1C2"/>
<mask id="mask0_29_681" style="mask-type:alpha" maskUnits="userSpaceOnUse" x="9" y="0" width="187" height="94">
<path d="M13.0895 94C10.8803 94 9.08054 92.2082 9.17511 90.0011C9.64222 79.0996 12.0164 68.3533 16.1999 58.2533C20.8943 46.9202 27.7748 36.6227 36.4488 27.9488C45.1228 19.2748 55.4203 12.3942 66.7534 7.69993C78.0864 3.00561 90.2332 0.589476 102.5 0.589478C114.767 0.589479 126.914 3.00562 138.247 7.69994C149.58 12.3943 159.877 19.2748 168.551 27.9488C177.225 36.6228 184.106 46.9203 188.8 58.2534C192.984 68.3534 195.358 79.0996 195.825 90.0012C195.919 92.2083 194.12 94 191.911 94H175.624C173.415 94 171.636 92.2076 171.508 90.0022C171.061 82.2916 169.325 74.7005 166.362 67.5475C162.888 59.161 157.797 51.5409 151.378 45.1221C144.959 38.7034 137.339 33.6117 128.953 30.138C120.566 26.6642 111.577 24.8762 102.5 24.8762C93.4226 24.8762 84.434 26.6642 76.0475 30.1379C67.661 33.6117 60.0408 38.7034 53.6221 45.1221C47.2034 51.5408 42.1117 59.161 38.638 67.5475C35.6751 74.7005 33.9386 82.2915 33.4919 90.0022C33.3641 92.2076 31.5854 94 29.3762 94H13.0895Z" fill="#FFEBD6"/>
</mask>
<g mask="url(#mask0_29_681)">
<path d="M9.08948 94C9.08948 73.7719 15.6557 54.0905 27.8011 37.9144C39.9464 21.7384 57.0145 9.9419 76.4393 4.29846C95.8642 -1.34498 116.596 -0.530417 135.518 6.6197C154.441 13.7698 170.53 26.8691 181.369 43.9482L160.863 56.9617C152.843 44.3231 140.936 34.6297 126.934 29.3386C112.931 24.0475 97.5895 23.4447 83.2151 27.6209C68.8407 31.797 56.2103 40.5264 47.2228 52.4967C38.2352 64.467 33.3762 79.0312 33.3762 94H9.08948Z" fill="#FF8200"/>
</g>
<path d="M186.367 39.5361C186.595 39.8874 186.821 40.2402 187.045 40.5943L154.918 60.8885C154.779 60.6689 154.639 60.4502 154.498 60.2324L186.367 39.5361Z" fill="#FF8200"/>
</svg>
