<svg width="248" height="164" viewBox="0 0 248 164" fill="none" xmlns="http://www.w3.org/2000/svg">
<path d="M4.212 13.18C3.552 13.18 2.968 13.044 2.46 12.772C1.956 12.5 1.56 12.116 1.272 11.62C0.984 11.124 0.84 10.544 0.84 9.88V4.366L1.728 4.36V9.766C1.728 10.214 1.804 10.602 1.956 10.93C2.108 11.254 2.306 11.522 2.55 11.734C2.798 11.942 3.068 12.096 3.36 12.196C3.652 12.296 3.936 12.346 4.212 12.346C4.492 12.346 4.778 12.296 5.07 12.196C5.362 12.096 5.63 11.942 5.874 11.734C6.118 11.522 6.316 11.254 6.468 10.93C6.62 10.602 6.696 10.214 6.696 9.766V4.36H7.584V9.88C7.584 10.544 7.44 11.124 7.152 11.62C6.864 12.112 6.466 12.496 5.958 12.772C5.454 13.044 4.872 13.18 4.212 13.18ZM13.9458 13V9.694C13.9458 9.334 13.9118 9.004 13.8438 8.704C13.7758 8.4 13.6658 8.136 13.5138 7.912C13.3658 7.684 13.1718 7.508 12.9318 7.384C12.6958 7.26 12.4078 7.198 12.0678 7.198C11.7558 7.198 11.4798 7.252 11.2398 7.36C11.0038 7.468 10.8038 7.624 10.6398 7.828C10.4798 8.028 10.3578 8.272 10.2738 8.56C10.1898 8.848 10.1478 9.176 10.1478 9.544L9.52378 9.406C9.52378 8.742 9.63978 8.184 9.87178 7.732C10.1038 7.28 10.4238 6.938 10.8318 6.706C11.2398 6.474 11.7078 6.358 12.2358 6.358C12.6238 6.358 12.9618 6.418 13.2498 6.538C13.5418 6.658 13.7878 6.82 13.9878 7.024C14.1918 7.228 14.3558 7.462 14.4798 7.726C14.6038 7.986 14.6938 8.264 14.7498 8.56C14.8058 8.852 14.8338 9.144 14.8338 9.436V13H13.9458ZM9.25978 13V6.52H10.0578V8.116H10.1478V13H9.25978ZM16.5108 5.29V4.3H17.3928V5.29H16.5108ZM16.5108 13V6.52H17.3928V13H16.5108ZM22.7196 13C22.3556 13.076 21.9956 13.106 21.6396 13.09C21.2876 13.074 20.9716 12.998 20.6916 12.862C20.4156 12.726 20.2056 12.514 20.0616 12.226C19.9456 11.986 19.8816 11.744 19.8696 11.5C19.8616 11.252 19.8576 10.97 19.8576 10.654V4.72H20.7336V10.618C20.7336 10.89 20.7356 11.118 20.7396 11.302C20.7476 11.482 20.7896 11.642 20.8656 11.782C21.0096 12.05 21.2376 12.21 21.5496 12.262C21.8656 12.314 22.2556 12.302 22.7196 12.226V13ZM18.4716 7.276V6.52H22.7196V7.276H18.4716ZM26.5039 13.18C25.8719 13.18 25.3239 13.04 24.8599 12.76C24.3999 12.48 24.0419 12.086 23.7859 11.578C23.5299 11.07 23.4019 10.474 23.4019 9.79C23.4019 9.082 23.5279 8.47 23.7799 7.954C24.0319 7.438 24.3859 7.04 24.8419 6.76C25.3019 6.48 25.8439 6.34 26.4679 6.34C27.1079 6.34 27.6539 6.488 28.1059 6.784C28.5579 7.076 28.8999 7.496 29.1319 8.044C29.3639 8.592 29.4699 9.246 29.4499 10.006H28.5499V9.694C28.5339 8.854 28.3519 8.22 28.0039 7.792C27.6599 7.364 27.1559 7.15 26.4919 7.15C25.7959 7.15 25.2619 7.376 24.8899 7.828C24.5219 8.28 24.3379 8.924 24.3379 9.76C24.3379 10.576 24.5219 11.21 24.8899 11.662C25.2619 12.11 25.7879 12.334 26.4679 12.334C26.9319 12.334 27.3359 12.228 27.6799 12.016C28.0279 11.8 28.3019 11.49 28.5019 11.086L29.3239 11.404C29.0679 11.968 28.6899 12.406 28.1899 12.718C27.6939 13.026 27.1319 13.18 26.5039 13.18ZM24.0259 10.006V9.268H28.9759V10.006H24.0259ZM33.2954 13.18C32.6914 13.18 32.1754 13.03 31.7474 12.73C31.3194 12.426 30.9914 12.016 30.7634 11.5C30.5354 10.984 30.4214 10.402 30.4214 9.754C30.4214 9.11 30.5334 8.53 30.7574 8.014C30.9854 7.498 31.3114 7.09 31.7354 6.79C32.1594 6.49 32.6674 6.34 33.2594 6.34C33.8674 6.34 34.3794 6.488 34.7954 6.784C35.2114 7.08 35.5254 7.486 35.7374 8.002C35.9534 8.514 36.0614 9.098 36.0614 9.754C36.0614 10.398 35.9554 10.98 35.7434 11.5C35.5314 12.016 35.2194 12.426 34.8074 12.73C34.3954 13.03 33.8914 13.18 33.2954 13.18ZM33.3854 12.358C33.8454 12.358 34.2254 12.246 34.5254 12.022C34.8254 11.798 35.0494 11.49 35.1974 11.098C35.3454 10.702 35.4194 10.254 35.4194 9.754C35.4194 9.246 35.3454 8.798 35.1974 8.41C35.0494 8.018 34.8254 7.712 34.5254 7.492C34.2294 7.272 33.8554 7.162 33.4034 7.162C32.9394 7.162 32.5554 7.276 32.2514 7.504C31.9474 7.732 31.7214 8.042 31.5734 8.434C31.4294 8.826 31.3574 9.266 31.3574 9.754C31.3574 10.246 31.4314 10.69 31.5794 11.086C31.7314 11.478 31.9574 11.788 32.2574 12.016C32.5574 12.244 32.9334 12.358 33.3854 12.358ZM35.4194 13V8.122H35.3234V4.36H36.2114V13H35.4194ZM43.297 13.18C42.693 13.18 42.149 13.08 41.665 12.88C41.185 12.676 40.787 12.388 40.471 12.016C40.159 11.644 39.955 11.202 39.859 10.69L40.759 10.54C40.903 11.1 41.207 11.54 41.671 11.86C42.135 12.176 42.689 12.334 43.333 12.334C43.757 12.334 44.137 12.268 44.473 12.136C44.809 12 45.073 11.808 45.265 11.56C45.457 11.312 45.553 11.018 45.553 10.678C45.553 10.454 45.513 10.264 45.433 10.108C45.353 9.948 45.247 9.816 45.115 9.712C44.983 9.608 44.839 9.522 44.683 9.454C44.527 9.382 44.375 9.324 44.227 9.28L42.037 8.626C41.773 8.55 41.529 8.454 41.305 8.338C41.081 8.218 40.885 8.076 40.717 7.912C40.553 7.744 40.425 7.548 40.333 7.324C40.241 7.1 40.195 6.844 40.195 6.556C40.195 6.068 40.323 5.646 40.579 5.29C40.835 4.934 41.185 4.66 41.629 4.468C42.073 4.276 42.579 4.182 43.147 4.186C43.723 4.186 44.237 4.288 44.689 4.492C45.145 4.696 45.521 4.988 45.817 5.368C46.113 5.744 46.309 6.19 46.405 6.706L45.481 6.874C45.421 6.498 45.283 6.172 45.067 5.896C44.851 5.62 44.575 5.408 44.239 5.26C43.907 5.108 43.541 5.03 43.141 5.026C42.753 5.026 42.407 5.092 42.103 5.224C41.803 5.352 41.565 5.528 41.389 5.752C41.213 5.976 41.125 6.232 41.125 6.52C41.125 6.812 41.205 7.046 41.365 7.222C41.529 7.398 41.729 7.536 41.965 7.636C42.205 7.736 42.437 7.818 42.661 7.882L44.353 8.38C44.529 8.428 44.735 8.498 44.971 8.59C45.211 8.678 45.443 8.806 45.667 8.974C45.895 9.138 46.083 9.354 46.231 9.622C46.379 9.89 46.453 10.23 46.453 10.642C46.453 11.042 46.373 11.4 46.213 11.716C46.057 12.032 45.835 12.298 45.547 12.514C45.263 12.73 44.929 12.894 44.545 13.006C44.165 13.122 43.749 13.18 43.297 13.18ZM51.2196 13C50.8556 13.076 50.4956 13.106 50.1396 13.09C49.7876 13.074 49.4716 12.998 49.1916 12.862C48.9156 12.726 48.7056 12.514 48.5616 12.226C48.4456 11.986 48.3816 11.744 48.3696 11.5C48.3616 11.252 48.3576 10.97 48.3576 10.654V4.72H49.2336V10.618C49.2336 10.89 49.2356 11.118 49.2396 11.302C49.2476 11.482 49.2896 11.642 49.3656 11.782C49.5096 12.05 49.7376 12.21 50.0496 12.262C50.3656 12.314 50.7556 12.302 51.2196 12.226V13ZM46.9716 7.276V6.52H51.2196V7.276H46.9716ZM54.3503 13.18C53.8623 13.18 53.4523 13.092 53.1203 12.916C52.7923 12.74 52.5463 12.506 52.3823 12.214C52.2183 11.922 52.1363 11.604 52.1363 11.26C52.1363 10.908 52.2063 10.608 52.3463 10.36C52.4903 10.108 52.6843 9.902 52.9283 9.742C53.1763 9.582 53.4623 9.46 53.7863 9.376C54.1143 9.296 54.4763 9.226 54.8723 9.166C55.2723 9.102 55.6623 9.048 56.0423 9.004C56.4263 8.956 56.7623 8.91 57.0503 8.866L56.7383 9.058C56.7503 8.418 56.6263 7.944 56.3663 7.636C56.1063 7.328 55.6543 7.174 55.0103 7.174C54.5663 7.174 54.1903 7.274 53.8823 7.474C53.5783 7.674 53.3643 7.99 53.2402 8.422L52.3823 8.17C52.5303 7.59 52.8283 7.14 53.2763 6.82C53.7243 6.5 54.3063 6.34 55.0223 6.34C55.6143 6.34 56.1163 6.452 56.5283 6.676C56.9443 6.896 57.2383 7.216 57.4103 7.636C57.4903 7.824 57.5423 8.034 57.5663 8.266C57.5903 8.498 57.6023 8.734 57.6023 8.974V13H56.8163V11.374L57.0443 11.47C56.8243 12.026 56.4823 12.45 56.0183 12.742C55.5543 13.034 54.9983 13.18 54.3503 13.18ZM54.4523 12.418C54.8643 12.418 55.2243 12.344 55.5323 12.196C55.8403 12.048 56.0883 11.846 56.2763 11.59C56.4643 11.33 56.5863 11.038 56.6423 10.714C56.6903 10.506 56.7163 10.278 56.7203 10.03C56.7243 9.778 56.7263 9.59 56.7263 9.466L57.0623 9.64C56.7623 9.68 56.4363 9.72 56.0843 9.76C55.7363 9.8 55.3923 9.846 55.0523 9.898C54.7163 9.95 54.4123 10.012 54.1403 10.084C53.9563 10.136 53.7783 10.21 53.6063 10.306C53.4343 10.398 53.2923 10.522 53.1803 10.678C53.0723 10.834 53.0183 11.028 53.0183 11.26C53.0183 11.448 53.0643 11.63 53.1562 11.806C53.2523 11.982 53.4043 12.128 53.6123 12.244C53.8243 12.36 54.1043 12.418 54.4523 12.418ZM62.6922 13C62.3282 13.076 61.9682 13.106 61.6122 13.09C61.2602 13.074 60.9442 12.998 60.6642 12.862C60.3882 12.726 60.1782 12.514 60.0342 12.226C59.9182 11.986 59.8542 11.744 59.8422 11.5C59.8342 11.252 59.8302 10.97 59.8302 10.654V4.72H60.7062V10.618C60.7062 10.89 60.7082 11.118 60.7122 11.302C60.7202 11.482 60.7622 11.642 60.8382 11.782C60.9822 12.05 61.2102 12.21 61.5222 12.262C61.8382 12.314 62.2282 12.302 62.6922 12.226V13ZM58.4442 7.276V6.52H62.6922V7.276H58.4442ZM66.4765 13.18C65.8445 13.18 65.2965 13.04 64.8325 12.76C64.3725 12.48 64.0145 12.086 63.7585 11.578C63.5025 11.07 63.3745 10.474 63.3745 9.79C63.3745 9.082 63.5005 8.47 63.7525 7.954C64.0045 7.438 64.3585 7.04 64.8145 6.76C65.2745 6.48 65.8165 6.34 66.4405 6.34C67.0805 6.34 67.6265 6.488 68.0785 6.784C68.5305 7.076 68.8725 7.496 69.1045 8.044C69.3365 8.592 69.4425 9.246 69.4225 10.006H68.5225V9.694C68.5065 8.854 68.3245 8.22 67.9765 7.792C67.6325 7.364 67.1285 7.15 66.4645 7.15C65.7685 7.15 65.2345 7.376 64.8625 7.828C64.4945 8.28 64.3105 8.924 64.3105 9.76C64.3105 10.576 64.4945 11.21 64.8625 11.662C65.2345 12.11 65.7605 12.334 66.4405 12.334C66.9045 12.334 67.3085 12.228 67.6525 12.016C68.0005 11.8 68.2745 11.49 68.4745 11.086L69.2965 11.404C69.0405 11.968 68.6625 12.406 68.1625 12.718C67.6665 13.026 67.1045 13.18 66.4765 13.18ZM63.9985 10.006V9.268H68.9485V10.006H63.9985ZM73.1721 13.174C72.4121 13.174 71.7861 13.01 71.2941 12.682C70.8061 12.354 70.5061 11.898 70.3941 11.314L71.2941 11.164C71.3901 11.532 71.6081 11.826 71.9481 12.046C72.2921 12.262 72.7161 12.37 73.2201 12.37C73.7121 12.37 74.1001 12.268 74.3841 12.064C74.6681 11.856 74.8101 11.574 74.8101 11.218C74.8101 11.018 74.7641 10.856 74.6721 10.732C74.5841 10.604 74.4021 10.486 74.1261 10.378C73.8501 10.27 73.4381 10.142 72.8901 9.994C72.3021 9.834 71.8421 9.674 71.5101 9.514C71.1781 9.354 70.9421 9.17 70.8021 8.962C70.6621 8.75 70.5921 8.492 70.5921 8.188C70.5921 7.82 70.6961 7.498 70.9041 7.222C71.1121 6.942 71.4001 6.726 71.7681 6.574C72.1361 6.418 72.5641 6.34 73.0521 6.34C73.5401 6.34 73.9761 6.42 74.3601 6.58C74.7481 6.736 75.0601 6.956 75.2961 7.24C75.5321 7.524 75.6721 7.854 75.7161 8.23L74.8161 8.392C74.7561 8.012 74.5661 7.712 74.2461 7.492C73.9301 7.268 73.5281 7.152 73.0401 7.144C72.5801 7.132 72.2061 7.22 71.9181 7.408C71.6301 7.592 71.4861 7.838 71.4861 8.146C71.4861 8.318 71.5381 8.466 71.6421 8.59C71.7461 8.71 71.9341 8.824 72.2061 8.932C72.4821 9.04 72.8741 9.158 73.3821 9.286C73.9781 9.438 74.4461 9.598 74.7861 9.766C75.1261 9.934 75.3681 10.132 75.5121 10.36C75.6561 10.588 75.7281 10.87 75.7281 11.206C75.7281 11.818 75.5001 12.3 75.0441 12.652C74.5921 13 73.9681 13.174 73.1721 13.174Z" fill="#6B6B6A"/>
<path d="M225.258 13.162C224.83 13.162 224.428 13.082 224.052 12.922C223.676 12.758 223.35 12.526 223.074 12.226C222.802 11.926 222.604 11.572 222.48 11.164L223.692 10.828C223.808 11.2 224.01 11.486 224.298 11.686C224.586 11.882 224.906 11.978 225.258 11.974C225.574 11.97 225.852 11.896 226.092 11.752C226.332 11.608 226.52 11.414 226.656 11.17C226.792 10.922 226.86 10.638 226.86 10.318C226.86 9.838 226.71 9.442 226.41 9.13C226.114 8.818 225.726 8.662 225.246 8.662C225.11 8.662 224.97 8.682 224.826 8.722C224.686 8.762 224.554 8.814 224.43 8.878L223.842 7.888L226.89 5.194L227.022 5.554H222.822V4.36H228.018V5.554L225.486 7.99L225.474 7.582C226.018 7.582 226.49 7.704 226.89 7.948C227.29 8.188 227.598 8.516 227.814 8.932C228.034 9.344 228.144 9.806 228.144 10.318C228.144 10.87 228.014 11.36 227.754 11.788C227.498 12.216 227.152 12.552 226.716 12.796C226.284 13.04 225.798 13.162 225.258 13.162ZM232.677 13.18C232.117 13.18 231.613 13.048 231.165 12.784C230.717 12.516 230.361 12.15 230.097 11.686C229.837 11.222 229.707 10.694 229.707 10.102V7.348C229.707 6.72 229.837 6.168 230.097 5.692C230.361 5.216 230.725 4.846 231.189 4.582C231.657 4.318 232.195 4.186 232.803 4.186C233.259 4.186 233.687 4.272 234.087 4.444C234.487 4.616 234.833 4.872 235.125 5.212L234.207 6.07C234.043 5.858 233.837 5.69 233.589 5.566C233.345 5.438 233.083 5.374 232.803 5.374C232.443 5.374 232.127 5.46 231.855 5.632C231.583 5.8 231.369 6.022 231.213 6.298C231.061 6.574 230.985 6.87 230.985 7.186V8.77L230.739 8.494C230.987 8.17 231.295 7.914 231.663 7.726C232.031 7.538 232.425 7.444 232.845 7.444C233.381 7.444 233.859 7.57 234.279 7.822C234.703 8.07 235.035 8.408 235.275 8.836C235.519 9.264 235.641 9.746 235.641 10.282C235.641 10.822 235.505 11.312 235.233 11.752C234.965 12.188 234.605 12.536 234.153 12.796C233.705 13.052 233.213 13.18 232.677 13.18ZM232.677 11.974C232.989 11.974 233.273 11.898 233.529 11.746C233.785 11.594 233.989 11.39 234.141 11.134C234.293 10.878 234.369 10.594 234.369 10.282C234.369 9.97 234.293 9.686 234.141 9.43C233.993 9.174 233.791 8.97 233.535 8.818C233.279 8.666 232.995 8.59 232.683 8.59C232.371 8.59 232.085 8.666 231.825 8.818C231.569 8.97 231.365 9.174 231.213 9.43C231.061 9.686 230.985 9.97 230.985 10.282C230.985 10.59 231.061 10.872 231.213 11.128C231.365 11.384 231.569 11.59 231.825 11.746C232.081 11.898 232.365 11.974 232.677 11.974ZM238.24 13L237.4 12.16L245.206 4.36L246.046 5.206L238.24 13ZM244.246 13.18C243.85 13.18 243.488 13.084 243.16 12.892C242.836 12.696 242.576 12.436 242.38 12.112C242.184 11.784 242.086 11.42 242.086 11.02C242.086 10.628 242.186 10.268 242.386 9.94C242.586 9.612 242.85 9.35 243.178 9.154C243.506 8.958 243.862 8.86 244.246 8.86C244.642 8.86 245.004 8.958 245.332 9.154C245.66 9.346 245.92 9.606 246.112 9.934C246.308 10.258 246.406 10.62 246.406 11.02C246.406 11.42 246.308 11.784 246.112 12.112C245.92 12.436 245.66 12.696 245.332 12.892C245.004 13.084 244.642 13.18 244.246 13.18ZM244.246 12.094C244.442 12.094 244.62 12.046 244.78 11.95C244.944 11.85 245.074 11.718 245.17 11.554C245.27 11.39 245.32 11.212 245.32 11.02C245.32 10.828 245.27 10.65 245.17 10.486C245.074 10.322 244.944 10.192 244.78 10.096C244.62 9.996 244.442 9.946 244.246 9.946C244.054 9.946 243.876 9.996 243.712 10.096C243.552 10.192 243.422 10.322 243.322 10.486C243.226 10.65 243.178 10.828 243.178 11.02C243.178 11.212 243.226 11.39 243.322 11.554C243.422 11.718 243.552 11.85 243.712 11.95C243.876 12.046 244.054 12.094 244.246 12.094ZM239.2 8.5C238.804 8.5 238.442 8.404 238.114 8.212C237.786 8.016 237.524 7.756 237.328 7.432C237.136 7.104 237.04 6.74 237.04 6.34C237.04 5.948 237.14 5.588 237.34 5.26C237.54 4.932 237.804 4.67 238.132 4.474C238.46 4.278 238.816 4.18 239.2 4.18C239.596 4.18 239.956 4.278 240.28 4.474C240.608 4.666 240.87 4.926 241.066 5.254C241.262 5.578 241.36 5.94 241.36 6.34C241.36 6.74 241.262 7.104 241.066 7.432C240.87 7.756 240.608 8.016 240.28 8.212C239.956 8.404 239.596 8.5 239.2 8.5ZM239.2 7.414C239.392 7.414 239.57 7.366 239.734 7.27C239.898 7.17 240.028 7.038 240.124 6.874C240.224 6.71 240.274 6.532 240.274 6.34C240.274 6.148 240.224 5.97 240.124 5.806C240.028 5.642 239.898 5.512 239.734 5.416C239.57 5.316 239.392 5.266 239.2 5.266C239.008 5.266 238.83 5.316 238.666 5.416C238.506 5.512 238.376 5.642 238.276 5.806C238.176 5.97 238.126 6.148 238.126 6.34C238.126 6.532 238.176 6.71 238.276 6.874C238.376 7.038 238.506 7.17 238.666 7.27C238.826 7.366 239.004 7.414 239.2 7.414Z" fill="#0E0D0B"/>
<rect y="23" width="248" height="8" rx="2" fill="#FFE1C2"/>
<rect y="23" width="100.8" height="8" rx="2" fill="#FF8200"/>
<path d="M4.212 56.18C3.552 56.18 2.968 56.044 2.46 55.772C1.956 55.5 1.56 55.116 1.272 54.62C0.984 54.124 0.84 53.544 0.84 52.88V47.366L1.728 47.36V52.766C1.728 53.214 1.804 53.602 1.956 53.93C2.108 54.254 2.306 54.522 2.55 54.734C2.798 54.942 3.068 55.096 3.36 55.196C3.652 55.296 3.936 55.346 4.212 55.346C4.492 55.346 4.778 55.296 5.07 55.196C5.362 55.096 5.63 54.942 5.874 54.734C6.118 54.522 6.316 54.254 6.468 53.93C6.62 53.602 6.696 53.214 6.696 52.766V47.36H7.584V52.88C7.584 53.544 7.44 54.124 7.152 54.62C6.864 55.112 6.466 55.496 5.958 55.772C5.454 56.044 4.872 56.18 4.212 56.18ZM13.9458 56V52.694C13.9458 52.334 13.9118 52.004 13.8438 51.704C13.7758 51.4 13.6658 51.136 13.5138 50.912C13.3658 50.684 13.1718 50.508 12.9318 50.384C12.6958 50.26 12.4078 50.198 12.0678 50.198C11.7558 50.198 11.4798 50.252 11.2398 50.36C11.0038 50.468 10.8038 50.624 10.6398 50.828C10.4798 51.028 10.3578 51.272 10.2738 51.56C10.1898 51.848 10.1478 52.176 10.1478 52.544L9.52378 52.406C9.52378 51.742 9.63978 51.184 9.87178 50.732C10.1038 50.28 10.4238 49.938 10.8318 49.706C11.2398 49.474 11.7078 49.358 12.2358 49.358C12.6238 49.358 12.9618 49.418 13.2498 49.538C13.5418 49.658 13.7878 49.82 13.9878 50.024C14.1918 50.228 14.3558 50.462 14.4798 50.726C14.6038 50.986 14.6938 51.264 14.7498 51.56C14.8058 51.852 14.8338 52.144 14.8338 52.436V56H13.9458ZM9.25978 56V49.52H10.0578V51.116H10.1478V56H9.25978ZM16.5108 48.29V47.3H17.3928V48.29H16.5108ZM16.5108 56V49.52H17.3928V56H16.5108ZM22.7196 56C22.3556 56.076 21.9956 56.106 21.6396 56.09C21.2876 56.074 20.9716 55.998 20.6916 55.862C20.4156 55.726 20.2056 55.514 20.0616 55.226C19.9456 54.986 19.8816 54.744 19.8696 54.5C19.8616 54.252 19.8576 53.97 19.8576 53.654V47.72H20.7336V53.618C20.7336 53.89 20.7356 54.118 20.7396 54.302C20.7476 54.482 20.7896 54.642 20.8656 54.782C21.0096 55.05 21.2376 55.21 21.5496 55.262C21.8656 55.314 22.2556 55.302 22.7196 55.226V56ZM18.4716 50.276V49.52H22.7196V50.276H18.4716ZM26.5039 56.18C25.8719 56.18 25.3239 56.04 24.8599 55.76C24.3999 55.48 24.0419 55.086 23.7859 54.578C23.5299 54.07 23.4019 53.474 23.4019 52.79C23.4019 52.082 23.5279 51.47 23.7799 50.954C24.0319 50.438 24.3859 50.04 24.8419 49.76C25.3019 49.48 25.8439 49.34 26.4679 49.34C27.1079 49.34 27.6539 49.488 28.1059 49.784C28.5579 50.076 28.8999 50.496 29.1319 51.044C29.3639 51.592 29.4699 52.246 29.4499 53.006H28.5499V52.694C28.5339 51.854 28.3519 51.22 28.0039 50.792C27.6599 50.364 27.1559 50.15 26.4919 50.15C25.7959 50.15 25.2619 50.376 24.8899 50.828C24.5219 51.28 24.3379 51.924 24.3379 52.76C24.3379 53.576 24.5219 54.21 24.8899 54.662C25.2619 55.11 25.7879 55.334 26.4679 55.334C26.9319 55.334 27.3359 55.228 27.6799 55.016C28.0279 54.8 28.3019 54.49 28.5019 54.086L29.3239 54.404C29.0679 54.968 28.6899 55.406 28.1899 55.718C27.6939 56.026 27.1319 56.18 26.5039 56.18ZM24.0259 53.006V52.268H28.9759V53.006H24.0259ZM33.2954 56.18C32.6914 56.18 32.1754 56.03 31.7474 55.73C31.3194 55.426 30.9914 55.016 30.7634 54.5C30.5354 53.984 30.4214 53.402 30.4214 52.754C30.4214 52.11 30.5334 51.53 30.7574 51.014C30.9854 50.498 31.3114 50.09 31.7354 49.79C32.1594 49.49 32.6674 49.34 33.2594 49.34C33.8674 49.34 34.3794 49.488 34.7954 49.784C35.2114 50.08 35.5254 50.486 35.7374 51.002C35.9534 51.514 36.0614 52.098 36.0614 52.754C36.0614 53.398 35.9554 53.98 35.7434 54.5C35.5314 55.016 35.2194 55.426 34.8074 55.73C34.3954 56.03 33.8914 56.18 33.2954 56.18ZM33.3854 55.358C33.8454 55.358 34.2254 55.246 34.5254 55.022C34.8254 54.798 35.0494 54.49 35.1974 54.098C35.3454 53.702 35.4194 53.254 35.4194 52.754C35.4194 52.246 35.3454 51.798 35.1974 51.41C35.0494 51.018 34.8254 50.712 34.5254 50.492C34.2294 50.272 33.8554 50.162 33.4034 50.162C32.9394 50.162 32.5554 50.276 32.2514 50.504C31.9474 50.732 31.7214 51.042 31.5734 51.434C31.4294 51.826 31.3574 52.266 31.3574 52.754C31.3574 53.246 31.4314 53.69 31.5794 54.086C31.7314 54.478 31.9574 54.788 32.2574 55.016C32.5574 55.244 32.9334 55.358 33.3854 55.358ZM35.4194 56V51.122H35.3234V47.36H36.2114V56H35.4194ZM40.297 56V47.36H41.179V51.44L45.121 47.36H46.249L42.223 51.53L46.579 56H45.427L41.179 51.68V56H40.297ZM47.542 48.29V47.3H48.424V48.29H47.542ZM47.542 56V49.52H48.424V56H47.542ZM54.9028 56V52.694C54.9028 52.334 54.8688 52.004 54.8008 51.704C54.7328 51.4 54.6228 51.136 54.4708 50.912C54.3228 50.684 54.1288 50.508 53.8888 50.384C53.6528 50.26 53.3648 50.198 53.0248 50.198C52.7128 50.198 52.4368 50.252 52.1968 50.36C51.9608 50.468 51.7608 50.624 51.5968 50.828C51.4368 51.028 51.3148 51.272 51.2308 51.56C51.1468 51.848 51.1048 52.176 51.1048 52.544L50.4808 52.406C50.4808 51.742 50.5968 51.184 50.8288 50.732C51.0608 50.28 51.3808 49.938 51.7888 49.706C52.1968 49.474 52.6648 49.358 53.1928 49.358C53.5808 49.358 53.9188 49.418 54.2068 49.538C54.4988 49.658 54.7448 49.82 54.9448 50.024C55.1488 50.228 55.3128 50.462 55.4368 50.726C55.5608 50.986 55.6508 51.264 55.7068 51.56C55.7628 51.852 55.7908 52.144 55.7908 52.436V56H54.9028ZM50.2168 56V49.52H51.0148V51.116H51.1048V56H50.2168ZM59.9218 59.06C59.5898 59.06 59.2618 59.01 58.9378 58.91C58.6178 58.814 58.3218 58.66 58.0498 58.448C57.7778 58.24 57.5498 57.968 57.3658 57.632L58.1638 57.188C58.3438 57.548 58.5958 57.806 58.9198 57.962C59.2478 58.122 59.5818 58.202 59.9218 58.202C60.3898 58.202 60.7678 58.114 61.0558 57.938C61.3478 57.766 61.5598 57.51 61.6918 57.17C61.8238 56.83 61.8878 56.406 61.8838 55.898V54.17H61.9858V49.52H62.7718V55.91C62.7718 56.094 62.7658 56.27 62.7538 56.438C62.7458 56.61 62.7278 56.778 62.6998 56.942C62.6238 57.426 62.4658 57.824 62.2258 58.136C61.9898 58.448 61.6778 58.68 61.2898 58.832C60.9058 58.984 60.4498 59.06 59.9218 59.06ZM59.8618 56.18C59.2578 56.18 58.7418 56.03 58.3138 55.73C57.8858 55.426 57.5578 55.016 57.3298 54.5C57.1018 53.984 56.9878 53.402 56.9878 52.754C56.9878 52.11 57.0998 51.53 57.3238 51.014C57.5518 50.498 57.8778 50.09 58.3018 49.79C58.7258 49.49 59.2338 49.34 59.8258 49.34C60.4338 49.34 60.9458 49.488 61.3618 49.784C61.7778 50.08 62.0918 50.486 62.3038 51.002C62.5198 51.514 62.6278 52.098 62.6278 52.754C62.6278 53.398 62.5218 53.98 62.3098 54.5C62.0978 55.016 61.7858 55.426 61.3738 55.73C60.9618 56.03 60.4578 56.18 59.8618 56.18ZM59.9518 55.358C60.4118 55.358 60.7918 55.246 61.0918 55.022C61.3918 54.798 61.6158 54.49 61.7638 54.098C61.9118 53.702 61.9858 53.254 61.9858 52.754C61.9858 52.246 61.9118 51.798 61.7638 51.41C61.6158 51.018 61.3918 50.712 61.0918 50.492C60.7958 50.272 60.4218 50.162 59.9698 50.162C59.5058 50.162 59.1218 50.276 58.8178 50.504C58.5138 50.732 58.2878 51.042 58.1398 51.434C57.9958 51.826 57.9238 52.266 57.9238 52.754C57.9238 53.246 57.9978 53.69 58.1458 54.086C58.2978 54.478 58.5238 54.788 58.8238 55.016C59.1238 55.244 59.4998 55.358 59.9518 55.358ZM66.9634 56.18C66.3594 56.18 65.8434 56.03 65.4154 55.73C64.9874 55.426 64.6594 55.016 64.4314 54.5C64.2034 53.984 64.0894 53.402 64.0894 52.754C64.0894 52.11 64.2014 51.53 64.4254 51.014C64.6534 50.498 64.9794 50.09 65.4034 49.79C65.8274 49.49 66.3354 49.34 66.9274 49.34C67.5354 49.34 68.0474 49.488 68.4634 49.784C68.8794 50.08 69.1934 50.486 69.4054 51.002C69.6214 51.514 69.7294 52.098 69.7294 52.754C69.7294 53.398 69.6234 53.98 69.4114 54.5C69.1994 55.016 68.8874 55.426 68.4754 55.73C68.0634 56.03 67.5594 56.18 66.9634 56.18ZM67.0534 55.358C67.5134 55.358 67.8934 55.246 68.1934 55.022C68.4934 54.798 68.7174 54.49 68.8654 54.098C69.0134 53.702 69.0874 53.254 69.0874 52.754C69.0874 52.246 69.0134 51.798 68.8654 51.41C68.7174 51.018 68.4934 50.712 68.1934 50.492C67.8974 50.272 67.5234 50.162 67.0714 50.162C66.6074 50.162 66.2234 50.276 65.9194 50.504C65.6154 50.732 65.3894 51.042 65.2414 51.434C65.0974 51.826 65.0254 52.266 65.0254 52.754C65.0254 53.246 65.0994 53.69 65.2474 54.086C65.3994 54.478 65.6254 54.788 65.9254 55.016C66.2254 55.244 66.6014 55.358 67.0534 55.358ZM69.0874 56V51.122H68.9914V47.36H69.8794V56H69.0874ZM74.2687 56.18C73.6247 56.18 73.0747 56.034 72.6187 55.742C72.1627 55.45 71.8127 55.046 71.5687 54.53C71.3247 54.014 71.2027 53.422 71.2027 52.754C71.2027 52.074 71.3267 51.478 71.5747 50.966C71.8227 50.454 72.1747 50.056 72.6307 49.772C73.0907 49.484 73.6367 49.34 74.2687 49.34C74.9167 49.34 75.4687 49.486 75.9247 49.778C76.3847 50.066 76.7347 50.468 76.9747 50.984C77.2187 51.496 77.3407 52.086 77.3407 52.754C77.3407 53.434 77.2187 54.032 76.9747 54.548C76.7307 55.06 76.3787 55.46 75.9187 55.748C75.4587 56.036 74.9087 56.18 74.2687 56.18ZM74.2687 55.334C74.9887 55.334 75.5247 55.096 75.8767 54.62C76.2287 54.14 76.4047 53.518 76.4047 52.754C76.4047 51.97 76.2267 51.346 75.8707 50.882C75.5187 50.418 74.9847 50.186 74.2687 50.186C73.7847 50.186 73.3847 50.296 73.0687 50.516C72.7567 50.732 72.5227 51.034 72.3667 51.422C72.2147 51.806 72.1387 52.25 72.1387 52.754C72.1387 53.534 72.3187 54.16 72.6787 54.632C73.0387 55.1 73.5687 55.334 74.2687 55.334ZM86.3922 56L86.3982 51.746C86.3982 51.246 86.2582 50.854 85.9782 50.57C85.7022 50.282 85.3502 50.138 84.9222 50.138C84.6782 50.138 84.4402 50.194 84.2082 50.306C83.9762 50.418 83.7842 50.598 83.6322 50.846C83.4842 51.094 83.4102 51.418 83.4102 51.818L82.8882 51.668C82.8762 51.204 82.9662 50.798 83.1582 50.45C83.3542 50.102 83.6222 49.832 83.9622 49.64C84.3062 49.444 84.6942 49.346 85.1262 49.346C85.7782 49.346 86.3002 49.548 86.6922 49.952C87.0842 50.352 87.2802 50.894 87.2802 51.578L87.2742 56H86.3922ZM78.6582 56V49.52H79.4502V51.116H79.5462V56H78.6582ZM82.5342 56L82.5402 51.806C82.5402 51.29 82.4022 50.884 82.1262 50.588C81.8542 50.288 81.4942 50.138 81.0462 50.138C80.5982 50.138 80.2362 50.292 79.9602 50.6C79.6842 50.904 79.5462 51.31 79.5462 51.818L79.0182 51.53C79.0182 51.114 79.1162 50.742 79.3122 50.414C79.5082 50.082 79.7762 49.822 80.1162 49.634C80.4562 49.442 80.8422 49.346 81.2742 49.346C81.6862 49.346 82.0522 49.434 82.3722 49.61C82.6962 49.786 82.9502 50.042 83.1342 50.378C83.3182 50.714 83.4102 51.122 83.4102 51.602L83.4042 56H82.5342Z" fill="#6B6B6A"/>
<path d="M223.6 55.994L223.606 54.878L227.368 51.506C227.672 51.238 227.878 50.982 227.986 50.738C228.098 50.494 228.154 50.25 228.154 50.006C228.154 49.698 228.086 49.422 227.95 49.178C227.814 48.93 227.626 48.734 227.386 48.59C227.146 48.446 226.87 48.374 226.558 48.374C226.238 48.374 225.952 48.45 225.7 48.602C225.452 48.75 225.258 48.948 225.118 49.196C224.978 49.444 224.91 49.712 224.914 50H223.63C223.63 49.44 223.756 48.95 224.008 48.53C224.264 48.106 224.614 47.776 225.058 47.54C225.502 47.3 226.01 47.18 226.582 47.18C227.126 47.18 227.614 47.304 228.046 47.552C228.478 47.796 228.818 48.132 229.066 48.56C229.318 48.988 229.444 49.476 229.444 50.024C229.444 50.42 229.392 50.756 229.288 51.032C229.184 51.308 229.028 51.564 228.82 51.8C228.612 52.036 228.352 52.292 228.04 52.568L225.136 55.16L224.998 54.8H229.444V55.994H223.6ZM234.309 56V54.494H230.409V53.306L233.217 47.36H234.651L231.843 53.306H234.309V50.966H235.581V53.306H236.439V54.494H235.581V56H234.309ZM238.959 56L238.119 55.16L245.925 47.36L246.765 48.206L238.959 56ZM244.965 56.18C244.569 56.18 244.207 56.084 243.879 55.892C243.555 55.696 243.295 55.436 243.099 55.112C242.903 54.784 242.805 54.42 242.805 54.02C242.805 53.628 242.905 53.268 243.105 52.94C243.305 52.612 243.569 52.35 243.897 52.154C244.225 51.958 244.581 51.86 244.965 51.86C245.361 51.86 245.723 51.958 246.051 52.154C246.379 52.346 246.639 52.606 246.831 52.934C247.027 53.258 247.125 53.62 247.125 54.02C247.125 54.42 247.027 54.784 246.831 55.112C246.639 55.436 246.379 55.696 246.051 55.892C245.723 56.084 245.361 56.18 244.965 56.18ZM244.965 55.094C245.161 55.094 245.339 55.046 245.499 54.95C245.663 54.85 245.793 54.718 245.889 54.554C245.989 54.39 246.039 54.212 246.039 54.02C246.039 53.828 245.989 53.65 245.889 53.486C245.793 53.322 245.663 53.192 245.499 53.096C245.339 52.996 245.161 52.946 244.965 52.946C244.773 52.946 244.595 52.996 244.431 53.096C244.271 53.192 244.141 53.322 244.041 53.486C243.945 53.65 243.897 53.828 243.897 54.02C243.897 54.212 243.945 54.39 244.041 54.554C244.141 54.718 244.271 54.85 244.431 54.95C244.595 55.046 244.773 55.094 244.965 55.094ZM239.919 51.5C239.523 51.5 239.161 51.404 238.833 51.212C238.505 51.016 238.243 50.756 238.047 50.432C237.855 50.104 237.759 49.74 237.759 49.34C237.759 48.948 237.859 48.588 238.059 48.26C238.259 47.932 238.523 47.67 238.851 47.474C239.179 47.278 239.535 47.18 239.919 47.18C240.315 47.18 240.675 47.278 240.999 47.474C241.327 47.666 241.589 47.926 241.785 48.254C241.981 48.578 242.079 48.94 242.079 49.34C242.079 49.74 241.981 50.104 241.785 50.432C241.589 50.756 241.327 51.016 240.999 51.212C240.675 51.404 240.315 51.5 239.919 51.5ZM239.919 50.414C240.111 50.414 240.289 50.366 240.453 50.27C240.617 50.17 240.747 50.038 240.843 49.874C240.943 49.71 240.993 49.532 240.993 49.34C240.993 49.148 240.943 48.97 240.843 48.806C240.747 48.642 240.617 48.512 240.453 48.416C240.289 48.316 240.111 48.266 239.919 48.266C239.727 48.266 239.549 48.316 239.385 48.416C239.225 48.512 239.095 48.642 238.995 48.806C238.895 48.97 238.845 49.148 238.845 49.34C238.845 49.532 238.895 49.71 238.995 49.874C239.095 50.038 239.225 50.17 239.385 50.27C239.545 50.366 239.723 50.414 239.919 50.414Z" fill="#0E0D0B"/>
<rect y="66" width="248" height="8" rx="2" fill="#FFE1C2"/>
<rect y="66" width="73.2" height="8" rx="2" fill="#FF8200"/>
<path d="M0.96 99V90.36H1.842V99H0.96ZM8.32078 99V95.694C8.32078 95.334 8.28678 95.004 8.21878 94.704C8.15078 94.4 8.04078 94.136 7.88878 93.912C7.74078 93.684 7.54678 93.508 7.30678 93.384C7.07078 93.26 6.78278 93.198 6.44278 93.198C6.13078 93.198 5.85478 93.252 5.61478 93.36C5.37878 93.468 5.17878 93.624 5.01478 93.828C4.85478 94.028 4.73278 94.272 4.64878 94.56C4.56478 94.848 4.52278 95.176 4.52278 95.544L3.89878 95.406C3.89878 94.742 4.01478 94.184 4.24678 93.732C4.47878 93.28 4.79878 92.938 5.20678 92.706C5.61478 92.474 6.08278 92.358 6.61078 92.358C6.99878 92.358 7.33678 92.418 7.62478 92.538C7.91678 92.658 8.16278 92.82 8.36278 93.024C8.56678 93.228 8.73078 93.462 8.85478 93.726C8.97878 93.986 9.06878 94.264 9.12478 94.56C9.18078 94.852 9.20878 95.144 9.20878 95.436V99H8.32078ZM3.63478 99V92.52H4.43278V94.116H4.52278V99H3.63478ZM13.2446 99.18C12.6406 99.18 12.1246 99.03 11.6966 98.73C11.2686 98.426 10.9406 98.016 10.7126 97.5C10.4846 96.984 10.3706 96.402 10.3706 95.754C10.3706 95.11 10.4826 94.53 10.7066 94.014C10.9346 93.498 11.2606 93.09 11.6846 92.79C12.1086 92.49 12.6166 92.34 13.2086 92.34C13.8166 92.34 14.3286 92.488 14.7446 92.784C15.1606 93.08 15.4746 93.486 15.6866 94.002C15.9026 94.514 16.0106 95.098 16.0106 95.754C16.0106 96.398 15.9046 96.98 15.6926 97.5C15.4806 98.016 15.1686 98.426 14.7566 98.73C14.3446 99.03 13.8406 99.18 13.2446 99.18ZM13.3346 98.358C13.7946 98.358 14.1746 98.246 14.4746 98.022C14.7746 97.798 14.9986 97.49 15.1466 97.098C15.2946 96.702 15.3686 96.254 15.3686 95.754C15.3686 95.246 15.2946 94.798 15.1466 94.41C14.9986 94.018 14.7746 93.712 14.4746 93.492C14.1786 93.272 13.8046 93.162 13.3526 93.162C12.8886 93.162 12.5046 93.276 12.2006 93.504C11.8966 93.732 11.6706 94.042 11.5226 94.434C11.3786 94.826 11.3066 95.266 11.3066 95.754C11.3066 96.246 11.3806 96.69 11.5286 97.086C11.6806 97.478 11.9066 97.788 12.2066 98.016C12.5066 98.244 12.8826 98.358 13.3346 98.358ZM15.3686 99V94.122H15.2726V90.36H16.1606V99H15.3686ZM20.5499 99.18C19.9059 99.18 19.3559 99.034 18.8999 98.742C18.4439 98.45 18.0939 98.046 17.8499 97.53C17.6059 97.014 17.4839 96.422 17.4839 95.754C17.4839 95.074 17.6079 94.478 17.8559 93.966C18.1039 93.454 18.4559 93.056 18.9119 92.772C19.3719 92.484 19.9179 92.34 20.5499 92.34C21.1979 92.34 21.7499 92.486 22.2059 92.778C22.6659 93.066 23.0159 93.468 23.2559 93.984C23.4999 94.496 23.6219 95.086 23.6219 95.754C23.6219 96.434 23.4999 97.032 23.2559 97.548C23.0119 98.06 22.6599 98.46 22.1999 98.748C21.7399 99.036 21.1899 99.18 20.5499 99.18ZM20.5499 98.334C21.2699 98.334 21.8059 98.096 22.1579 97.62C22.5099 97.14 22.6859 96.518 22.6859 95.754C22.6859 94.97 22.5079 94.346 22.1519 93.882C21.7999 93.418 21.2659 93.186 20.5499 93.186C20.0659 93.186 19.6659 93.296 19.3499 93.516C19.0379 93.732 18.8039 94.034 18.6479 94.422C18.4959 94.806 18.4199 95.25 18.4199 95.754C18.4199 96.534 18.5999 97.16 18.9599 97.632C19.3199 98.1 19.8499 98.334 20.5499 98.334ZM29.6255 99V95.694C29.6255 95.334 29.5915 95.004 29.5235 94.704C29.4555 94.4 29.3455 94.136 29.1935 93.912C29.0455 93.684 28.8515 93.508 28.6115 93.384C28.3755 93.26 28.0875 93.198 27.7475 93.198C27.4355 93.198 27.1595 93.252 26.9195 93.36C26.6835 93.468 26.4835 93.624 26.3195 93.828C26.1595 94.028 26.0375 94.272 25.9535 94.56C25.8695 94.848 25.8275 95.176 25.8275 95.544L25.2035 95.406C25.2035 94.742 25.3195 94.184 25.5515 93.732C25.7835 93.28 26.1035 92.938 26.5115 92.706C26.9195 92.474 27.3875 92.358 27.9155 92.358C28.3035 92.358 28.6415 92.418 28.9295 92.538C29.2215 92.658 29.4675 92.82 29.6675 93.024C29.8715 93.228 30.0355 93.462 30.1595 93.726C30.2835 93.986 30.3735 94.264 30.4295 94.56C30.4855 94.852 30.5135 95.144 30.5135 95.436V99H29.6255ZM24.9395 99V92.52H25.7375V94.116H25.8275V99H24.9395ZM34.7773 99.18C34.1453 99.18 33.5973 99.04 33.1333 98.76C32.6733 98.48 32.3153 98.086 32.0593 97.578C31.8033 97.07 31.6753 96.474 31.6753 95.79C31.6753 95.082 31.8013 94.47 32.0533 93.954C32.3053 93.438 32.6593 93.04 33.1153 92.76C33.5753 92.48 34.1173 92.34 34.7413 92.34C35.3813 92.34 35.9273 92.488 36.3793 92.784C36.8313 93.076 37.1733 93.496 37.4053 94.044C37.6373 94.592 37.7433 95.246 37.7233 96.006H36.8233V95.694C36.8073 94.854 36.6253 94.22 36.2773 93.792C35.9333 93.364 35.4293 93.15 34.7653 93.15C34.0693 93.15 33.5353 93.376 33.1633 93.828C32.7953 94.28 32.6113 94.924 32.6113 95.76C32.6113 96.576 32.7953 97.21 33.1633 97.662C33.5353 98.11 34.0613 98.334 34.7413 98.334C35.2053 98.334 35.6093 98.228 35.9533 98.016C36.3013 97.8 36.5753 97.49 36.7753 97.086L37.5973 97.404C37.3413 97.968 36.9633 98.406 36.4633 98.718C35.9673 99.026 35.4053 99.18 34.7773 99.18ZM32.2993 96.006V95.268H37.2493V96.006H32.2993ZM41.4728 99.174C40.7128 99.174 40.0868 99.01 39.5948 98.682C39.1068 98.354 38.8068 97.898 38.6948 97.314L39.5948 97.164C39.6908 97.532 39.9088 97.826 40.2488 98.046C40.5928 98.262 41.0168 98.37 41.5208 98.37C42.0128 98.37 42.4008 98.268 42.6848 98.064C42.9688 97.856 43.1108 97.574 43.1108 97.218C43.1108 97.018 43.0648 96.856 42.9728 96.732C42.8848 96.604 42.7028 96.486 42.4268 96.378C42.1508 96.27 41.7388 96.142 41.1908 95.994C40.6028 95.834 40.1428 95.674 39.8108 95.514C39.4788 95.354 39.2428 95.17 39.1028 94.962C38.9628 94.75 38.8928 94.492 38.8928 94.188C38.8928 93.82 38.9968 93.498 39.2048 93.222C39.4128 92.942 39.7008 92.726 40.0688 92.574C40.4368 92.418 40.8648 92.34 41.3528 92.34C41.8408 92.34 42.2768 92.42 42.6608 92.58C43.0488 92.736 43.3608 92.956 43.5968 93.24C43.8328 93.524 43.9728 93.854 44.0168 94.23L43.1168 94.392C43.0568 94.012 42.8668 93.712 42.5468 93.492C42.2308 93.268 41.8288 93.152 41.3408 93.144C40.8808 93.132 40.5068 93.22 40.2188 93.408C39.9308 93.592 39.7868 93.838 39.7868 94.146C39.7868 94.318 39.8388 94.466 39.9428 94.59C40.0468 94.71 40.2348 94.824 40.5068 94.932C40.7828 95.04 41.1748 95.158 41.6828 95.286C42.2788 95.438 42.7468 95.598 43.0868 95.766C43.4268 95.934 43.6688 96.132 43.8128 96.36C43.9568 96.588 44.0288 96.87 44.0288 97.206C44.0288 97.818 43.8008 98.3 43.3448 98.652C42.8928 99 42.2688 99.174 41.4728 99.174ZM45.4795 91.29V90.3H46.3615V91.29H45.4795ZM45.4795 99V92.52H46.3615V99H45.4795ZM50.0143 99.18C49.5263 99.18 49.1163 99.092 48.7843 98.916C48.4563 98.74 48.2103 98.506 48.0463 98.214C47.8823 97.922 47.8003 97.604 47.8003 97.26C47.8003 96.908 47.8703 96.608 48.0103 96.36C48.1543 96.108 48.3483 95.902 48.5923 95.742C48.8403 95.582 49.1263 95.46 49.4503 95.376C49.7783 95.296 50.1403 95.226 50.5363 95.166C50.9363 95.102 51.3263 95.048 51.7063 95.004C52.0903 94.956 52.4263 94.91 52.7143 94.866L52.4023 95.058C52.4143 94.418 52.2903 93.944 52.0303 93.636C51.7703 93.328 51.3183 93.174 50.6743 93.174C50.2303 93.174 49.8543 93.274 49.5463 93.474C49.2423 93.674 49.0283 93.99 48.9043 94.422L48.0463 94.17C48.1943 93.59 48.4923 93.14 48.9403 92.82C49.3883 92.5 49.9703 92.34 50.6863 92.34C51.2783 92.34 51.7803 92.452 52.1923 92.676C52.6083 92.896 52.9023 93.216 53.0743 93.636C53.1543 93.824 53.2063 94.034 53.2303 94.266C53.2543 94.498 53.2663 94.734 53.2663 94.974V99H52.4803V97.374L52.7083 97.47C52.4883 98.026 52.1463 98.45 51.6823 98.742C51.2183 99.034 50.6623 99.18 50.0143 99.18ZM50.1163 98.418C50.5283 98.418 50.8883 98.344 51.1963 98.196C51.5043 98.048 51.7523 97.846 51.9403 97.59C52.1283 97.33 52.2503 97.038 52.3063 96.714C52.3543 96.506 52.3803 96.278 52.3843 96.03C52.3883 95.778 52.3903 95.59 52.3903 95.466L52.7263 95.64C52.4263 95.68 52.1003 95.72 51.7483 95.76C51.4003 95.8 51.0563 95.846 50.7163 95.898C50.3803 95.95 50.0763 96.012 49.8043 96.084C49.6203 96.136 49.4423 96.21 49.2703 96.306C49.0983 96.398 48.9563 96.522 48.8443 96.678C48.7363 96.834 48.6823 97.028 48.6823 97.26C48.6823 97.448 48.7283 97.63 48.8203 97.806C48.9163 97.982 49.0683 98.128 49.2763 98.244C49.4883 98.36 49.7683 98.418 50.1163 98.418Z" fill="#6B6B6A"/>
<path d="M217.346 99V91.74L215.72 92.73V91.332L217.346 90.36H218.624V99H217.346ZM221.353 99L224.389 91.554H220.543V90.36H225.739V91.554L222.709 99H221.353ZM227.001 99V97.674H228.327V99H227.001ZM232.781 99.18C232.337 99.18 231.923 99.09 231.539 98.91C231.159 98.726 230.833 98.474 230.561 98.154C230.289 97.83 230.095 97.458 229.979 97.038L231.185 96.714C231.253 96.97 231.369 97.192 231.533 97.38C231.701 97.568 231.897 97.714 232.121 97.818C232.345 97.918 232.577 97.968 232.817 97.968C233.133 97.968 233.419 97.892 233.675 97.74C233.935 97.588 234.139 97.384 234.287 97.128C234.439 96.872 234.515 96.59 234.515 96.282C234.515 95.966 234.437 95.68 234.281 95.424C234.129 95.168 233.923 94.966 233.663 94.818C233.407 94.666 233.125 94.59 232.817 94.59C232.465 94.59 232.167 94.66 231.923 94.8C231.679 94.94 231.489 95.102 231.353 95.286L230.261 94.902L230.525 90.36H235.187V91.542H231.167L231.677 91.068L231.467 94.47L231.221 94.152C231.449 93.924 231.721 93.75 232.037 93.63C232.353 93.51 232.667 93.45 232.979 93.45C233.515 93.45 233.993 93.574 234.413 93.822C234.837 94.07 235.171 94.408 235.415 94.836C235.659 95.26 235.781 95.742 235.781 96.282C235.781 96.818 235.643 97.306 235.367 97.746C235.091 98.182 234.725 98.53 234.269 98.79C233.813 99.05 233.317 99.18 232.781 99.18ZM238.295 99L237.455 98.16L245.261 90.36L246.101 91.206L238.295 99ZM244.301 99.18C243.905 99.18 243.543 99.084 243.215 98.892C242.891 98.696 242.631 98.436 242.435 98.112C242.239 97.784 242.141 97.42 242.141 97.02C242.141 96.628 242.241 96.268 242.441 95.94C242.641 95.612 242.905 95.35 243.233 95.154C243.561 94.958 243.917 94.86 244.301 94.86C244.697 94.86 245.059 94.958 245.387 95.154C245.715 95.346 245.975 95.606 246.167 95.934C246.363 96.258 246.461 96.62 246.461 97.02C246.461 97.42 246.363 97.784 246.167 98.112C245.975 98.436 245.715 98.696 245.387 98.892C245.059 99.084 244.697 99.18 244.301 99.18ZM244.301 98.094C244.497 98.094 244.675 98.046 244.835 97.95C244.999 97.85 245.129 97.718 245.225 97.554C245.325 97.39 245.375 97.212 245.375 97.02C245.375 96.828 245.325 96.65 245.225 96.486C245.129 96.322 244.999 96.192 244.835 96.096C244.675 95.996 244.497 95.946 244.301 95.946C244.109 95.946 243.931 95.996 243.767 96.096C243.607 96.192 243.477 96.322 243.377 96.486C243.281 96.65 243.233 96.828 243.233 97.02C243.233 97.212 243.281 97.39 243.377 97.554C243.477 97.718 243.607 97.85 243.767 97.95C243.931 98.046 244.109 98.094 244.301 98.094ZM239.255 94.5C238.859 94.5 238.497 94.404 238.169 94.212C237.841 94.016 237.579 93.756 237.383 93.432C237.191 93.104 237.095 92.74 237.095 92.34C237.095 91.948 237.195 91.588 237.395 91.26C237.595 90.932 237.859 90.67 238.187 90.474C238.515 90.278 238.871 90.18 239.255 90.18C239.651 90.18 240.011 90.278 240.335 90.474C240.663 90.666 240.925 90.926 241.121 91.254C241.317 91.578 241.415 91.94 241.415 92.34C241.415 92.74 241.317 93.104 241.121 93.432C240.925 93.756 240.663 94.016 240.335 94.212C240.011 94.404 239.651 94.5 239.255 94.5ZM239.255 93.414C239.447 93.414 239.625 93.366 239.789 93.27C239.953 93.17 240.083 93.038 240.179 92.874C240.279 92.71 240.329 92.532 240.329 92.34C240.329 92.148 240.279 91.97 240.179 91.806C240.083 91.642 239.953 91.512 239.789 91.416C239.625 91.316 239.447 91.266 239.255 91.266C239.063 91.266 238.885 91.316 238.721 91.416C238.561 91.512 238.431 91.642 238.331 91.806C238.231 91.97 238.181 92.148 238.181 92.34C238.181 92.532 238.231 92.71 238.331 92.874C238.431 93.038 238.561 93.17 238.721 93.27C238.881 93.366 239.059 93.414 239.255 93.414Z" fill="#0E0D0B"/>
<rect y="109" width="248" height="8" rx="2" fill="#FFE1C2"/>
<rect y="109" width="58.25" height="8" rx="2" fill="#FF8200"/>
<path d="M0.84 142V133.36H4.176C4.26 133.36 4.354 133.364 4.458 133.372C4.566 133.376 4.674 133.388 4.782 133.408C5.234 133.476 5.616 133.634 5.928 133.882C6.244 134.126 6.482 134.434 6.642 134.806C6.806 135.178 6.888 135.59 6.888 136.042C6.888 136.694 6.716 137.26 6.372 137.74C6.028 138.22 5.536 138.522 4.896 138.646L4.59 138.718H1.722V142H0.84ZM6.072 142L4.368 138.484L5.214 138.16L7.086 142H6.072ZM1.722 137.878H4.152C4.224 137.878 4.308 137.874 4.404 137.866C4.5 137.858 4.594 137.844 4.686 137.824C4.982 137.76 5.224 137.638 5.412 137.458C5.604 137.278 5.746 137.064 5.838 136.816C5.934 136.568 5.982 136.31 5.982 136.042C5.982 135.774 5.934 135.516 5.838 135.268C5.746 135.016 5.604 134.8 5.412 134.62C5.224 134.44 4.982 134.318 4.686 134.254C4.594 134.234 4.5 134.222 4.404 134.218C4.308 134.21 4.224 134.206 4.152 134.206H1.722V137.878ZM10.8883 142.162C10.5003 142.162 10.1603 142.102 9.86831 141.982C9.58031 141.862 9.33431 141.7 9.13031 141.496C8.93031 141.292 8.76831 141.06 8.64431 140.8C8.52031 140.536 8.43031 140.258 8.37431 139.966C8.31831 139.67 8.29031 139.376 8.29031 139.084V135.52H9.17831V138.826C9.17831 139.182 9.21231 139.512 9.28031 139.816C9.34831 140.12 9.45631 140.386 9.60431 140.614C9.75631 140.838 9.95031 141.012 10.1863 141.136C10.4263 141.26 10.7163 141.322 11.0563 141.322C11.3683 141.322 11.6423 141.268 11.8783 141.16C12.1183 141.052 12.3183 140.898 12.4783 140.698C12.6423 140.494 12.7663 140.248 12.8503 139.96C12.9343 139.668 12.9763 139.34 12.9763 138.976L13.6003 139.114C13.6003 139.778 13.4843 140.336 13.2523 140.788C13.0203 141.24 12.7003 141.582 12.2923 141.814C11.8843 142.046 11.4163 142.162 10.8883 142.162ZM13.0663 142V140.404H12.9763V135.52H13.8583V142H13.0663ZM17.9533 142.174C17.1933 142.174 16.5673 142.01 16.0753 141.682C15.5873 141.354 15.2873 140.898 15.1753 140.314L16.0753 140.164C16.1713 140.532 16.3893 140.826 16.7293 141.046C17.0733 141.262 17.4973 141.37 18.0013 141.37C18.4933 141.37 18.8813 141.268 19.1653 141.064C19.4493 140.856 19.5913 140.574 19.5913 140.218C19.5913 140.018 19.5453 139.856 19.4533 139.732C19.3653 139.604 19.1833 139.486 18.9073 139.378C18.6313 139.27 18.2193 139.142 17.6713 138.994C17.0833 138.834 16.6233 138.674 16.2913 138.514C15.9593 138.354 15.7233 138.17 15.5833 137.962C15.4433 137.75 15.3733 137.492 15.3733 137.188C15.3733 136.82 15.4773 136.498 15.6853 136.222C15.8933 135.942 16.1813 135.726 16.5493 135.574C16.9173 135.418 17.3453 135.34 17.8333 135.34C18.3213 135.34 18.7573 135.42 19.1413 135.58C19.5293 135.736 19.8413 135.956 20.0773 136.24C20.3133 136.524 20.4533 136.854 20.4973 137.23L19.5973 137.392C19.5373 137.012 19.3473 136.712 19.0273 136.492C18.7113 136.268 18.3093 136.152 17.8213 136.144C17.3613 136.132 16.9873 136.22 16.6993 136.408C16.4113 136.592 16.2673 136.838 16.2673 137.146C16.2673 137.318 16.3193 137.466 16.4233 137.59C16.5273 137.71 16.7153 137.824 16.9873 137.932C17.2633 138.04 17.6553 138.158 18.1633 138.286C18.7593 138.438 19.2273 138.598 19.5673 138.766C19.9073 138.934 20.1493 139.132 20.2933 139.36C20.4373 139.588 20.5093 139.87 20.5093 140.206C20.5093 140.818 20.2813 141.3 19.8253 141.652C19.3733 142 18.7493 142.174 17.9533 142.174ZM24.258 142.174C23.498 142.174 22.872 142.01 22.38 141.682C21.892 141.354 21.592 140.898 21.48 140.314L22.38 140.164C22.476 140.532 22.694 140.826 23.034 141.046C23.378 141.262 23.802 141.37 24.306 141.37C24.798 141.37 25.186 141.268 25.47 141.064C25.754 140.856 25.896 140.574 25.896 140.218C25.896 140.018 25.85 139.856 25.758 139.732C25.67 139.604 25.488 139.486 25.212 139.378C24.936 139.27 24.524 139.142 23.976 138.994C23.388 138.834 22.928 138.674 22.596 138.514C22.264 138.354 22.028 138.17 21.888 137.962C21.748 137.75 21.678 137.492 21.678 137.188C21.678 136.82 21.782 136.498 21.99 136.222C22.198 135.942 22.486 135.726 22.854 135.574C23.222 135.418 23.65 135.34 24.138 135.34C24.626 135.34 25.062 135.42 25.446 135.58C25.834 135.736 26.146 135.956 26.382 136.24C26.618 136.524 26.758 136.854 26.802 137.23L25.902 137.392C25.842 137.012 25.652 136.712 25.332 136.492C25.016 136.268 24.614 136.152 24.126 136.144C23.666 136.132 23.292 136.22 23.004 136.408C22.716 136.592 22.572 136.838 22.572 137.146C22.572 137.318 22.624 137.466 22.728 137.59C22.832 137.71 23.02 137.824 23.292 137.932C23.568 138.04 23.96 138.158 24.468 138.286C25.064 138.438 25.532 138.598 25.872 138.766C26.212 138.934 26.454 139.132 26.598 139.36C26.742 139.588 26.814 139.87 26.814 140.206C26.814 140.818 26.586 141.3 26.13 141.652C25.678 142 25.054 142.174 24.258 142.174ZM28.2647 134.29V133.3H29.1467V134.29H28.2647ZM28.2647 142V135.52H29.1467V142H28.2647ZM32.7995 142.18C32.3115 142.18 31.9015 142.092 31.5695 141.916C31.2415 141.74 30.9955 141.506 30.8315 141.214C30.6675 140.922 30.5855 140.604 30.5855 140.26C30.5855 139.908 30.6555 139.608 30.7955 139.36C30.9395 139.108 31.1335 138.902 31.3775 138.742C31.6255 138.582 31.9115 138.46 32.2355 138.376C32.5635 138.296 32.9255 138.226 33.3215 138.166C33.7215 138.102 34.1115 138.048 34.4915 138.004C34.8755 137.956 35.2115 137.91 35.4995 137.866L35.1875 138.058C35.1995 137.418 35.0755 136.944 34.8155 136.636C34.5555 136.328 34.1035 136.174 33.4595 136.174C33.0155 136.174 32.6395 136.274 32.3315 136.474C32.0275 136.674 31.8135 136.99 31.6895 137.422L30.8315 137.17C30.9795 136.59 31.2775 136.14 31.7255 135.82C32.1735 135.5 32.7555 135.34 33.4715 135.34C34.0635 135.34 34.5655 135.452 34.9775 135.676C35.3935 135.896 35.6875 136.216 35.8595 136.636C35.9395 136.824 35.9915 137.034 36.0155 137.266C36.0395 137.498 36.0515 137.734 36.0515 137.974V142H35.2655V140.374L35.4935 140.47C35.2735 141.026 34.9315 141.45 34.4675 141.742C34.0035 142.034 33.4475 142.18 32.7995 142.18ZM32.9015 141.418C33.3135 141.418 33.6735 141.344 33.9815 141.196C34.2895 141.048 34.5375 140.846 34.7255 140.59C34.9135 140.33 35.0355 140.038 35.0915 139.714C35.1395 139.506 35.1655 139.278 35.1695 139.03C35.1735 138.778 35.1755 138.59 35.1755 138.466L35.5115 138.64C35.2115 138.68 34.8855 138.72 34.5335 138.76C34.1855 138.8 33.8415 138.846 33.5015 138.898C33.1655 138.95 32.8615 139.012 32.5895 139.084C32.4055 139.136 32.2275 139.21 32.0555 139.306C31.8835 139.398 31.7415 139.522 31.6295 139.678C31.5215 139.834 31.4675 140.028 31.4675 140.26C31.4675 140.448 31.5135 140.63 31.6055 140.806C31.7015 140.982 31.8535 141.128 32.0615 141.244C32.2735 141.36 32.5535 141.418 32.9015 141.418Z" fill="#6B6B6A"/>
<path d="M227.346 142V134.74L225.72 135.73V134.332L227.346 133.36H228.624V142H227.346ZM233.465 142.18C233.021 142.18 232.607 142.09 232.223 141.91C231.843 141.726 231.517 141.474 231.245 141.154C230.973 140.83 230.779 140.458 230.663 140.038L231.869 139.714C231.937 139.97 232.053 140.192 232.217 140.38C232.385 140.568 232.581 140.714 232.805 140.818C233.029 140.918 233.261 140.968 233.501 140.968C233.817 140.968 234.103 140.892 234.359 140.74C234.619 140.588 234.823 140.384 234.971 140.128C235.123 139.872 235.199 139.59 235.199 139.282C235.199 138.966 235.121 138.68 234.965 138.424C234.813 138.168 234.607 137.966 234.347 137.818C234.091 137.666 233.809 137.59 233.501 137.59C233.149 137.59 232.851 137.66 232.607 137.8C232.363 137.94 232.173 138.102 232.037 138.286L230.944 137.902L231.209 133.36H235.871V134.542H231.851L232.361 134.068L232.151 137.47L231.905 137.152C232.133 136.924 232.405 136.75 232.721 136.63C233.037 136.51 233.351 136.45 233.663 136.45C234.199 136.45 234.677 136.574 235.097 136.822C235.521 137.07 235.855 137.408 236.099 137.836C236.343 138.26 236.465 138.742 236.465 139.282C236.465 139.818 236.327 140.306 236.051 140.746C235.775 141.182 235.409 141.53 234.953 141.79C234.497 142.05 234.001 142.18 233.465 142.18ZM238.979 142L238.139 141.16L245.945 133.36L246.785 134.206L238.979 142ZM244.985 142.18C244.589 142.18 244.227 142.084 243.899 141.892C243.575 141.696 243.315 141.436 243.119 141.112C242.923 140.784 242.825 140.42 242.825 140.02C242.825 139.628 242.925 139.268 243.125 138.94C243.325 138.612 243.589 138.35 243.917 138.154C244.245 137.958 244.601 137.86 244.985 137.86C245.381 137.86 245.743 137.958 246.071 138.154C246.399 138.346 246.659 138.606 246.851 138.934C247.047 139.258 247.145 139.62 247.145 140.02C247.145 140.42 247.047 140.784 246.851 141.112C246.659 141.436 246.399 141.696 246.071 141.892C245.743 142.084 245.381 142.18 244.985 142.18ZM244.985 141.094C245.181 141.094 245.359 141.046 245.519 140.95C245.683 140.85 245.813 140.718 245.909 140.554C246.009 140.39 246.059 140.212 246.059 140.02C246.059 139.828 246.009 139.65 245.909 139.486C245.813 139.322 245.683 139.192 245.519 139.096C245.359 138.996 245.181 138.946 244.985 138.946C244.793 138.946 244.615 138.996 244.451 139.096C244.291 139.192 244.161 139.322 244.061 139.486C243.965 139.65 243.917 139.828 243.917 140.02C243.917 140.212 243.965 140.39 244.061 140.554C244.161 140.718 244.291 140.85 244.451 140.95C244.615 141.046 244.793 141.094 244.985 141.094ZM239.939 137.5C239.543 137.5 239.181 137.404 238.853 137.212C238.525 137.016 238.263 136.756 238.067 136.432C237.875 136.104 237.779 135.74 237.779 135.34C237.779 134.948 237.879 134.588 238.079 134.26C238.279 133.932 238.543 133.67 238.871 133.474C239.199 133.278 239.555 133.18 239.939 133.18C240.335 133.18 240.695 133.278 241.019 133.474C241.347 133.666 241.609 133.926 241.805 134.254C242.001 134.578 242.099 134.94 242.099 135.34C242.099 135.74 242.001 136.104 241.805 136.432C241.609 136.756 241.347 137.016 241.019 137.212C240.695 137.404 240.335 137.5 239.939 137.5ZM239.939 136.414C240.131 136.414 240.309 136.366 240.473 136.27C240.637 136.17 240.767 136.038 240.863 135.874C240.963 135.71 241.013 135.532 241.013 135.34C241.013 135.148 240.963 134.97 240.863 134.806C240.767 134.642 240.637 134.512 240.473 134.416C240.309 134.316 240.131 134.266 239.939 134.266C239.747 134.266 239.569 134.316 239.405 134.416C239.245 134.512 239.115 134.642 239.015 134.806C238.915 134.97 238.865 135.148 238.865 135.34C238.865 135.532 238.915 135.71 239.015 135.874C239.115 136.038 239.245 136.17 239.405 136.27C239.565 136.366 239.743 136.414 239.939 136.414Z" fill="#0E0D0B"/>
<rect y="152" width="248" height="8" rx="2" fill="#FFE1C2"/>
<rect y="152" width="52.5" height="8" rx="2" fill="#FF8200"/>
</svg>
