<svg width="110" height="32" viewBox="0 0 110 32" fill="none" xmlns="http://www.w3.org/2000/svg">
<path d="M18 18C18 17.4477 18.4477 17 19 17H27C27.5523 17 28 17.4477 28 18V23C28 25.2091 26.2091 27 24 27H19C18.4477 27 18 26.5523 18 26V18Z" fill="#FF8200"/>
<path d="M6 18C6 17.4477 6.44772 17 7 17H15C15.5523 17 16 17.4477 16 18V26C16 26.5523 15.5523 27 15 27H10C7.79086 27 6 25.2091 6 23V18Z" fill="#FF8200"/>
<path d="M18 6C18 5.44772 18.4477 5 19 5H24C26.2091 5 28 6.79086 28 9V14C28 14.5523 27.5523 15 27 15H19C18.4477 15 18 14.5523 18 14V6Z" fill="#FF8200"/>
<path d="M6 9C6 6.79086 7.79086 5 10 5H15C15.5523 5 16 5.44772 16 6V14C16 14.5523 15.5523 15 15 15H7C6.44772 15 6 14.5523 6 14V9Z" fill="#FF8200"/>
<path d="M39.4 24V9.6H48.7V11.86H41.81V15.41H47.5V17.67H41.81V21.74H48.7V24H39.4ZM50.0992 24V23.67L55.8192 15.31H50.6792V13.2H59.5692V13.54L53.8692 21.89H59.3292V24H50.0992ZM61.7633 24V9.6H63.9333L68.9133 19.8L73.8933 9.6H76.0633V24H73.8133V14.77L69.3933 24H68.4333L64.0233 14.77V24H61.7633ZM81.8927 24.3C81.1127 24.3 80.4527 24.1533 79.9127 23.86C79.3727 23.56 78.9627 23.1633 78.6827 22.67C78.4093 22.1767 78.2727 21.6333 78.2727 21.04C78.2727 20.52 78.3593 20.0533 78.5327 19.64C78.706 19.22 78.9727 18.86 79.3327 18.56C79.6927 18.2533 80.1593 18.0033 80.7327 17.81C81.166 17.67 81.6727 17.5433 82.2527 17.43C82.8393 17.3167 83.4727 17.2133 84.1527 17.12C84.8393 17.02 85.556 16.9133 86.3027 16.8L85.4427 17.29C85.4493 16.5433 85.2827 15.9933 84.9427 15.64C84.6027 15.2867 84.0293 15.11 83.2227 15.11C82.736 15.11 82.266 15.2233 81.8127 15.45C81.3593 15.6767 81.0427 16.0667 80.8627 16.62L78.6627 15.93C78.9293 15.0167 79.436 14.2833 80.1827 13.73C80.936 13.1767 81.9493 12.9 83.2227 12.9C84.1827 12.9 85.026 13.0567 85.7527 13.37C86.486 13.6833 87.0293 14.1967 87.3827 14.91C87.576 15.29 87.6927 15.68 87.7327 16.08C87.7727 16.4733 87.7927 16.9033 87.7927 17.37V24H85.6827V21.66L86.0327 22.04C85.546 22.82 84.976 23.3933 84.3227 23.76C83.676 24.12 82.866 24.3 81.8927 24.3ZM82.3727 22.38C82.9193 22.38 83.386 22.2833 83.7727 22.09C84.1593 21.8967 84.466 21.66 84.6927 21.38C84.926 21.1 85.0827 20.8367 85.1627 20.59C85.2893 20.2833 85.3593 19.9333 85.3727 19.54C85.3927 19.14 85.4027 18.8167 85.4027 18.57L86.1427 18.79C85.416 18.9033 84.7927 19.0033 84.2727 19.09C83.7527 19.1767 83.306 19.26 82.9327 19.34C82.5593 19.4133 82.2293 19.4967 81.9427 19.59C81.6627 19.69 81.426 19.8067 81.2327 19.94C81.0393 20.0733 80.8893 20.2267 80.7827 20.4C80.6827 20.5733 80.6327 20.7767 80.6327 21.01C80.6327 21.2767 80.6993 21.5133 80.8327 21.72C80.966 21.92 81.1593 22.08 81.4127 22.2C81.6727 22.32 81.9927 22.38 82.3727 22.38ZM90.3961 24V13.2H92.5261V15.83L92.2661 15.49C92.3994 15.13 92.5761 14.8033 92.7961 14.51C93.0228 14.21 93.2928 13.9633 93.6061 13.77C93.8728 13.59 94.1661 13.45 94.4861 13.35C94.8128 13.2433 95.1461 13.18 95.4861 13.16C95.8261 13.1333 96.1561 13.1467 96.4761 13.2V15.45C96.1561 15.3567 95.7861 15.3267 95.3661 15.36C94.9528 15.3933 94.5794 15.51 94.2461 15.71C93.9128 15.89 93.6394 16.12 93.4261 16.4C93.2194 16.68 93.0661 17 92.9661 17.36C92.8661 17.7133 92.8161 18.0967 92.8161 18.51V24H90.3961ZM104.714 24C104.001 24.1333 103.301 24.19 102.614 24.17C101.934 24.1567 101.324 24.0333 100.784 23.8C100.244 23.56 99.8344 23.1833 99.5544 22.67C99.3077 22.2033 99.1777 21.7267 99.1644 21.24C99.151 20.7533 99.1444 20.2033 99.1444 19.59V10.2H101.544V19.45C101.544 19.8833 101.548 20.2633 101.554 20.59C101.568 20.9167 101.638 21.1833 101.764 21.39C102.004 21.79 102.388 22.0133 102.914 22.06C103.441 22.1067 104.041 22.08 104.714 21.98V24ZM97.1844 15.09V13.2H104.714V15.09H97.1844Z" fill="#0E0D0B"/>
</svg>
