<svg width="36" height="36" viewBox="0 0 36 36" fill="none" xmlns="http://www.w3.org/2000/svg">
<path fill-rule="evenodd" clip-rule="evenodd" d="M18.375 9.75C16.2864 9.75 14.2834 10.5797 12.8065 12.0565C11.3297 13.5334 10.5 15.5364 10.5 17.625V25.5H18.375C19.4092 25.5 20.4332 25.2963 21.3886 24.9006C22.3441 24.5048 23.2122 23.9247 23.9435 23.1935C24.6747 22.4622 25.2548 21.5941 25.6506 20.6386C26.0463 19.6832 26.25 18.6592 26.25 17.625C26.25 16.5908 26.0463 15.5668 25.6506 14.6114C25.2548 13.6559 24.6747 12.7878 23.9435 12.0565C23.2122 11.3253 22.3441 10.7452 21.3886 10.3494C20.4332 9.95369 19.4092 9.75 18.375 9.75ZM18.375 27H10.476C10.2826 27.0018 10.0909 26.9652 9.91173 26.8924C9.73078 26.8189 9.56641 26.7098 9.4283 26.5717C9.29019 26.4336 9.18114 26.2692 9.10759 26.0883C9.03477 25.9091 8.99821 25.7174 9 25.524V17.625C9 15.1386 9.98772 12.754 11.7459 10.9959C13.504 9.23772 15.8886 8.25 18.375 8.25C19.6061 8.25 20.8252 8.49249 21.9627 8.96363C23.1001 9.43477 24.1336 10.1253 25.0041 10.9959C25.8747 11.8664 26.5652 12.8999 27.0364 14.0373C27.5075 15.1748 27.75 16.3939 27.75 17.625C27.75 18.8561 27.5075 20.0752 27.0364 21.2127C26.5652 22.3501 25.8747 23.3836 25.0041 24.2541C24.1336 25.1247 23.1001 25.8152 21.9627 26.2864C20.8252 26.7575 19.6061 27 18.375 27Z" fill="#6B6B6A"/>
<path d="M13.875 19.125C14.4963 19.125 15 18.6213 15 18C15 17.3787 14.4963 16.875 13.875 16.875C13.2537 16.875 12.75 17.3787 12.75 18C12.75 18.6213 13.2537 19.125 13.875 19.125Z" fill="#6B6B6A"/>
<path d="M18.375 19.125C18.9963 19.125 19.5 18.6213 19.5 18C19.5 17.3787 18.9963 16.875 18.375 16.875C17.7537 16.875 17.25 17.3787 17.25 18C17.25 18.6213 17.7537 19.125 18.375 19.125Z" fill="#6B6B6A"/>
<path d="M22.875 19.125C23.4963 19.125 24 18.6213 24 18C24 17.3787 23.4963 16.875 22.875 16.875C22.2537 16.875 21.75 17.3787 21.75 18C21.75 18.6213 22.2537 19.125 22.875 19.125Z" fill="#6B6B6A"/>
</svg>
