<svg width="36" height="36" viewBox="0 0 36 36" fill="none" xmlns="http://www.w3.org/2000/svg">
<path fill-rule="evenodd" clip-rule="evenodd" d="M18.0419 9.74999C14.7777 9.73228 12.0142 12.5157 12.0188 15.749L12.0188 15.75L12.0188 16.5C12.0188 19.9618 11.2929 22.0466 10.5964 23.25H25.4036C24.7071 22.0466 23.9813 19.9618 23.9813 16.5V15.8344C23.9813 12.5111 21.3286 9.77529 18.0419 9.74999ZM10.5188 15.7505C10.5133 11.69 13.949 8.2272 18.0511 8.25002L18.0526 8.25003C22.1905 8.28138 25.4813 11.7141 25.4813 15.8344V16.5C25.4813 19.75 26.1614 21.5651 26.7022 22.4992L26.7027 22.5C26.8341 22.7276 26.9034 22.9858 26.9036 23.2487C26.9039 23.5115 26.835 23.7698 26.704 23.9977C26.573 24.2256 26.3844 24.415 26.1571 24.5471C25.9298 24.6791 25.6718 24.7491 25.4089 24.75L25.4063 24.75H10.5938L10.5911 24.75C10.3283 24.7491 10.0703 24.6791 9.84297 24.5471C9.61568 24.415 9.42707 24.2256 9.29605 23.9977C9.16502 23.7698 9.09617 23.5115 9.09641 23.2487C9.09664 22.9858 9.16594 22.7276 9.29737 22.5L9.29782 22.4992C9.83866 21.5651 10.5188 19.75 10.5188 16.5V15.7505Z" fill="#6B6B6A"/>
<path fill-rule="evenodd" clip-rule="evenodd" d="M15 23.25C15.4142 23.25 15.75 23.5858 15.75 24V24.75C15.75 25.3467 15.9871 25.919 16.409 26.341C16.831 26.763 17.4033 27 18 27C18.5968 27 19.169 26.763 19.591 26.341C20.013 25.919 20.25 25.3467 20.25 24.75V24C20.25 23.5858 20.5858 23.25 21 23.25C21.4142 23.25 21.75 23.5858 21.75 24V24.75C21.75 25.7446 21.3549 26.6984 20.6517 27.4017C19.9484 28.1049 18.9946 28.5 18 28.5C17.0055 28.5 16.0516 28.1049 15.3484 27.4017C14.6451 26.6984 14.25 25.7446 14.25 24.75V24C14.25 23.5858 14.5858 23.25 15 23.25Z" fill="#6B6B6A"/>
<rect x="20" y="6" width="10" height="10" rx="5" fill="#FF002E"/>
</svg>
