<svg width="20" height="20" viewBox="0 0 20 20" fill="none" xmlns="http://www.w3.org/2000/svg">
<path fill-rule="evenodd" clip-rule="evenodd" d="M6.87499 5C4.97651 5 3.43749 6.53902 3.43749 8.4375C3.43749 10.336 4.97651 11.875 6.87499 11.875C8.77347 11.875 10.3125 10.336 10.3125 8.4375C10.3125 6.53902 8.77347 5 6.87499 5ZM2.18749 8.4375C2.18749 5.84867 4.28616 3.75 6.87499 3.75C9.46383 3.75 11.5625 5.84867 11.5625 8.4375C11.5625 11.0263 9.46383 13.125 6.87499 13.125C4.28616 13.125 2.18749 11.0263 2.18749 8.4375Z" fill="#6B6B6A"/>
<path fill-rule="evenodd" clip-rule="evenodd" d="M13.2403 3.75001L13.2422 3.75C14.4854 3.75 15.6777 4.24386 16.5567 5.12294C17.4358 6.00202 17.9297 7.1943 17.9297 8.4375C17.9297 9.68071 17.4358 10.873 16.5567 11.7521C15.6777 12.6311 14.4854 13.125 13.2422 13.125C12.897 13.125 12.6172 12.8452 12.6172 12.5C12.6172 12.1548 12.897 11.875 13.2422 11.875C14.1539 11.875 15.0282 11.5128 15.6729 10.8682C16.3175 10.2235 16.6797 9.34918 16.6797 8.4375C16.6797 7.52582 16.3175 6.65148 15.6729 6.00682C15.0284 5.36239 14.1545 5.00025 13.2431 5C12.926 5.00105 12.6103 5.04363 12.3042 5.12665C11.9711 5.217 11.6278 5.02018 11.5374 4.68704C11.4471 4.3539 11.6439 4.01059 11.977 3.92023C12.3889 3.80853 12.8136 3.7513 13.2403 3.75001Z" fill="#6B6B6A"/>
<path fill-rule="evenodd" clip-rule="evenodd" d="M6.87499 13.125C5.87202 13.125 4.88378 13.3661 3.99375 13.8285C3.10371 14.2908 2.33802 14.9606 1.76136 15.7812C1.56289 16.0636 1.17306 16.1317 0.890642 15.9332C0.608224 15.7348 0.540165 15.3449 0.738628 15.0625C1.43063 14.0778 2.34946 13.2741 3.4175 12.7192C4.48554 12.1644 5.67143 11.875 6.87499 11.875C8.07855 11.875 9.26444 12.1644 10.3325 12.7192C11.4005 13.2741 12.3194 14.0778 13.0114 15.0625C13.2098 15.3449 13.1418 15.7348 12.8593 15.9332C12.5769 16.1317 12.1871 16.0636 11.9886 15.7812C11.412 14.9606 10.6463 14.2908 9.75624 13.8285C8.8662 13.3661 7.87796 13.125 6.87499 13.125Z" fill="#6B6B6A"/>
<path fill-rule="evenodd" clip-rule="evenodd" d="M16.1239 13.8278C15.2338 13.3654 14.2451 13.1244 13.2422 13.125C12.897 13.125 12.6172 12.8452 12.6172 12.5C12.6172 12.1548 12.897 11.875 13.2422 11.875C14.446 11.8743 15.6318 12.1636 16.7001 12.7185C17.7683 13.2734 18.6871 14.0775 19.3787 15.0628C19.577 15.3453 19.5088 15.7351 19.2263 15.9334C18.9437 16.1317 18.5539 16.0635 18.3556 15.781C17.7794 14.96 17.0139 14.2901 16.1239 13.8278Z" fill="#6B6B6A"/>
</svg>
