<svg width="18" height="18" viewBox="0 0 18 18" fill="none" xmlns="http://www.w3.org/2000/svg">
<path fill-rule="evenodd" clip-rule="evenodd" d="M9.00006 2.8125C5.5828 2.8125 2.81256 5.58274 2.81256 9C2.81256 12.4173 5.5828 15.1875 9.00006 15.1875C12.4173 15.1875 15.1876 12.4173 15.1876 9C15.1876 5.58274 12.4173 2.8125 9.00006 2.8125ZM1.68756 9C1.68756 4.96142 4.96148 1.6875 9.00006 1.6875C13.0386 1.6875 16.3126 4.96142 16.3126 9C16.3126 13.0386 13.0386 16.3125 9.00006 16.3125C4.96148 16.3125 1.68756 13.0386 1.68756 9Z" fill="#6B6B6A"/>
<path fill-rule="evenodd" clip-rule="evenodd" d="M9.00006 6.1875C7.75742 6.1875 6.75006 7.19486 6.75006 8.4375C6.75006 9.68014 7.75742 10.6875 9.00006 10.6875C10.2427 10.6875 11.2501 9.68014 11.2501 8.4375C11.2501 7.19486 10.2427 6.1875 9.00006 6.1875ZM5.62506 8.4375C5.62506 6.57354 7.1361 5.0625 9.00006 5.0625C10.864 5.0625 12.3751 6.57354 12.3751 8.4375C12.3751 10.3015 10.864 11.8125 9.00006 11.8125C7.1361 11.8125 5.62506 10.3015 5.62506 8.4375Z" fill="#6B6B6A"/>
<path fill-rule="evenodd" clip-rule="evenodd" d="M9.00006 11.8125C8.16905 11.8125 7.35426 12.0422 6.64602 12.4769C5.93779 12.9116 5.36375 13.534 4.98756 14.275C4.84693 14.552 4.50836 14.6625 4.23136 14.5219C3.95435 14.3812 3.8438 14.0427 3.98444 13.7657C4.45468 12.8394 5.17222 12.0615 6.05752 11.5181C6.94281 10.9747 7.96129 10.6875 9.00006 10.6875C10.0388 10.6875 11.0573 10.9747 11.9426 11.5181C12.8279 12.0615 13.5454 12.8394 14.0157 13.7657C14.1563 14.0427 14.0458 14.3812 13.7688 14.5219C13.4918 14.6625 13.1532 14.552 13.0126 14.275C12.6364 13.534 12.0623 12.9116 11.3541 12.4769C10.6459 12.0422 9.83107 11.8125 9.00006 11.8125Z" fill="#6B6B6A"/>
</svg>
