<svg width="30" height="30" viewBox="0 0 30 30" fill="none" xmlns="http://www.w3.org/2000/svg">
<rect x="6.10352e-05" width="30" height="30" rx="4" fill="white"/>
<path fill-rule="evenodd" clip-rule="evenodd" d="M15.0001 8.8125C11.5828 8.8125 8.81256 11.5827 8.81256 15C8.81256 18.4173 11.5828 21.1875 15.0001 21.1875C18.4173 21.1875 21.1876 18.4173 21.1876 15C21.1876 11.5827 18.4173 8.8125 15.0001 8.8125ZM7.68756 15C7.68756 10.9614 10.9615 7.6875 15.0001 7.6875C19.0386 7.6875 22.3126 10.9614 22.3126 15C22.3126 19.0386 19.0386 22.3125 15.0001 22.3125C10.9615 22.3125 7.68756 19.0386 7.68756 15Z" fill="#6B6B6A"/>
<path fill-rule="evenodd" clip-rule="evenodd" d="M15.0001 12.1875C13.7574 12.1875 12.7501 13.1949 12.7501 14.4375C12.7501 15.6801 13.7574 16.6875 15.0001 16.6875C16.2427 16.6875 17.2501 15.6801 17.2501 14.4375C17.2501 13.1949 16.2427 12.1875 15.0001 12.1875ZM11.6251 14.4375C11.6251 12.5735 13.1361 11.0625 15.0001 11.0625C16.864 11.0625 18.3751 12.5735 18.3751 14.4375C18.3751 16.3015 16.864 17.8125 15.0001 17.8125C13.1361 17.8125 11.6251 16.3015 11.6251 14.4375Z" fill="#6B6B6A"/>
<path fill-rule="evenodd" clip-rule="evenodd" d="M15.0001 17.8125C14.169 17.8125 13.3543 18.0422 12.646 18.4769C11.9378 18.9116 11.3638 19.534 10.9876 20.275C10.8469 20.552 10.5084 20.6625 10.2314 20.5219C9.95435 20.3812 9.8438 20.0427 9.98444 19.7657C10.4547 18.8394 11.1722 18.0615 12.0575 17.5181C12.9428 16.9747 13.9613 16.6875 15.0001 16.6875C16.0388 16.6875 17.0573 16.9747 17.9426 17.5181C18.8279 18.0615 19.5454 18.8394 20.0157 19.7657C20.1563 20.0427 20.0458 20.3812 19.7688 20.5219C19.4918 20.6625 19.1532 20.552 19.0126 20.275C18.6364 19.534 18.0623 18.9116 17.3541 18.4769C16.6459 18.0422 15.8311 17.8125 15.0001 17.8125Z" fill="#6B6B6A"/>
</svg>
