<svg width="20" height="20" viewBox="0 0 20 20" fill="none" xmlns="http://www.w3.org/2000/svg">
<path fill-rule="evenodd" clip-rule="evenodd" d="M8.45509 6.94895C8.65831 6.84019 8.9049 6.85211 9.09669 6.97997L12.8467 9.47997C13.0206 9.59589 13.125 9.79103 13.125 10C13.125 10.209 13.0206 10.4041 12.8467 10.52L9.09669 13.02C8.9049 13.1479 8.65831 13.1598 8.45509 13.051C8.25187 12.9423 8.125 12.7305 8.125 12.5V7.5C8.125 7.2695 8.25187 7.05772 8.45509 6.94895ZM9.375 8.66782V11.3322L11.3733 10L9.375 8.66782Z" fill="#A6A6A6"/>
<path fill-rule="evenodd" clip-rule="evenodd" d="M9.99907 3.15622L9.98853 3.15619L9.94927 3.15621C9.91521 3.15628 9.86561 3.15653 9.80195 3.15721C9.67465 3.15856 9.49099 3.16162 9.26287 3.16847C8.80698 3.18215 8.1716 3.21099 7.4523 3.27172C6.02958 3.39184 4.2183 3.64113 2.8238 4.17395L2.81461 4.17755C2.54069 4.28719 2.29637 4.45968 2.10136 4.6811C1.90635 4.90252 1.76611 5.16667 1.69194 5.45225L1.69134 5.4546C1.49671 6.2162 1.25 7.6285 1.25 9.99997C1.25 12.3715 1.49671 13.7838 1.69134 14.5453L1.69194 14.5477C1.76611 14.8333 1.90635 15.0974 2.10136 15.3189C2.29637 15.5403 2.54069 15.7128 2.81461 15.8224L2.8238 15.826C4.2183 16.3588 6.02958 16.6081 7.4523 16.7282C8.1716 16.789 8.80698 16.8178 9.26287 16.8315C9.49099 16.8383 9.67465 16.8414 9.80195 16.8427C9.86561 16.8434 9.91521 16.8437 9.94927 16.8437L9.98853 16.8438L9.99907 16.8437H10.0009L10.0115 16.8438L10.0507 16.8437C10.0848 16.8437 10.1344 16.8434 10.1981 16.8427C10.3254 16.8414 10.509 16.8383 10.7371 16.8315C11.193 16.8178 11.8284 16.789 12.5477 16.7282C13.9704 16.6081 15.7817 16.3588 17.1762 15.826L17.1854 15.8224C17.4593 15.7128 17.7036 15.5403 17.8986 15.3189C18.0936 15.0974 18.2339 14.8333 18.3081 14.5477L18.3087 14.5453C18.5033 13.7838 18.75 12.3715 18.75 9.99997C18.75 7.6285 18.5033 6.2162 18.3087 5.4546L18.3081 5.45225C18.2339 5.16667 18.0936 4.90252 17.8986 4.6811C17.7036 4.45968 17.4593 4.28719 17.1854 4.17755L17.1762 4.17395C15.7817 3.64113 13.9704 3.39184 12.5477 3.27172C11.8284 3.21099 11.193 3.18215 10.7371 3.16847C10.509 3.16162 10.3254 3.15856 10.1981 3.15721C10.1344 3.15653 10.0848 3.15628 10.0507 3.15621L10.0115 3.15619L10.0009 3.15622H9.99907ZM9.99672 15.5937L10.0034 15.5937L10.0054 15.5937L10.0136 15.5938L10.0479 15.5937C10.0787 15.5937 10.1248 15.5935 10.1848 15.5928C10.3048 15.5915 10.4804 15.5886 10.6996 15.582C11.1385 15.5689 11.7507 15.5411 12.4425 15.4827C13.8401 15.3647 15.5026 15.1262 16.7248 14.6603C16.8152 14.6234 16.896 14.566 16.9606 14.4927C17.0259 14.4185 17.0729 14.3301 17.0979 14.2345C17.2627 13.5894 17.5 12.2831 17.5 9.99997C17.5 7.71681 17.2627 6.41059 17.0979 5.76546C17.0729 5.66986 17.0259 5.58143 16.9606 5.50727C16.896 5.4339 16.8152 5.37652 16.7248 5.3396C15.5026 4.87376 13.8401 4.63528 12.4425 4.51729C11.7507 4.45888 11.1385 4.43108 10.6996 4.41791C10.4804 4.41133 10.3048 4.40841 10.1848 4.40714C10.1248 4.4065 10.0787 4.40627 10.0479 4.4062L10.0136 4.40619L10.0054 4.40621L10.0036 4.40621L9.99662 4.40625L9.99462 4.40621L9.98644 4.40619L9.95206 4.4062C9.92133 4.40627 9.87522 4.4065 9.81521 4.40714C9.69516 4.40841 9.51963 4.41133 9.30037 4.41791C8.86148 4.43108 8.2493 4.45888 7.55746 4.51729C6.15994 4.63528 4.49744 4.87376 3.27524 5.3396C3.18476 5.37652 3.10403 5.4339 3.03941 5.50727C2.9741 5.58143 2.92706 5.66986 2.90207 5.76546C2.73734 6.41059 2.5 7.71681 2.5 9.99997C2.5 12.2831 2.73733 13.5893 2.90206 14.2345C2.92706 14.3301 2.97409 14.4185 3.03941 14.4927C3.10403 14.566 3.18475 14.6234 3.27524 14.6603C4.49743 15.1262 6.15994 15.3647 7.55746 15.4827C8.2493 15.5411 8.86148 15.5689 9.30037 15.582C9.51963 15.5886 9.69516 15.5915 9.81521 15.5928C9.87522 15.5935 9.92133 15.5937 9.95206 15.5937L9.98644 15.5938L9.99462 15.5937L9.99672 15.5937Z" fill="#A6A6A6"/>
</svg>
