<svg width="20" height="20" viewBox="0 0 20 20" fill="none" xmlns="http://www.w3.org/2000/svg">
<path fill-rule="evenodd" clip-rule="evenodd" d="M10 6.875C8.27413 6.875 6.87502 8.27411 6.87502 10C6.87502 11.7259 8.27413 13.125 10 13.125C11.7259 13.125 13.125 11.7259 13.125 10C13.125 8.27411 11.7259 6.875 10 6.875ZM5.62502 10C5.62502 7.58375 7.58378 5.625 10 5.625C12.4163 5.625 14.375 7.58375 14.375 10C14.375 12.4162 12.4163 14.375 10 14.375C7.58378 14.375 5.62502 12.4162 5.62502 10Z" fill="#6B6B6A"/>
<path fill-rule="evenodd" clip-rule="evenodd" d="M7.32365 1.66303C7.4953 1.60762 7.68253 1.62907 7.83721 1.72188L9.66415 2.81805C9.88809 2.80804 10.1124 2.80804 10.3363 2.81806L12.1556 1.72932C12.309 1.63752 12.4944 1.61581 12.6649 1.66966C13.8588 2.04686 14.9565 2.67904 15.8819 3.52243C16.0146 3.64333 16.0889 3.81543 16.0859 3.9949L16.0501 6.11852C16.1735 6.30797 16.2867 6.50385 16.3893 6.70533L18.2412 7.735C18.3972 7.8217 18.5086 7.97092 18.5475 8.14506C18.82 9.36543 18.8229 10.6306 18.5559 11.8522C18.5176 12.0278 18.4054 12.1784 18.2481 12.2655L16.389 13.2952C16.2865 13.4965 16.1734 13.6922 16.0501 13.8815L16.0859 16.0051C16.0889 16.1846 16.0146 16.3567 15.8819 16.4776C14.9584 17.3191 13.8654 17.9531 12.6764 18.337C12.5047 18.3924 12.3175 18.3709 12.1628 18.2781L10.3359 17.182C10.112 17.192 9.88768 17.192 9.66375 17.1819L7.8444 18.2707C7.691 18.3625 7.50564 18.3842 7.33518 18.3303C6.14124 17.9531 5.04355 17.321 4.1181 16.4776C3.98543 16.3567 3.91114 16.1845 3.91417 16.0051L3.94996 13.8863C3.82732 13.6948 3.71424 13.4975 3.61113 13.2949L1.75882 12.265C1.60287 12.1783 1.49142 12.0291 1.45254 11.8549C1.18007 10.6346 1.17719 9.36943 1.44412 8.14783C1.48249 7.9722 1.59463 7.8216 1.7519 7.73451L3.61105 6.70482C3.71354 6.50352 3.82666 6.30781 3.94993 6.11851L3.91417 3.9949C3.91115 3.81542 3.98544 3.64331 4.11812 3.52241C5.04162 2.68087 6.13464 2.04686 7.32365 1.66303ZM5.16887 4.26302L5.20306 6.29417C5.20527 6.42575 5.16589 6.55468 5.09053 6.66258C4.92289 6.90258 4.77613 7.15651 4.65184 7.42158C4.59597 7.54074 4.50391 7.63923 4.38877 7.70299L2.61107 8.68757C2.45557 9.5557 2.45773 10.4448 2.61745 11.3122L4.38967 12.2975C4.50393 12.361 4.59539 12.4588 4.65119 12.577C4.7782 12.8462 4.92634 13.1048 5.09422 13.3506C5.16721 13.4574 5.20524 13.5843 5.20306 13.7137L5.16888 15.7369C5.84443 16.3076 6.61695 16.7524 7.44965 17.0502L9.1869 16.0106C9.29692 15.9447 9.42453 15.9143 9.55243 15.9235C9.85044 15.9448 10.1496 15.9448 10.4476 15.9235C10.5758 15.9143 10.7036 15.9448 10.8138 16.0109L12.5566 17.0567C13.3866 16.7542 14.1566 16.3074 14.8312 15.737L14.797 13.7058C14.7948 13.5742 14.8342 13.4453 14.9095 13.3374C15.0772 13.0974 15.2239 12.8435 15.3482 12.5784C15.4041 12.4593 15.4961 12.3608 15.6113 12.297L17.389 11.3124C17.5445 10.4443 17.5423 9.55521 17.3826 8.68783L15.6104 7.7025C15.4957 7.63871 15.4039 7.54043 15.3482 7.42158C15.2239 7.15651 15.0772 6.90258 14.9095 6.66258C14.8342 6.55468 14.7948 6.42575 14.797 6.29417L14.8312 4.26311C14.1556 3.69242 13.3831 3.24759 12.5504 2.94982L10.8131 3.98943C10.7031 4.05527 10.5755 4.08568 10.4476 4.07653C10.1496 4.05522 9.85044 4.05522 9.55243 4.07653C9.42429 4.0857 9.29644 4.05515 9.18628 3.98906L7.44343 2.94335C6.61345 3.24584 5.84341 3.69261 5.16887 4.26302Z" fill="#6B6B6A"/>
</svg>
