<svg width="20" height="20" viewBox="0 0 20 20" fill="none" xmlns="http://www.w3.org/2000/svg">
<path fill-rule="evenodd" clip-rule="evenodd" d="M11.5328 4.48393L9.99662 6.02007C9.75254 6.26414 9.35682 6.26414 9.11274 6.02007C8.86866 5.77599 8.86866 5.38026 9.11274 5.13618L10.6596 3.58931C10.6664 3.58249 10.6734 3.57583 10.6805 3.56933C11.4543 2.86411 12.47 2.48413 13.5166 2.50836C14.5632 2.53259 15.5603 2.95917 16.3006 3.69944C17.0408 4.43971 17.4674 5.43675 17.4916 6.48338C17.5159 7.53 17.1359 8.54572 16.4307 9.31945C16.4239 9.32686 16.417 9.33409 16.4099 9.34116L14.2006 11.5427C14.2003 11.5429 14.2 11.5432 14.1998 11.5435C13.8232 11.9212 13.3759 12.221 12.8833 12.4255C12.3904 12.6303 11.8619 12.7356 11.3281 12.7356C10.7944 12.7356 10.2659 12.6303 9.77295 12.4255C9.28003 12.2208 8.83237 11.9208 8.45566 11.5427C8.21204 11.2981 8.21278 10.9024 8.45732 10.6588C8.70185 10.4152 9.09758 10.4159 9.3412 10.6604C9.60177 10.922 9.91142 11.1295 10.2524 11.2711C10.5934 11.4127 10.9589 11.4856 11.3281 11.4856C11.6973 11.4856 12.0629 11.4127 12.4038 11.2711C12.7448 11.1295 13.0545 10.922 13.315 10.6604L13.3166 10.6588L15.5164 8.46685C15.9989 7.93206 16.2586 7.23275 16.242 6.51231C16.2252 5.78711 15.9296 5.09626 15.4167 4.58332C14.9037 4.07039 14.2129 3.77482 13.4877 3.75803C12.7671 3.74134 12.0676 4.00121 11.5328 4.48393Z" fill="#6B6B6A"/>
<path fill-rule="evenodd" clip-rule="evenodd" d="M8.67187 8.51436C8.30267 8.51436 7.9371 8.58726 7.59614 8.72886C7.25517 8.87047 6.94552 9.078 6.68495 9.33955L6.68334 9.34116L4.48357 11.5332C4.00107 12.0679 3.74134 12.7672 3.75802 13.4877C3.77481 14.2129 4.07038 14.9037 4.58331 15.4167C5.09625 15.9296 5.7871 16.2252 6.5123 16.242C7.23292 16.2587 7.9324 15.9988 8.46723 15.5161L10.0034 13.9799C10.2474 13.7359 10.6432 13.7359 10.8872 13.9799C11.1313 14.224 11.1313 14.6197 10.8872 14.8638L9.34037 16.4107C9.33355 16.4175 9.32658 16.4242 9.31945 16.4307C8.54571 17.1359 7.52999 17.5159 6.48337 17.4916C5.43675 17.4674 4.4397 17.0408 3.69943 16.3006C2.95916 15.5603 2.53259 14.5632 2.50835 13.5166C2.48412 12.47 2.8641 11.4543 3.56932 10.6805C3.57607 10.6731 3.58299 10.6659 3.59008 10.6588L5.79941 8.45732C5.79969 8.45704 5.79998 8.45676 5.80026 8.45647C6.17679 8.07875 6.62415 7.77903 7.1167 7.57446C7.60963 7.36975 8.13812 7.26436 8.67187 7.26436C9.20561 7.26436 9.73411 7.36975 10.227 7.57446C10.72 7.77918 11.1676 8.0792 11.5443 8.45732C11.7879 8.70186 11.7872 9.09758 11.5427 9.34121C11.2981 9.58483 10.9024 9.58409 10.6588 9.33955C10.3982 9.078 10.0886 8.87047 9.7476 8.72886C9.40663 8.58726 9.04107 8.51436 8.67187 8.51436Z" fill="#6B6B6A"/>
</svg>
