<svg width="20" height="20" viewBox="0 0 20 20" fill="none" xmlns="http://www.w3.org/2000/svg">
<path fill-rule="evenodd" clip-rule="evenodd" d="M9.38637 1.19107C9.57315 1.08406 9.78469 1.02774 10 1.02774C10.2153 1.02774 10.4268 1.08406 10.6136 1.19107L17.4883 5.05808C17.6806 5.1673 17.8408 5.3253 17.9525 5.51614C18.0643 5.70698 18.1238 5.92392 18.125 6.14509L18.125 6.14844L18.125 13.8516H17.5L18.125 13.8549C18.1238 14.0761 18.0643 14.293 17.9525 14.4839C17.8408 14.6747 17.6806 14.8327 17.4883 14.9419L17.4861 14.9432L10.6136 18.809C10.4268 18.916 10.2153 18.9723 10 18.9723C9.7847 18.9723 9.57316 18.916 9.38639 18.809L2.5139 14.9432L2.51168 14.9419C2.31936 14.8327 2.15924 14.6747 2.04746 14.4839C1.93568 14.293 1.8762 14.0761 1.87501 13.8549L1.875 13.8516V6.14509C1.87619 5.92392 1.93568 5.70698 2.04746 5.51614C2.15924 5.3253 2.31936 5.1673 2.51168 5.05809L2.5139 5.05683L9.38637 1.19107ZM16.875 13.8486V6.15146C16.8749 6.1502 16.8746 6.14898 16.8739 6.14789C16.8733 6.14678 16.8724 6.14585 16.8713 6.14518V6.14518L10 2.28009L3.12895 6.14505V6.14505C3.12785 6.14572 3.12671 6.14678 3.12606 6.14789C3.12542 6.14898 3.12506 6.15021 3.125 6.15146V13.8485C3.12506 13.8498 3.12542 13.851 3.12606 13.8521C3.12671 13.8532 3.12762 13.8542 3.12871 13.8548V13.8548L10 17.7199L16.8711 13.855V13.855C16.8721 13.8543 16.8733 13.8532 16.8739 13.8521C16.8746 13.851 16.8749 13.8498 16.875 13.8486Z" fill="#6B6B6A"/>
<path fill-rule="evenodd" clip-rule="evenodd" d="M5.70272 3.37003C5.86943 3.06778 6.2496 2.9579 6.55185 3.1246L14.13 7.30429C14.3293 7.41424 14.4531 7.6239 14.4531 7.85157V11.9141C14.4531 12.2592 14.1733 12.5391 13.8281 12.5391C13.4829 12.5391 13.2031 12.2592 13.2031 11.9141V8.22061L5.94815 4.21916C5.6459 4.05245 5.53602 3.67228 5.70272 3.37003Z" fill="#6B6B6A"/>
<path fill-rule="evenodd" clip-rule="evenodd" d="M2.04002 5.52383C2.20808 5.22233 2.58874 5.11415 2.89024 5.28221L10.0674 9.28285L17.1053 5.2847C17.4055 5.1142 17.787 5.21928 17.9575 5.51941C18.128 5.81954 18.0229 6.20106 17.7228 6.37156L10.379 10.5434C10.1892 10.6513 9.95675 10.6522 9.76601 10.5459L2.28164 6.37405C1.98013 6.20599 1.87196 5.82533 2.04002 5.52383Z" fill="#6B6B6A"/>
<path fill-rule="evenodd" clip-rule="evenodd" d="M10.0756 9.37503C10.4207 9.37794 10.6982 9.66011 10.6953 10.0053L10.625 18.349C10.6221 18.6942 10.3399 18.9716 9.99473 18.9687C9.64957 18.9658 9.37211 18.6837 9.37502 18.3385L9.44533 9.99474C9.44824 9.64957 9.73041 9.37212 10.0756 9.37503Z" fill="#6B6B6A"/>
</svg>
