<svg width="20" height="20" viewBox="0 0 20 20" fill="none" xmlns="http://www.w3.org/2000/svg">
<path fill-rule="evenodd" clip-rule="evenodd" d="M16.0669 3.93306C16.311 4.17714 16.311 4.57286 16.0669 4.81694L4.81694 16.0669C4.57286 16.311 4.17714 16.311 3.93306 16.0669C3.68898 15.8229 3.68898 15.4271 3.93306 15.1831L15.1831 3.93306C15.4271 3.68898 15.8229 3.68898 16.0669 3.93306Z" fill="#6B6B6A"/>
<path fill-rule="evenodd" clip-rule="evenodd" d="M5.9375 4.375C5.07456 4.375 4.375 5.07456 4.375 5.9375C4.375 6.80045 5.07456 7.5 5.9375 7.5C6.80045 7.5 7.5 6.80045 7.5 5.9375C7.5 5.07456 6.80045 4.375 5.9375 4.375ZM3.125 5.9375C3.125 4.3842 4.3842 3.125 5.9375 3.125C7.4908 3.125 8.75 4.3842 8.75 5.9375C8.75 7.4908 7.4908 8.75 5.9375 8.75C4.3842 8.75 3.125 7.4908 3.125 5.9375Z" fill="#6B6B6A"/>
<path fill-rule="evenodd" clip-rule="evenodd" d="M14.0625 12.5C13.1996 12.5 12.5 13.1996 12.5 14.0625C12.5 14.9254 13.1996 15.625 14.0625 15.625C14.9254 15.625 15.625 14.9254 15.625 14.0625C15.625 13.1996 14.9254 12.5 14.0625 12.5ZM11.25 14.0625C11.25 12.5092 12.5092 11.25 14.0625 11.25C15.6158 11.25 16.875 12.5092 16.875 14.0625C16.875 15.6158 15.6158 16.875 14.0625 16.875C12.5092 16.875 11.25 15.6158 11.25 14.0625Z" fill="#6B6B6A"/>
</svg>
